<svg width="581" height="239" viewBox="0 0 581 239" fill="none" xmlns="http://www.w3.org/2000/svg">
<g clip-path="url(#clip0_3115_9991)">
<path d="M377.412 64.5625C362.305 87.0032 347.524 109.056 332.634 131.063C328.834 136.661 326.089 143.268 318.085 144.803C316.085 145.191 313.262 148.246 313.138 150.215C312.703 157.644 307.29 158.404 302.048 160.482C286.987 166.437 278.751 181.248 279.775 199.393C280.008 203.518 280.519 207.643 280.581 211.768C280.737 222.283 277.231 226.036 267.212 228.331C255.114 231.092 244.97 228.595 234.702 221.29C198.842 195.779 181.874 151.394 192.343 107.893C202.503 65.6481 238.533 33.4682 282.117 28.0247C320.133 23.2481 351.37 36.3838 377.412 64.5625ZM355.403 73.728C355.341 65.9273 348.842 59.3827 341.227 59.4913C333.549 59.5843 327.205 66.1289 327.236 73.9606C327.267 81.8234 333.642 88.1663 341.444 88.1198C349.277 88.0578 355.465 81.6838 355.403 73.728ZM237.416 109.909C237.416 101.922 231.026 95.5018 223.209 95.6104C215.283 95.7189 209.11 102.186 209.296 110.188C209.467 117.756 215.64 124.006 223.1 124.146C230.778 124.301 237.416 117.71 237.416 109.909ZM310.702 57.1495C310.873 49.2712 304.545 42.5561 296.821 42.4475C289.205 42.339 282.443 49.0851 282.443 56.7928C282.427 64.3144 288.492 70.6263 296.061 70.9675C303.987 71.3242 310.516 65.1674 310.702 57.1495ZM251.05 85.0336C258.712 84.9716 265.335 78.1324 265.164 70.4557C264.994 62.8101 257.998 56.1415 250.46 56.4361C243.016 56.7308 236.905 63.1358 236.858 70.6573C236.827 78.5976 243.233 85.0957 251.05 85.0336ZM239.727 157.83C239.851 150.215 233.151 143.361 225.52 143.33C218.323 143.299 211.638 149.735 211.25 157.024C210.863 164.638 217.315 171.493 225.117 171.726C233.011 171.974 239.603 165.693 239.727 157.83Z" fill="#E5890A"/>
<path d="M266.746 235.619C284.629 230.842 287.716 226.608 287.22 208.215C287.065 202.539 286.708 196.817 287.127 191.172C288.181 176.795 299.736 165.18 313.804 164.776C325.809 164.435 335.364 170.995 341.847 179.882C348.765 189.388 347.493 200.725 340.885 210.495C325.794 232.827 304.017 240.83 277.882 238.674C274.811 238.426 271.787 237.65 268.747 237.046C268.282 236.937 267.909 236.472 266.746 235.619ZM307.243 221.723C315.092 217.986 325.266 209.223 326.724 202.927C326.337 202.415 327.112 203.439 326.724 202.927C322.847 206.06 315.464 209.13 311.245 209.642C311.586 206.246 309.182 192.986 296.65 190.691C300.977 205.626 300.915 221.196 292.524 231.23C302.218 232.176 320.319 225.988 327.267 213.628C320.598 217.614 313.494 221.739 307.243 221.723Z" fill="#E5890A"/>
<path d="M429.915 0.0315027C431.528 0.589805 432.583 2.12514 432.521 3.81555C432.474 5.13377 432.35 6.42096 431.792 7.46003C405.145 57.8623 378.374 108.187 351.604 158.512C351.386 158.915 350.782 159.086 349.96 159.644C343.755 155.906 337.396 152.076 330.51 147.935C330.199 147.749 330.106 147.33 330.308 147.036C363.516 97.7499 396.351 49.007 429.202 0.264129C429.341 0.0470111 429.636 -0.0615478 429.915 0.0315027ZM411.939 32.1959C411.38 31.8392 410.636 31.9943 410.264 32.5526C407.565 36.6779 404.85 40.7876 402.167 44.9283C382.236 75.7125 362.275 106.497 342.422 137.343C341.46 138.832 340.56 140.414 339.754 142.259C339.459 142.941 340.498 143.856 341.196 144.136C341.832 144.399 342.577 144.167 342.949 143.577C365.702 106.76 391.217 71.6648 412.342 33.8243C412.652 33.2505 412.481 32.5371 411.939 32.1959Z" fill="#E5890A"/>
<path d="M396.97 94.3066C398.801 107.427 401.965 120.531 402.135 133.682C402.414 154.433 384.392 169.073 364.011 166.545C359.172 165.94 356.535 164.436 359.358 159.132C370.804 137.606 382.189 116.034 393.605 94.4927C394.721 94.4307 395.854 94.3687 396.97 94.3066Z" fill="#E5890A"/>
<path d="M352.286 168.375C351.309 173.663 348.036 175.866 343.895 173.725C335.922 169.616 328.276 164.808 320.862 159.752C319.481 158.806 318.861 154.79 319.714 153.115C320.567 151.471 324.46 149.563 325.732 150.246C334.108 154.681 342.188 159.721 350.223 164.762C351.324 165.444 351.696 167.289 352.286 168.375Z" fill="#E5890A"/>
<path d="M146.572 188.179V239H103.531V188.179H0V165.102L100.724 23.8516H146.572V154.2H173.079V188.194H146.572V188.179ZM103.531 72.4859C98.8471 80.5968 94.1785 88.0719 89.1842 95.2523L47.0892 154.184H103.531V72.4859Z" fill="#E5890A"/>
<path d="M554.493 188.179V239H511.452V188.179H407.921V165.102L508.645 23.8516H554.493V154.2H581V188.194H554.493V188.179ZM511.452 72.4859C506.768 80.5968 502.099 88.0719 497.105 95.2523L455.01 154.184H511.452V72.4859Z" fill="#E5890A"/>
</g>
<defs>
<clipPath id="clip0_3115_9991">
<rect width="581" height="239" fill="white"/>
</clipPath>
</defs>
</svg>
