<svg width="34" height="7" viewBox="0 0 34 7" fill="none" xmlns="http://www.w3.org/2000/svg">
<path fill-rule="evenodd" clip-rule="evenodd" d="M3.08327 2.07808V2.07633C3.00169 2.07633 2.92055 2.07721 2.83941 2.07633C2.79905 2.07545 2.77581 2.0908 2.76616 2.13247C2.72274 2.33203 2.67625 2.53116 2.63283 2.73072C2.61923 2.79168 2.62362 2.79607 2.68414 2.79651C2.81484 2.79738 2.94555 2.79738 3.07537 2.79607C3.13239 2.79519 3.18809 2.78423 3.24336 2.77063C3.42976 2.72458 3.54072 2.60659 3.57976 2.41844C3.62362 2.20352 3.53327 2.08729 3.31222 2.07852C3.23634 2.07545 3.15958 2.07808 3.08327 2.07808ZM2.47975 4.55577H2.70168C2.81177 4.55621 2.91703 4.53296 3.0166 4.48778C3.13984 4.43208 3.23677 4.34787 3.28589 4.21805C3.32011 4.12813 3.32668 4.03471 3.29028 3.94392C3.24116 3.82243 3.1473 3.7505 3.01835 3.73252C2.81966 3.70532 2.61966 3.72506 2.42054 3.72068C2.37975 3.7198 2.36615 3.74743 2.35782 3.78032C2.29554 4.01848 2.23326 4.25664 2.17229 4.49524C2.15914 4.54656 2.16571 4.55445 2.22142 4.55533C2.30738 4.55664 2.39379 4.55577 2.47975 4.55577ZM4.14464 3.17576C4.15122 3.19243 4.1635 3.19594 4.17447 3.20076C4.46219 3.33234 4.62578 3.56041 4.67798 3.86743C4.72578 4.1477 4.72403 4.42621 4.62271 4.69814C4.55429 4.88016 4.45605 5.04463 4.32754 5.18937C3.98368 5.57665 3.54771 5.78893 3.0385 5.86086C2.94332 5.87446 2.84727 5.87709 2.75121 5.87709H0.438046C0.32094 5.87709 0.32094 5.87709 0.350326 5.76393C0.558222 4.95779 0.766118 4.15208 0.974452 3.34594C1.06129 3.00953 1.14945 2.67357 1.23673 2.3376C1.26086 2.24462 1.25823 2.24199 1.16173 2.24155C1.08805 2.24111 1.01393 2.24243 0.940241 2.23979C0.89068 2.23804 0.882785 2.22576 0.905592 2.17971C0.958662 2.07181 1.01393 1.96435 1.06963 1.85734C1.25428 1.50076 1.44156 1.14549 1.62314 0.787594C1.65735 0.72005 1.69814 0.69812 1.77226 0.69812C2.46174 0.700752 3.15165 0.698559 3.84157 0.700313C4.07271 0.700752 4.29859 0.735401 4.51131 0.831015C4.85078 0.983648 5.0578 1.24067 5.11745 1.61216C5.16438 1.90734 5.09728 2.17971 4.94464 2.43322C4.76087 2.73804 4.50122 2.96436 4.19552 3.14068C4.18061 3.14901 4.16569 3.15778 4.15122 3.16655C4.14947 3.16787 4.14815 3.1705 4.14464 3.17576Z" fill="#003399"/>
<path fill-rule="evenodd" clip-rule="evenodd" d="M11.6962 2.38204C11.6756 2.39037 11.6739 2.41143 11.6669 2.42853C11.5883 2.61187 11.5107 2.7952 11.4326 2.97897C11.3305 3.22196 11.2278 3.4645 11.1256 3.70705C11.0967 3.77722 11.1015 3.78468 11.1734 3.78512C11.3309 3.786 11.4883 3.786 11.6462 3.78512C11.7147 3.78468 11.7226 3.77766 11.7221 3.70749C11.7195 3.27459 11.7217 2.84125 11.7063 2.40836C11.7063 2.39915 11.7076 2.38906 11.6962 2.38204ZM11.9216 0.700142C12.2984 0.700142 12.6747 0.699703 13.0519 0.700142C13.1664 0.700142 13.1668 0.701896 13.1703 0.814177C13.1813 1.10935 13.1901 1.40453 13.2045 1.69927C13.2155 1.92339 13.2238 2.14708 13.2339 2.3712C13.244 2.60454 13.2537 2.83787 13.2637 3.07164C13.2738 3.29796 13.283 3.52428 13.2931 3.75015C13.3032 3.9813 13.3129 4.21244 13.323 4.44358C13.3326 4.67691 13.3449 4.91112 13.3519 5.14446C13.3585 5.34621 13.3699 5.54797 13.3795 5.74929C13.38 5.76157 13.38 5.77385 13.38 5.78613C13.3804 5.87253 13.3765 5.87736 13.2879 5.87736C12.9528 5.8778 12.6181 5.87736 12.283 5.87736H11.8471C11.7199 5.87736 11.7199 5.87736 11.7199 5.75367V5.11113C11.7199 5.09358 11.7203 5.07648 11.7194 5.05937C11.7172 4.99884 11.712 4.99314 11.6497 4.99139C11.6054 4.99007 11.5607 4.99095 11.5168 4.99095C11.2409 4.99095 10.965 4.99227 10.6892 4.99007C10.6313 4.98963 10.601 5.00849 10.5786 5.06332C10.48 5.30762 10.376 5.55016 10.2743 5.79271C10.2392 5.87692 10.2396 5.87736 10.1506 5.87736H8.53214C8.43828 5.87736 8.43521 5.86946 8.47644 5.78876C8.63434 5.47955 8.79048 5.16902 8.94749 4.85937C9.29618 4.17209 9.64487 3.4848 9.99355 2.79708C10.0804 2.62603 10.1686 2.45497 10.2558 2.28392C10.2633 2.26857 10.2712 2.25322 10.2786 2.23787C10.2922 2.2098 10.2839 2.19532 10.2528 2.19489C10.2304 2.19445 10.208 2.19445 10.1865 2.19445C10.105 2.19401 10.0238 2.19489 9.94267 2.19225C9.89662 2.19094 9.88873 2.17778 9.90934 2.13699C9.94618 2.06462 9.9861 1.99401 10.0243 1.92252C10.201 1.59795 10.3773 1.27383 10.5545 0.949266C10.5848 0.892687 10.6194 0.8383 10.6449 0.780405C10.6712 0.719879 10.7093 0.692247 10.776 0.698826C10.8251 0.703651 10.8747 0.700142 10.9238 0.700142H11.9216Z" fill="#003399"/>
<mask id="mask0_6660_28488" style="mask-type:alpha" maskUnits="userSpaceOnUse" x="4" y="0" width="6" height="7">
<path fill-rule="evenodd" clip-rule="evenodd" d="M4.87695 0.666687H9.92534V6.04853H4.87695V0.666687Z" fill="white"/>
</mask>
<g mask="url(#mask0_6660_28488)">
<path fill-rule="evenodd" clip-rule="evenodd" d="M8.88244 4.26904C8.89516 4.29842 8.88025 4.31465 8.87235 4.33175C8.76577 4.55895 8.65919 4.78658 8.55262 5.01378C8.42367 5.2879 8.29296 5.56115 8.16621 5.83659C8.13989 5.89448 8.10393 5.92299 8.04121 5.93439C7.87674 5.96334 7.71533 6.01159 7.54822 6.02782C7.37893 6.04404 7.2105 6.05545 7.03989 6.0436C6.86752 6.03176 6.69647 6.01641 6.52717 5.98089C6.1719 5.90545 5.84646 5.76685 5.56751 5.53044C5.32014 5.32036 5.14032 5.06202 5.02541 4.75851C4.91269 4.46202 4.86532 4.15412 4.87935 3.83877C4.8969 3.4528 4.99339 3.08482 5.15392 2.73394C5.33418 2.34008 5.5798 1.99095 5.89164 1.69008C6.2219 1.37121 6.60085 1.12779 7.03024 0.965073C7.42629 0.815072 7.83507 0.74051 8.25875 0.740072C8.38902 0.740072 8.5127 0.769019 8.63595 0.805861C8.71051 0.828668 8.71051 0.829546 8.7592 0.769896L8.76797 0.758493C8.8592 0.642264 8.82674 0.645773 8.95876 0.714633C9.25613 0.869458 9.55174 1.02604 9.8478 1.18262C9.85701 1.187 9.86534 1.19139 9.87411 1.19665C9.93596 1.23349 9.93727 1.23525 9.90218 1.29928C9.66315 1.73262 9.42411 2.16596 9.18464 2.59929C9.15086 2.66026 9.14385 2.66245 9.08464 2.61727C8.91183 2.48701 8.7263 2.38306 8.5184 2.32034C8.38332 2.27911 8.24603 2.25499 8.10481 2.25104C7.87849 2.24534 7.65656 2.26376 7.44252 2.34139C6.93638 2.52561 6.63462 2.88789 6.52761 3.41114C6.47234 3.68263 6.51971 3.9414 6.67059 4.17649C6.82366 4.41553 7.05042 4.54886 7.32103 4.61553C7.67059 4.70237 8.01007 4.66334 8.34209 4.53263C8.51884 4.46202 8.69165 4.38614 8.85218 4.28307C8.86007 4.27825 8.86972 4.27518 8.88244 4.26904Z" fill="#003399"/>
</g>
<path fill-rule="evenodd" clip-rule="evenodd" d="M15.4593 3.69232C15.5392 3.58267 15.6115 3.48267 15.6835 3.38267C15.994 2.95197 16.305 2.52127 16.6133 2.08925C16.6493 2.03925 16.6892 2.01863 16.7497 2.01907C17.0646 2.02083 17.38 2.01995 17.6953 2.01995C17.7212 2.01995 17.7563 2.0103 17.7694 2.03969C17.7795 2.06381 17.7528 2.08398 17.7374 2.10284C17.3826 2.56557 17.0273 3.02741 16.6721 3.48969C16.6067 3.57434 16.5414 3.65855 16.476 3.74276C16.4243 3.80987 16.4234 3.81162 16.4699 3.87873C16.7194 4.23969 16.9699 4.60022 17.2203 4.96163C17.4137 5.24101 17.6072 5.5204 17.8001 5.80023C17.8133 5.81953 17.8414 5.83926 17.8251 5.86426C17.8098 5.88751 17.7791 5.87654 17.755 5.87654C17.4229 5.87742 17.0905 5.87611 16.7576 5.8783C16.6931 5.87918 16.6536 5.85725 16.6181 5.8033C16.3089 5.33838 15.9971 4.87522 15.6865 4.41163C15.6203 4.31294 15.6326 4.33005 15.5646 4.40812C15.4729 4.51382 15.4422 4.62917 15.4457 4.76864C15.4545 5.09058 15.4488 5.41382 15.4488 5.73619C15.4488 5.75593 15.4493 5.7761 15.4484 5.79584C15.4466 5.86909 15.44 5.87654 15.3664 5.87698C15.1506 5.87742 14.9348 5.87698 14.719 5.87698C14.6615 5.87698 14.6045 5.87786 14.5475 5.87654C14.4764 5.87567 14.4677 5.86602 14.465 5.79365C14.4646 5.7761 14.465 5.759 14.465 5.74146V2.15328C14.465 2.01995 14.465 2.01995 14.5944 2.01995C14.8431 2.01995 15.0909 2.01995 15.3392 2.01995C15.4444 2.01995 15.4488 2.02433 15.4488 2.12872V3.58794C15.4488 3.61732 15.444 3.64715 15.4593 3.69232Z" fill="#003399"/>
<path fill-rule="evenodd" clip-rule="evenodd" d="M25.6932 3.32494C25.6932 3.48853 25.6924 3.65257 25.6932 3.81616C25.6937 3.87932 25.7011 3.88985 25.7507 3.89073C25.9169 3.89423 26.084 3.89336 26.2476 3.8609C26.4533 3.81967 26.5981 3.70169 26.652 3.4916C26.6726 3.40695 26.6805 3.31967 26.6726 3.23283C26.6546 3.03064 26.5564 2.8666 26.3327 2.80213C26.2564 2.77976 26.1788 2.76353 26.0985 2.76397C25.9919 2.76397 25.8849 2.76178 25.7783 2.76222C25.7016 2.76265 25.6937 2.77011 25.6932 2.84818C25.6924 3.00695 25.6932 3.16616 25.6932 3.32494ZM24.7092 3.93967V2.13834C24.7092 2.02167 24.7114 2.01992 24.8241 2.01992C25.2807 2.01948 25.7373 2.01685 26.1939 2.02124C26.3991 2.02343 26.6057 2.03483 26.8057 2.09141C27.004 2.14668 27.1868 2.23264 27.3404 2.37343C27.4969 2.51773 27.5965 2.69536 27.6412 2.90194C27.7101 3.21598 27.6864 3.52344 27.5671 3.823C27.479 4.04537 27.3211 4.21028 27.1311 4.348C26.9061 4.5116 26.65 4.58704 26.3754 4.61379C26.2241 4.62871 26.0728 4.62169 25.9215 4.62432C25.8693 4.6252 25.8171 4.62344 25.7653 4.62476C25.7044 4.62651 25.6965 4.63485 25.693 4.69362C25.6921 4.71335 25.6925 4.73309 25.6925 4.75327C25.6925 5.08836 25.693 5.42301 25.6925 5.7581C25.6925 5.87608 25.6917 5.87696 25.5715 5.87696C25.3206 5.8774 25.0697 5.87696 24.8193 5.87696C24.8022 5.87696 24.7846 5.87783 24.7675 5.87608C24.7215 5.87257 24.7136 5.8638 24.7101 5.81599C24.7083 5.79143 24.7092 5.76643 24.7092 5.74187V3.93967Z" fill="#003399"/>
<path fill-rule="evenodd" clip-rule="evenodd" d="M22.288 4.05882C22.3279 4.04303 22.338 4.01847 22.3524 3.99917C22.5919 3.68294 22.8323 3.36672 23.0695 3.04829C23.1125 2.99084 23.1581 2.96584 23.2309 2.96715C23.5217 2.9711 23.8121 2.96847 24.1024 2.96847C24.1174 2.96847 24.1323 2.96847 24.1472 2.96891C24.1612 2.96978 24.1792 2.96627 24.1871 2.98119C24.1976 3.00049 24.1814 3.01408 24.1709 3.0268C24.0634 3.1597 23.9551 3.29259 23.8472 3.42593C23.6498 3.66803 23.4524 3.91058 23.2555 4.15356C23.1998 4.22154 23.1994 4.22286 23.2472 4.29479C23.5033 4.68207 23.759 5.06936 24.0152 5.45664C24.0902 5.57023 24.1647 5.68471 24.2397 5.79874C24.2481 5.81103 24.2564 5.82331 24.2634 5.8369C24.2731 5.85708 24.2674 5.87111 24.2446 5.87462C24.2274 5.87725 24.2099 5.87725 24.1928 5.87725C23.8871 5.87725 23.5818 5.87638 23.2766 5.87813C23.2195 5.87857 23.1867 5.85708 23.1573 5.80927C22.927 5.43559 22.6945 5.06234 22.4625 4.68909C22.4564 4.679 22.4494 4.66848 22.4428 4.65795C22.4266 4.6347 22.4103 4.63909 22.395 4.65839C22.3327 4.73602 22.2814 4.8119 22.2853 4.92418C22.2941 5.20137 22.288 5.47988 22.288 5.75795C22.288 5.78032 22.2875 5.80269 22.2871 5.82462C22.2866 5.85839 22.2687 5.87462 22.2362 5.87594C22.2191 5.87682 22.2016 5.87725 22.1845 5.87725H21.4766C21.459 5.87725 21.4419 5.87682 21.4244 5.87594C21.3919 5.87462 21.3744 5.85839 21.3739 5.82462C21.3739 5.80445 21.373 5.78515 21.373 5.76541V1.96715C21.373 1.85267 21.3735 1.85223 21.488 1.85223H22.1726C22.1954 1.85223 22.2178 1.85267 22.2402 1.85399C22.2695 1.85487 22.2853 1.87066 22.2866 1.90048C22.2875 1.92767 22.288 1.95487 22.288 1.9825V3.96277V4.05882Z" fill="#003399"/>
<path fill-rule="evenodd" clip-rule="evenodd" d="M29.6118 4.82864C29.6118 4.75452 29.6123 4.67996 29.6114 4.60583C29.6105 4.52689 29.6017 4.51943 29.5254 4.5282C29.4491 4.53741 29.3724 4.54443 29.2965 4.55364C29.161 4.57075 29.0263 4.59268 28.9044 4.65847C28.8114 4.7089 28.7531 4.78522 28.7386 4.89136C28.7298 4.95277 28.732 5.01461 28.7438 5.07557C28.7658 5.18435 28.8298 5.25145 28.9351 5.28084C29.1636 5.34487 29.371 5.30584 29.5583 5.15935C29.5969 5.12952 29.614 5.09356 29.6123 5.04399C29.6096 4.9725 29.6118 4.90057 29.6118 4.82864ZM30.5239 4.78321V5.73585C30.5239 5.75559 30.5244 5.77532 30.5235 5.7955C30.5217 5.86874 30.516 5.87708 30.4423 5.87708C30.2388 5.87839 30.0353 5.87752 29.8318 5.87752C29.7849 5.87752 29.7375 5.87839 29.6906 5.87708C29.6235 5.87532 29.6147 5.86567 29.6125 5.79725C29.6108 5.74769 29.6121 5.69769 29.6112 5.64857C29.6112 5.63409 29.6134 5.61655 29.5963 5.60997C29.5796 5.60383 29.5687 5.61743 29.5577 5.62664C29.4761 5.69594 29.3937 5.7626 29.2989 5.81392C29.0336 5.95778 28.7529 5.9898 28.4625 5.92357C28.1366 5.84945 27.8752 5.56129 27.8217 5.2319C27.798 5.08848 27.7989 4.94549 27.8252 4.80251C27.8796 4.50295 28.0643 4.30953 28.3327 4.1854C28.5191 4.099 28.7173 4.05558 28.9195 4.02795C29.1261 3.99944 29.3331 3.97926 29.5415 3.9661C29.6178 3.96084 29.6244 3.94856 29.6138 3.87268C29.5941 3.73628 29.5178 3.64812 29.3893 3.60207C29.2831 3.56435 29.1726 3.54944 29.0612 3.54066C28.8577 3.52575 28.6603 3.55865 28.4673 3.61961C28.3704 3.65031 28.2748 3.6854 28.1801 3.72356C28.0673 3.76961 28.0458 3.7547 28.0458 3.63233C28.0458 3.45865 28.0454 3.28496 28.0458 3.11128C28.0463 3.03452 28.0494 3.02882 28.1261 3.01084C28.3726 2.95382 28.6208 2.90996 28.8744 2.89198C29.1537 2.87224 29.4296 2.88628 29.7033 2.94066C29.8823 2.97619 30.0524 3.03628 30.2007 3.14812C30.3252 3.24242 30.4108 3.36435 30.4643 3.50996C30.5055 3.62268 30.527 3.73935 30.5239 3.85996C30.5235 3.86523 30.5239 3.86961 30.5239 3.87488V4.78321Z" fill="#003399"/>
<mask id="mask1_6660_28488" style="mask-type:alpha" maskUnits="userSpaceOnUse" x="30" y="2" width="4" height="5">
<path fill-rule="evenodd" clip-rule="evenodd" d="M30.623 2.96851H33.6674V6.93593H30.623V2.96851Z" fill="white"/>
</mask>
<g mask="url(#mask1_6660_28488)">
<path fill-rule="evenodd" clip-rule="evenodd" d="M32.1738 4.7331C32.201 4.69757 32.2067 4.66029 32.2177 4.62608C32.3826 4.10283 32.5466 3.57958 32.7111 3.05634C32.7383 2.96949 32.7387 2.96905 32.8295 2.96905C33.0826 2.96862 33.3357 2.96862 33.5892 2.96905C33.6769 2.96905 33.6809 2.97519 33.6502 3.05765C33.3471 3.87915 33.0436 4.70108 32.7405 5.52257C32.5752 5.9695 32.4098 6.41644 32.2444 6.86293C32.219 6.93267 32.2159 6.9353 32.1431 6.93574C31.8677 6.93617 31.5923 6.93574 31.3168 6.93574C31.3019 6.93574 31.287 6.93574 31.2721 6.93442C31.2506 6.93135 31.2418 6.91731 31.248 6.89714C31.2532 6.87828 31.2607 6.85986 31.2677 6.84144C31.3923 6.51951 31.5164 6.19757 31.6423 5.87652C31.6637 5.82213 31.6637 5.77433 31.6427 5.71906C31.3072 4.83046 30.9734 3.94011 30.6392 3.05063C30.6357 3.04142 30.6313 3.03221 30.6291 3.023C30.6159 2.98002 30.6221 2.97169 30.6694 2.96905C30.687 2.96818 30.7041 2.96862 30.7216 2.96862C30.9677 2.96862 31.2133 2.96862 31.4589 2.96905C31.5765 2.96905 31.5708 2.95765 31.6102 3.07563C31.7848 3.598 31.9594 4.12081 32.1344 4.64318C32.1436 4.67081 32.148 4.70108 32.1738 4.7331Z" fill="#003399"/>
</g>
<path fill-rule="evenodd" clip-rule="evenodd" d="M19.1137 3.86516V5.76341C19.1137 5.87657 19.1133 5.87701 19.004 5.87701C18.7707 5.87745 18.5374 5.87701 18.304 5.87701C18.2865 5.87701 18.2694 5.87657 18.2519 5.87613C18.2198 5.87481 18.201 5.85946 18.2005 5.82569C18.2001 5.80596 18.1992 5.78578 18.1992 5.76604V1.9612C18.1992 1.85243 18.1997 1.85243 18.3054 1.85199H19.0054C19.0225 1.85199 19.04 1.85287 19.0571 1.85287C19.0935 1.85287 19.1128 1.86953 19.1128 1.90681C19.1128 1.93181 19.1137 1.95638 19.1137 1.98138V3.86516Z" fill="#003399"/>
<path fill-rule="evenodd" clip-rule="evenodd" d="M19.793 4.4156V3.07612C19.793 2.96822 19.7934 2.96822 19.8995 2.96778H20.5991C20.614 2.96778 20.6289 2.96734 20.6438 2.96866C20.6965 2.97217 20.7039 2.97919 20.7074 3.03006C20.7088 3.05243 20.7079 3.07436 20.7079 3.09673V5.75332C20.7079 5.87657 20.7079 5.87657 20.5864 5.87657C20.3605 5.87701 20.1346 5.87657 19.9092 5.87657C19.8895 5.87657 19.8693 5.87613 19.8495 5.87613C19.814 5.87525 19.7938 5.85946 19.7938 5.82174C19.7938 5.79938 19.793 5.77701 19.793 5.75508V4.4156Z" fill="#003399"/>
<path fill-rule="evenodd" clip-rule="evenodd" d="M20.2494 2.57108C20.1151 2.57108 19.9814 2.57196 19.8472 2.57108C19.7744 2.57064 19.7665 2.56275 19.7665 2.48906C19.7656 2.30266 19.7651 2.11669 19.7665 1.93029C19.7669 1.86055 19.7748 1.85266 19.8436 1.85222C20.1143 1.85134 20.3849 1.85134 20.6555 1.85222C20.7292 1.85222 20.7353 1.85968 20.7358 1.93424C20.7366 2.12064 20.7366 2.30661 20.7358 2.49257C20.7353 2.56231 20.7274 2.5702 20.659 2.57064C20.5222 2.57196 20.3858 2.57108 20.2494 2.57108Z" fill="#003399"/>
</svg>
