<svg width="38" height="14" viewBox="0 0 38 14" fill="none" xmlns="http://www.w3.org/2000/svg">
<path fill-rule="evenodd" clip-rule="evenodd" d="M29.042 2.9716C29.0665 2.97008 29.0904 2.96753 29.1149 2.96753H37.262C37.3302 2.96753 37.3323 2.96855 37.3323 3.04239C37.3328 4.7092 37.3333 6.376 37.3338 8.04281V8.14771C37.2737 8.13549 37.2207 8.1248 37.1673 8.11258C36.9371 8.05961 36.7074 8.00563 36.4772 7.95318C36.3071 7.91498 36.136 7.88086 35.9659 7.84165C35.7408 7.79072 35.5162 7.73674 35.2912 7.68531C35.1842 7.66035 35.0757 7.63845 34.9683 7.61401C34.8033 7.57632 34.6393 7.53813 34.4753 7.50045C34.3052 7.46123 34.1351 7.42406 33.9656 7.38535C33.8026 7.34767 33.6396 7.30845 33.4772 7.27077C33.3677 7.24582 33.2577 7.22341 33.1482 7.19845C32.9852 7.16128 32.8228 7.12257 32.6598 7.0854C32.5473 7.05994 32.4337 7.03549 32.3212 7.01054C32.1954 6.98202 32.0701 6.95197 31.9443 6.92345C31.7691 6.88322 31.5944 6.8435 31.4193 6.80276C31.2833 6.7717 31.1483 6.7391 31.0124 6.70804C30.8794 6.67748 30.747 6.64846 30.6146 6.6179C30.4985 6.59142 30.3839 6.56341 30.2678 6.53744C30.1069 6.50128 29.9444 6.46665 29.7835 6.42998C29.6139 6.39179 29.4449 6.35054 29.2753 6.31183C29.2014 6.29452 29.1271 6.28128 29.0527 6.26651C29.0492 6.26142 29.0451 6.25683 29.041 6.25174C29.041 6.22832 29.0415 6.20387 29.0415 6.17943C29.042 5.10998 29.042 4.04105 29.042 2.9716Z" fill="#F8A828"/>
<path fill-rule="evenodd" clip-rule="evenodd" d="M29.0407 2.97169C29.0407 4.04114 29.0407 5.11007 29.0402 6.17952C29.0402 6.20396 29.0397 6.22841 29.0397 6.25183C29.0259 6.25183 29.0112 6.25387 28.9984 6.25132C28.8783 6.22739 28.7586 6.20244 28.6389 6.17697C28.3771 6.12248 28.1159 6.06748 27.8541 6.01197C27.4778 5.93202 27.1015 5.85207 26.7256 5.7716C26.3442 5.69063 25.9633 5.60762 25.5818 5.52716C25.1581 5.43804 24.7344 5.35095 24.3107 5.26183C24.0963 5.21651 23.8829 5.16762 23.6685 5.1223C23.3197 5.04795 22.9698 4.97614 22.6205 4.9023C22.4484 4.86563 22.2772 4.82591 22.1051 4.78924C21.9126 4.7485 21.7196 4.71082 21.5271 4.6716C21.3412 4.63341 21.1559 4.59572 20.97 4.55651C20.7693 4.51424 20.5687 4.47044 20.368 4.42665C20.2249 4.39558 20.0823 4.36146 19.9392 4.33193C19.7248 4.28711 19.5094 4.24586 19.295 4.20105C19.0541 4.15063 18.8128 4.09869 18.5714 4.04725C18.1899 3.96628 17.8085 3.88632 17.4276 3.80484C17.1475 3.74526 16.8689 3.68313 16.5888 3.62406C16.2547 3.55378 15.9196 3.48503 15.5856 3.41475C15.388 3.3735 15.1914 3.33021 14.9938 3.28845C14.6256 3.21105 14.2579 3.13364 13.8897 3.05674C13.792 3.03637 13.6937 3.01906 13.5959 3.00021H13.5964C13.576 2.9941 13.5557 2.98748 13.5353 2.98188C13.5144 2.97628 13.4935 2.97119 13.4727 2.96609C13.4732 2.96355 13.4737 2.96151 13.4742 2.95947C14.951 2.95947 16.4279 2.95947 17.9047 2.95998C18.2032 2.95998 18.5011 2.96406 18.7995 2.96406C21.6096 2.96507 24.4207 2.96507 27.2313 2.96609C27.8103 2.96609 28.3899 2.9666 28.9684 2.96762C28.9923 2.96762 29.0168 2.97017 29.0407 2.97169Z" fill="#F17523"/>
<path fill-rule="evenodd" clip-rule="evenodd" d="M13.5957 3.00006C13.6935 3.0189 13.7918 3.03622 13.8895 3.05659C14.2577 3.134 14.6254 3.21089 14.9936 3.2883C15.1912 3.33006 15.3883 3.37335 15.5854 3.4146C15.9195 3.48488 16.2545 3.55363 16.5886 3.62441C16.8687 3.68349 17.1478 3.74511 17.4274 3.80469C17.8083 3.88617 18.1897 3.96613 18.5717 4.04761C18.8126 4.09853 19.0539 4.15099 19.2948 4.20089C19.5092 4.24571 19.7246 4.28696 19.939 4.33177C20.0821 4.36182 20.2252 4.39543 20.3678 4.42701C20.5685 4.4708 20.7691 4.5146 20.9698 4.55687C21.1557 4.59608 21.341 4.63326 21.5269 4.67145C21.7194 4.71066 21.9124 4.74886 22.1049 4.7896C22.277 4.82576 22.4482 4.86548 22.6203 4.90214C22.9696 4.97599 23.3195 5.04779 23.6683 5.12214C23.8827 5.16747 24.0961 5.21687 24.3105 5.26168C24.7342 5.3508 25.1579 5.43788 25.5816 5.52701C25.9631 5.60747 26.344 5.69048 26.7254 5.77145C27.1018 5.85242 27.4776 5.93238 27.8539 6.01182C28.1157 6.06733 28.377 6.12233 28.6387 6.17682C28.7584 6.20228 28.8781 6.22724 28.9983 6.25168C29.0115 6.25423 29.0258 6.25219 29.0395 6.25219C29.0436 6.25728 29.0477 6.26136 29.0517 6.26645V8.14918C28.9412 8.11251 28.8368 8.07738 28.7319 8.04224C28.5521 7.98265 28.3729 7.92358 28.1931 7.864C28.0184 7.80594 27.8443 7.74687 27.6701 7.68932C27.4903 7.62974 27.3111 7.57117 27.1313 7.51108C26.978 7.46015 26.8258 7.4077 26.672 7.35728C26.4907 7.29719 26.3094 7.23812 26.1281 7.17802C25.9753 7.1271 25.8225 7.07363 25.6692 7.0227C25.4895 6.96261 25.3097 6.90506 25.1299 6.84548C24.9771 6.79455 24.8249 6.74261 24.6716 6.69168C24.4913 6.63159 24.31 6.57302 24.1292 6.51242C23.978 6.46251 23.8272 6.41057 23.6755 6.36066C23.4937 6.29955 23.3103 6.24048 23.1285 6.17988C22.9528 6.12131 22.7776 6.0602 22.6025 6.00214C22.4196 5.94154 22.2368 5.884 22.054 5.8239C21.9338 5.78418 21.8146 5.74191 21.6939 5.70168C21.5493 5.6533 21.4047 5.60645 21.2601 5.55807C21.093 5.50307 20.9255 5.44756 20.7579 5.39154L20.2614 5.22603C20.0944 5.17052 19.9273 5.11451 19.7598 5.059C19.5907 5.00298 19.4216 4.94696 19.2526 4.89145C19.0626 4.8283 18.8726 4.76617 18.6827 4.70251C18.5065 4.64293 18.3313 4.57978 18.1541 4.52071C17.959 4.45552 17.763 4.39441 17.5679 4.32974C17.3673 4.26353 17.1687 4.19427 16.968 4.12807C16.7664 4.06136 16.5626 3.99923 16.361 3.9315C16.1237 3.85256 15.8874 3.76955 15.6495 3.68909C15.5014 3.63867 15.3521 3.59182 15.2039 3.54191C15.0196 3.4808 14.8363 3.41765 14.6519 3.35654C14.4971 3.30562 14.3413 3.25622 14.1864 3.20529C13.9955 3.14265 13.805 3.07951 13.6145 3.01585C13.6069 3.0133 13.6018 3.00515 13.5957 3.00006Z" fill="#FDC938"/>
<mask id="mask0_6893_29185" style="mask-type:alpha" maskUnits="userSpaceOnUse" x="0" y="0" width="7" height="3">
<path d="M0.666016 0.33374H6.63489V2.95795H0.666016V0.33374Z" fill="white"/>
</mask>
<g mask="url(#mask0_6893_29185)">
<path fill-rule="evenodd" clip-rule="evenodd" d="M6.63504 2.95642C6.61213 2.95693 6.58972 2.95795 6.56731 2.95795H0.80759H0.666016V0.33374C0.724071 0.343416 0.779071 0.352074 0.833053 0.363277C1.25676 0.449851 1.68046 0.537444 2.10416 0.624527C2.37458 0.680546 2.64551 0.737073 2.91643 0.791564C3.30805 0.871009 3.69967 0.948925 4.09129 1.02786C4.33828 1.07828 4.58527 1.13124 4.83227 1.18166C5.09148 1.23411 5.3512 1.28453 5.6099 1.33749C5.90018 1.39656 6.18893 1.4592 6.47819 1.5193C6.52759 1.52948 6.57699 1.53763 6.62639 1.54629C6.62893 1.54883 6.63199 1.55189 6.63504 1.55443V2.95642Z" fill="#F17523"/>
</g>
<path fill-rule="evenodd" clip-rule="evenodd" d="M1.53116 9.01534C1.68598 9.00566 1.83519 9.00464 1.98237 8.98478C2.20339 8.95627 2.40301 8.87275 2.55681 8.70265C2.72079 8.52085 2.78496 8.29728 2.8145 8.06302C2.85269 7.75798 2.8532 7.45191 2.8145 7.14636C2.78649 6.92534 2.73047 6.71145 2.60926 6.52099C2.49519 6.34173 2.34292 6.20372 2.12241 6.18487C1.92991 6.16858 1.73487 6.17622 1.54135 6.17367C1.53829 6.17367 1.53575 6.17724 1.53116 6.18029V9.01534ZM0.667969 9.49863V5.68224C0.681719 5.68122 0.693432 5.67918 0.705145 5.67918C1.19811 5.67969 1.69005 5.6746 2.18251 5.68376C2.4794 5.68886 2.76102 5.76423 3.01005 5.93687C3.26825 6.11613 3.42764 6.36719 3.53357 6.65543C3.66903 7.02363 3.70977 7.40404 3.68482 7.79464C3.66903 8.04214 3.64001 8.28659 3.56769 8.52543C3.40676 9.05761 3.04621 9.3652 2.50181 9.45432C2.32663 9.48335 2.14686 9.49404 1.96913 9.49659C1.55459 9.5027 1.14005 9.49863 0.725515 9.49863H0.667969Z" fill="#0D4942"/>
<path fill-rule="evenodd" clip-rule="evenodd" d="M14.2387 9.41224V9.35469C14.2387 8.79298 14.2402 8.23177 14.2387 7.67006C14.2382 7.58399 14.2306 7.4964 14.2127 7.41288C14.1735 7.23311 14.0656 7.15163 13.8817 7.15927C13.7615 7.16487 13.6439 7.18168 13.5512 7.27335C13.4544 7.3696 13.4381 7.49182 13.4381 7.61811C13.4376 8.19001 13.4376 8.76191 13.4376 9.33381V9.4102H12.6875V6.76561H13.4371V7.06862C13.4972 7.02024 13.5471 6.97594 13.6011 6.93723C13.9097 6.71672 14.2463 6.65154 14.6105 6.76358C14.7755 6.81348 14.8951 6.92297 14.969 7.08085C14.972 7.08899 14.9756 7.09663 14.9792 7.10427C14.9807 7.10784 14.9832 7.10987 14.9832 7.10987C15.0856 7.02788 15.1839 6.94029 15.2908 6.86543C15.5765 6.66427 15.9865 6.65816 16.2717 6.84404C16.43 6.9464 16.5059 7.09969 16.5309 7.27997C16.5431 7.37061 16.5482 7.4633 16.5487 7.55497C16.5502 8.15538 16.5492 8.75682 16.5492 9.35825V9.41173H15.7823V9.35571C15.7823 8.7889 15.7828 8.2221 15.7818 7.6558C15.7818 7.58654 15.7777 7.51728 15.77 7.44853C15.7487 7.26622 15.6173 7.15316 15.4334 7.15876C15.3265 7.16182 15.2246 7.1827 15.135 7.24839C15.0123 7.33853 14.9853 7.4689 14.9848 7.60742C14.9832 8.18594 14.9843 8.76497 14.9843 9.34349V9.41224H14.2387Z" fill="#0D4942"/>
<path fill-rule="evenodd" clip-rule="evenodd" d="M6.63477 2.95637V1.55438C6.68875 1.56253 6.74426 1.56813 6.79773 1.57883C7.04574 1.62975 7.29273 1.68119 7.54023 1.73262C7.76328 1.77795 7.98583 1.82225 8.20838 1.86809C8.37338 1.90221 8.53838 1.93684 8.70338 1.97096C8.87194 2.0061 9.04 2.04123 9.20856 2.07637C9.38833 2.11457 9.56861 2.15276 9.74889 2.19045C9.90014 2.22202 10.0524 2.25207 10.2037 2.28364C10.4547 2.33508 10.7058 2.38753 10.9563 2.44049C11.1229 2.47614 11.2889 2.51485 11.4554 2.54998C11.6591 2.59327 11.8633 2.63452 12.067 2.67679C12.3028 2.72517 12.5391 2.77355 12.7749 2.82244C12.8839 2.84535 12.9929 2.87082 13.1018 2.89475C13.1976 2.91563 13.2928 2.93549 13.3886 2.95586C13.2358 2.95688 13.0835 2.95841 12.9307 2.95841H6.70199C6.67958 2.95841 6.65717 2.95688 6.63477 2.95637Z" fill="#F8A828"/>
<path fill-rule="evenodd" clip-rule="evenodd" d="M7.73553 9.41321H6.98438V6.76965H7.73299V7.06807C7.76201 7.04261 7.78086 7.02682 7.79868 7.01002C7.93873 6.87914 8.09252 6.77219 8.28553 6.73654C8.48822 6.69937 8.68938 6.70293 8.88442 6.77678C9.1197 6.8659 9.24294 7.04465 9.27757 7.28756C9.29132 7.38127 9.29539 7.47701 9.29539 7.57224C9.29692 8.16654 9.2959 8.76034 9.2959 9.35464V9.41321H8.54678V9.35923C8.54678 8.81687 8.5478 8.27451 8.54627 7.73215C8.54576 7.64099 8.54067 7.5483 8.52692 7.45816C8.49026 7.2183 8.31914 7.14191 8.12053 7.16279C7.98609 7.17654 7.86896 7.229 7.79512 7.3502C7.74113 7.43932 7.73553 7.54015 7.73553 7.6415C7.73502 8.2027 7.73502 8.7639 7.73553 9.32511V9.41321Z" fill="#0D4942"/>
<path fill-rule="evenodd" clip-rule="evenodd" d="M5.19293 10.9815C5.19293 10.8975 5.1863 10.8135 5.10533 10.7361C5.05797 10.6892 4.98107 10.652 4.88024 10.652C4.77941 10.652 4.70149 10.6892 4.65464 10.7361C4.57367 10.8135 4.56705 10.8975 4.56705 10.9815V12.2537C4.56705 12.3377 4.57367 12.4217 4.65464 12.5022C4.70149 12.546 4.77941 12.5837 4.88024 12.5837C4.98107 12.5837 5.05797 12.546 5.10533 12.5022C5.1863 12.4217 5.19293 12.3377 5.19293 12.2537V10.9815ZM4.31445 11.0355C4.31445 10.8608 4.3282 10.6923 4.48302 10.5476C4.57723 10.457 4.71218 10.4061 4.88024 10.4061C5.0483 10.4061 5.18274 10.457 5.27695 10.5476C5.43177 10.6923 5.44501 10.8608 5.44501 11.0355V12.1997C5.44501 12.3744 5.43177 12.5429 5.27695 12.6881C5.18274 12.7782 5.0483 12.8291 4.88024 12.8291C4.71218 12.8291 4.57723 12.7782 4.48302 12.6881C4.3282 12.5429 4.31445 12.3744 4.31445 12.1997V11.0355Z" fill="#ABA7AA"/>
<path fill-rule="evenodd" clip-rule="evenodd" d="M5.98047 11.1264H6.23306V11.2914C6.34052 11.1467 6.47903 11.0994 6.59311 11.0994C6.88899 11.0994 6.94297 11.325 6.94297 11.4864V12.7952H6.69089V11.604C6.69089 11.4762 6.64047 11.3453 6.47903 11.3453C6.27329 11.3453 6.23306 11.547 6.23306 11.6514V12.7952H5.98047V11.1264Z" fill="#ABA7AA"/>
<path fill-rule="evenodd" clip-rule="evenodd" d="M7.72916 10.4402V12.3784C7.72916 12.4456 7.75971 12.5633 7.91402 12.5633H7.95119V12.7955H7.87379C7.61814 12.7955 7.47656 12.6443 7.47656 12.4253V10.4402H7.72916Z" fill="#ABA7AA"/>
<mask id="mask1_6893_29185" style="mask-type:alpha" maskUnits="userSpaceOnUse" x="0" y="0" width="38" height="14">
<path d="M0.666016 13.4986H37.3327V0.333252H0.666016V13.4986Z" fill="white"/>
</mask>
<g mask="url(#mask1_6893_29185)">
<path fill-rule="evenodd" clip-rule="evenodd" d="M8.35742 12.7955H8.61001V11.1267H8.35742V12.7955ZM8.35742 10.733H8.61001V10.4875H8.35742V10.733Z" fill="#ABA7AA"/>
<path fill-rule="evenodd" clip-rule="evenodd" d="M9.14258 11.1264H9.39517V11.2914C9.50262 11.1468 9.64114 11.0994 9.75522 11.0994C10.0511 11.0994 10.1051 11.325 10.1051 11.4865V12.7953H9.85299V11.6041C9.85299 11.4763 9.80258 11.3454 9.64114 11.3454C9.4354 11.3454 9.39517 11.5471 9.39517 11.6515V12.7953H9.14258V11.1264Z" fill="#ABA7AA"/>
<path fill-rule="evenodd" clip-rule="evenodd" d="M11.3319 11.8668V11.5806C11.3319 11.4732 11.2814 11.3453 11.1068 11.3453C10.928 11.3453 10.8776 11.49 10.8776 11.5944V11.8668H11.3319ZM11.3252 12.3277H11.5773V12.3511C11.5773 12.5156 11.4999 12.8222 11.1129 12.8222C10.6958 12.8222 10.625 12.4825 10.625 12.3379V11.5638C10.625 11.4324 10.6958 11.0994 11.0966 11.0994C11.4933 11.0994 11.5844 11.4324 11.5844 11.5776V12.0552H10.8776V12.3211C10.8776 12.4993 10.9586 12.5767 11.1129 12.5767C11.2611 12.5767 11.3252 12.4861 11.3252 12.3476V12.3277Z" fill="#ABA7AA"/>
<path fill-rule="evenodd" clip-rule="evenodd" d="M13.2638 12.5765H13.469C13.6748 12.5765 13.8194 12.4487 13.8194 12.1727V12.0046C13.8194 11.8534 13.7247 11.6746 13.4894 11.6746H13.2638V12.5765ZM13.2638 11.4562H13.4594C13.7451 11.4562 13.8194 11.2713 13.8194 11.1063V10.9545C13.8194 10.8069 13.715 10.6587 13.4762 10.6587H13.2638V11.4562ZM13.4894 10.4402C13.8123 10.4402 14.0715 10.6082 14.0715 10.9581V11.1063C14.0715 11.3146 14.0007 11.4694 13.7756 11.5677C14.0613 11.6614 14.0715 11.8768 14.0715 12.0316V12.2165C14.0715 12.3647 14.0582 12.7955 13.493 12.7955H13.0117V10.4402H13.4894Z" fill="#ABA7AA"/>
<path fill-rule="evenodd" clip-rule="evenodd" d="M15.2915 12.0013C15.2207 11.9911 15.1601 11.9845 15.1199 11.9845C14.9753 11.9845 14.8204 12.0619 14.8204 12.3078C14.8204 12.5431 14.8912 12.6068 15.0359 12.6068C15.1403 12.6068 15.2915 12.4693 15.2915 12.2941V12.0013ZM15.2915 12.6302H15.2879C15.2039 12.7285 15.1235 12.8222 14.9116 12.8222C14.6453 12.8222 14.5684 12.6205 14.5684 12.3547C14.5684 12.0013 14.6829 11.8027 15.0562 11.8027C15.0929 11.8027 15.1469 11.8027 15.2915 11.8164V11.5704C15.2915 11.4767 15.2243 11.3453 15.0562 11.3453C14.9686 11.3453 14.8546 11.3856 14.8276 11.5506H14.5847C14.5847 11.2679 14.8001 11.0994 15.0725 11.0994C15.4596 11.0994 15.5441 11.3856 15.5441 11.601V12.7957H15.2915V12.6302Z" fill="#ABA7AA"/>
<path fill-rule="evenodd" clip-rule="evenodd" d="M16.0762 11.1264H16.3288V11.2914C16.4362 11.1468 16.5747 11.0994 16.6888 11.0994C16.9847 11.0994 17.0387 11.325 17.0387 11.4865V12.7953H16.7866V11.6041C16.7866 11.4763 16.7362 11.3454 16.5747 11.3454C16.369 11.3454 16.3288 11.5471 16.3288 11.6515V12.7953H16.0762V11.1264Z" fill="#ABA7AA"/>
<path fill-rule="evenodd" clip-rule="evenodd" d="M17.5723 10.4402H17.8249V11.9609L18.3127 11.1267H18.5786L18.1717 11.7832L18.6595 12.7956H18.3871L18.0168 12.0047L17.8249 12.3245V12.7956H17.5723V10.4402Z" fill="#ABA7AA"/>
<path fill-rule="evenodd" clip-rule="evenodd" d="M19.0078 12.7955H19.2604V11.1266H19.0078V12.7955ZM19.0078 10.733H19.2604V10.4875H19.0078V10.733Z" fill="#ABA7AA"/>
<path fill-rule="evenodd" clip-rule="evenodd" d="M19.7949 11.1264H20.0475V11.2914C20.155 11.1467 20.2935 11.0994 20.4076 11.0994C20.7034 11.0994 20.7574 11.325 20.7574 11.4864V12.7952H20.5053V11.604C20.5053 11.4762 20.4549 11.3453 20.2935 11.3453C20.0877 11.3453 20.0475 11.547 20.0475 11.6514V12.7952H19.7949V11.1264Z" fill="#ABA7AA"/>
<path fill-rule="evenodd" clip-rule="evenodd" d="M21.9995 12.2539V11.6514C21.9995 11.547 21.9592 11.3453 21.754 11.3453C21.5921 11.3453 21.5422 11.4767 21.5422 11.6046V12.3007C21.5422 12.429 21.5921 12.5599 21.754 12.5599C21.9592 12.5599 21.9995 12.3577 21.9995 12.2539ZM22.2516 12.9974C22.2516 13.2026 22.1375 13.4985 21.7505 13.4985C21.478 13.4985 21.2891 13.3503 21.2891 13.0478H21.532C21.559 13.2332 21.673 13.253 21.7606 13.253C21.9287 13.253 21.9995 13.1216 21.9995 13.0279V12.6139C21.892 12.7585 21.754 12.8054 21.6394 12.8054C21.3436 12.8054 21.2891 12.5803 21.2891 12.4183V11.4864C21.2891 11.325 21.3436 11.0994 21.6394 11.0994C21.754 11.0994 21.892 11.1467 21.9995 11.2914V11.1264H22.2516V12.9974Z" fill="#ABA7AA"/>
<path fill-rule="evenodd" clip-rule="evenodd" d="M20.7361 9.41307H19.9824V6.7695H20.7336V7.06793C20.757 7.04705 20.7718 7.03432 20.7865 7.02158C20.9302 6.88816 21.085 6.77408 21.2841 6.73691C21.4761 6.70075 21.6671 6.7033 21.8534 6.76543C22.1071 6.84945 22.241 7.03381 22.2751 7.29302C22.2894 7.39895 22.296 7.50691 22.296 7.61385C22.298 8.1939 22.2965 8.77446 22.2965 9.35501V9.41307H21.5443V9.34126C21.5448 8.80654 21.5453 8.2708 21.5438 7.73506C21.5438 7.64696 21.5372 7.55885 21.527 7.47126C21.499 7.23955 21.3391 7.14228 21.1272 7.16214C21.0692 7.16774 21.0106 7.18455 20.9582 7.20797C20.8039 7.27621 20.7448 7.40709 20.7377 7.567C20.7356 7.6276 20.7361 7.68821 20.7361 7.74881V9.36011V9.41307Z" fill="#0D4942"/>
<path fill-rule="evenodd" clip-rule="evenodd" d="M5.78736 8.11807C5.64935 8.13385 5.52356 8.14557 5.3993 8.16492C5.33513 8.17459 5.26995 8.19242 5.21087 8.2189C5.0031 8.31311 4.92009 8.48168 4.95624 8.72052C4.98782 8.92473 5.09222 9.02149 5.29286 9.0327C5.54189 9.04594 5.73388 8.92015 5.76291 8.69658C5.78786 8.50969 5.78023 8.3177 5.78736 8.11807ZM5.78634 7.77635C5.77972 7.63682 5.78226 7.49932 5.76546 7.36487C5.74509 7.20038 5.63661 7.11482 5.45736 7.09853C5.18694 7.07459 5.01634 7.21668 4.98935 7.48862C4.98578 7.52223 4.98222 7.55635 4.97763 7.59455H4.32629C4.28351 7.3007 4.44444 6.98751 4.70722 6.84339C4.88342 6.74663 5.07541 6.71557 5.27097 6.70232C5.50421 6.68654 5.7349 6.70385 5.96203 6.76191C6.23398 6.83168 6.43208 7.0639 6.45805 7.34348C6.46518 7.4158 6.46976 7.48862 6.47027 7.56094C6.47129 8.16237 6.47078 8.7633 6.47078 9.36422V9.41311H5.75171V9.25066C5.73388 9.26084 5.72268 9.26746 5.71249 9.27459C5.40083 9.47575 5.06166 9.5333 4.70314 9.45385C4.45921 9.39987 4.29828 9.24149 4.22902 8.99959C4.16689 8.78367 4.15824 8.5652 4.24939 8.35436C4.35124 8.11908 4.54476 7.98158 4.78259 7.92098C4.98833 7.86853 5.2012 7.84459 5.41101 7.81353C5.53222 7.7957 5.65495 7.78908 5.78634 7.77635Z" fill="#0D4942"/>
<path fill-rule="evenodd" clip-rule="evenodd" d="M11.4469 8.12843C11.2977 8.12793 11.0125 8.15747 10.8913 8.20941C10.7599 8.26594 10.6621 8.35048 10.627 8.49409C10.599 8.60612 10.6051 8.71765 10.6433 8.82612C10.6825 8.93867 10.7655 9.0064 10.8821 9.02525C10.9376 9.0339 10.9957 9.03136 11.0527 9.02779C11.2493 9.01302 11.4062 8.88265 11.4265 8.69219C11.4464 8.5058 11.4408 8.31687 11.4469 8.12843ZM11.4337 7.77807C11.4337 7.64617 11.4398 7.51937 11.4321 7.39409C11.4204 7.20923 11.3089 7.11756 11.1281 7.10024C10.8689 7.0758 10.6728 7.19853 10.6509 7.4883C10.6479 7.52293 10.6433 7.55705 10.6392 7.59779H10.3128H9.98736C9.96903 7.39511 10.0088 7.21177 10.1335 7.04932C10.2736 6.86802 10.463 6.77228 10.683 6.73307C10.983 6.67909 11.2824 6.68571 11.5813 6.75038C11.8782 6.81506 12.0865 7.04015 12.1191 7.34112C12.1257 7.40275 12.1308 7.46538 12.1308 7.52751C12.1319 8.1427 12.1313 8.75788 12.1313 9.37307V9.41228H11.4123V9.24626C11.2839 9.34302 11.1515 9.40413 11.0079 9.43876C10.7879 9.49224 10.5669 9.51159 10.3454 9.44946C10.1045 9.38173 9.95172 9.22437 9.88653 8.98552C9.83306 8.78946 9.82338 8.59085 9.89417 8.39733C9.98991 8.1371 10.1916 7.98534 10.4503 7.91964C10.6555 7.86719 10.8684 7.84427 11.0782 7.81321C11.1963 7.7964 11.316 7.78927 11.4337 7.77807Z" fill="#0D4942"/>
<path fill-rule="evenodd" clip-rule="evenodd" d="M18.7696 8.05591C18.7681 7.84865 18.7696 7.63985 18.7162 7.43716C18.6708 7.26911 18.5766 7.14027 18.3938 7.1092C18.2054 7.07661 18.0378 7.12295 17.9324 7.29355C17.8861 7.36892 17.8509 7.45906 17.8351 7.54716C17.7745 7.89091 17.7796 8.2367 17.8163 8.58198C17.8244 8.65888 17.8463 8.73527 17.8733 8.80758C18.0068 9.16203 18.4345 9.14166 18.5919 8.95068C18.655 8.87379 18.6953 8.7867 18.7162 8.69096C18.761 8.48166 18.7706 8.26929 18.7696 8.05591ZM19.5401 8.10073C19.5391 8.30698 19.5244 8.51221 19.4627 8.71082C19.3395 9.10499 19.0716 9.35198 18.6729 9.44212C18.3449 9.51596 18.0159 9.50272 17.6966 9.38203C17.3564 9.25318 17.1553 9.00365 17.0733 8.65429C17.0198 8.42665 17.0157 8.19494 17.0259 7.96221C17.0346 7.78397 17.058 7.60777 17.1191 7.43869C17.2337 7.11888 17.4552 6.90091 17.773 6.78786C18.0964 6.67226 18.4305 6.65902 18.7594 6.74814C19.1653 6.85712 19.4164 7.13059 19.4958 7.54309C19.531 7.72591 19.5356 7.91383 19.5539 8.0992C19.5493 8.09971 19.5447 8.10022 19.5401 8.10073Z" fill="#0D4942"/>
<path fill-rule="evenodd" clip-rule="evenodd" d="M13.3889 2.95592C13.2937 2.93554 13.1979 2.91568 13.1027 2.8948C12.9937 2.87087 12.8847 2.84541 12.7752 2.82249C12.5395 2.7736 12.3032 2.72522 12.0674 2.67684C11.8637 2.63457 11.6595 2.59332 11.4557 2.55004C11.2892 2.5149 11.1237 2.47619 10.9572 2.44055C10.7061 2.38758 10.4551 2.33513 10.204 2.28369C10.0527 2.25212 9.90047 2.22207 9.74973 2.1905C9.56894 2.15281 9.38918 2.11462 9.2089 2.07642C9.04033 2.04129 8.87228 2.00615 8.70371 1.97101C8.53922 1.93689 8.37371 1.90226 8.20871 1.86814C7.98668 1.8223 7.76362 1.778 7.54107 1.73268C7.29306 1.68124 7.04607 1.6298 6.79857 1.57888C6.74459 1.56818 6.68959 1.56258 6.6351 1.55443C6.63205 1.55189 6.6295 1.54883 6.62695 1.54629C6.63052 1.52439 6.63663 1.503 6.63714 1.48161C6.63765 1.11443 6.63765 0.747259 6.63765 0.379574V0.33374C6.69112 0.351055 6.73899 0.364805 6.78635 0.382629C6.98089 0.45749 7.17593 0.53337 7.36996 0.609759C7.50492 0.662212 7.63885 0.718231 7.77431 0.770175C8.00043 0.856749 8.22806 0.940268 8.45519 1.02684C8.57793 1.07369 8.69913 1.1236 8.82186 1.17147C8.99399 1.2392 9.16714 1.30592 9.33978 1.37314C9.55214 1.45564 9.7645 1.53916 9.97737 1.62166C10.1734 1.69754 10.3695 1.7724 10.5656 1.84777C10.781 1.93129 10.9959 2.01531 11.2113 2.09883C11.4267 2.18235 11.6416 2.26638 11.8576 2.34888C12.1025 2.44207 12.348 2.53323 12.5924 2.62795C12.7757 2.69925 12.9576 2.77564 13.1409 2.84795C13.231 2.88309 13.3232 2.91314 13.4128 2.95439L13.3889 2.95592Z" fill="#FDC938"/>
<path fill-rule="evenodd" clip-rule="evenodd" d="M13.5352 2.98169C13.5555 2.9878 13.5759 2.99391 13.5963 3.00002C13.5759 2.99391 13.5555 2.9878 13.5352 2.98169Z" fill="#FDC938"/>
</g>
</svg>
