<svg width="34" height="15" viewBox="0 0 34 15" fill="none" xmlns="http://www.w3.org/2000/svg">
<path d="M33.1113 13.6687C33.1158 13.7141 33.11 13.7598 33.0945 13.8027C33.0789 13.8455 33.054 13.8843 33.0215 13.9163C32.989 13.9482 32.9498 13.9725 32.9067 13.9873C32.8636 14.0022 32.8178 14.0072 32.7725 14.002H1.25045C0.967167 14.002 0.883849 13.8909 0.878295 13.6576V1.19319C0.878295 0.982122 1.05048 0.887707 1.26711 0.893261H32.778C32.978 0.893261 33.1335 0.959916 33.1224 1.17099V13.6687H33.1113ZM32.7725 0.337807H1.20602C1.09376 0.325816 0.980236 0.338051 0.87312 0.373709C0.766005 0.409367 0.667789 0.467595 0.585117 0.544475C0.502444 0.621355 0.437239 0.715106 0.393908 0.819354C0.350577 0.923602 0.330129 1.03592 0.333947 1.14875V13.7853C0.333947 14.2686 0.683887 14.5463 1.22268 14.5463H32.778C33.3335 14.5463 33.6668 14.2686 33.6668 13.7853V1.15987C33.6681 1.04603 33.6454 0.933203 33.6002 0.828711C33.555 0.724219 33.4884 0.630412 33.4045 0.553391C33.3207 0.47637 33.2216 0.417864 33.1136 0.381676C33.0057 0.345489 32.8914 0.332409 32.778 0.343333" fill="#009EC2"/>
<path d="M5.20644 10.4799H4.19552V11.102H5.05647V11.3797H4.19552V12.2463H3.87891V10.1966H5.20644V10.4799Z" fill="#81BC00"/>
<path d="M6.79828 12.2524H6.49833V12.1025C6.44989 12.1573 6.38988 12.2007 6.32265 12.2295C6.25541 12.2583 6.18261 12.2718 6.10951 12.2691C6.04344 12.2725 5.97738 12.2624 5.91532 12.2395C5.85326 12.2166 5.79649 12.1813 5.74847 12.1358C5.69694 12.081 5.65708 12.0164 5.6313 11.9457C5.60552 11.875 5.59436 11.7999 5.5985 11.7248V10.7916H5.89844V11.6803C5.89537 11.7246 5.90116 11.769 5.91547 11.8109C5.92977 11.8529 5.95231 11.8916 5.98176 11.9247C6.00977 11.9514 6.04294 11.9721 6.07925 11.9855C6.11555 11.9988 6.1542 12.0047 6.19283 12.0025C6.27422 12.0067 6.354 11.9788 6.41501 11.9247C6.44446 11.8916 6.467 11.8529 6.4813 11.8109C6.49561 11.769 6.5014 11.7246 6.49833 11.6803V10.7916H6.79828V12.2524Z" fill="#81BC00"/>
<path d="M8.52089 12.2516H8.2265V11.3573C8.22983 11.3126 8.22363 11.2677 8.20831 11.2256C8.19299 11.1834 8.1689 11.145 8.13762 11.1129C8.11023 11.0854 8.07715 11.0641 8.04069 11.0507C8.00423 11.0373 7.96528 11.0319 7.92655 11.0351C7.88704 11.0326 7.84742 11.0381 7.81016 11.0515C7.77289 11.0649 7.73878 11.0858 7.70993 11.1129C7.67766 11.1446 7.65253 11.1827 7.63624 11.2249C7.61996 11.267 7.61288 11.3122 7.6155 11.3573V12.2516H7.32666V10.7907H7.6155V10.9352C7.6674 10.8837 7.72895 10.843 7.79663 10.8153C7.8643 10.7877 7.93677 10.7737 8.00987 10.7741C8.07676 10.7709 8.14361 10.7811 8.20655 10.804C8.26948 10.8268 8.32724 10.862 8.37647 10.9074C8.427 10.9626 8.46584 11.0275 8.49066 11.0982C8.51548 11.1688 8.52576 11.2437 8.52089 11.3184V12.2516Z" fill="#81BC00"/>
<path d="M11.3035 12.2463H10.9869V11.352H10.1482V12.2463H9.83154V10.1966H10.1482V11.0742H10.9869V10.1966H11.3035V12.2463Z" fill="#81BC00"/>
<path d="M12.7823 11.3968C12.785 11.3281 12.7717 11.2596 12.7434 11.1969C12.715 11.1485 12.6744 11.1084 12.6257 11.0805C12.5769 11.0526 12.5218 11.038 12.4657 11.038C12.4096 11.038 12.3544 11.0526 12.3057 11.0805C12.257 11.1084 12.2164 11.1485 12.1879 11.1969C12.1611 11.2601 12.1478 11.3282 12.1491 11.3968H12.7823ZM13.0767 11.6024H12.1213C12.1167 11.7112 12.1523 11.8179 12.2213 11.9023C12.2574 11.9386 12.3009 11.9668 12.3488 11.985C12.3967 12.0032 12.4479 12.0109 12.499 12.0078C12.5653 12.0079 12.6309 11.9947 12.692 11.969C12.7531 11.9432 12.8083 11.9054 12.8545 11.8579L13.0433 12.0356C12.9758 12.1042 12.8969 12.1606 12.8101 12.2023C12.7081 12.2448 12.5984 12.2656 12.4879 12.2633C12.0491 12.2633 11.8269 12.0134 11.8269 11.5135C11.8141 11.3144 11.8733 11.1173 11.9935 10.958C12.0492 10.8926 12.1194 10.841 12.1984 10.8073C12.2774 10.7735 12.3632 10.7586 12.449 10.7636C12.5362 10.7605 12.623 10.7763 12.7036 10.8098C12.7841 10.8434 12.8564 10.8939 12.9156 10.958C13.03 11.1008 13.0874 11.2809 13.0767 11.4635V11.5968V11.6024Z" fill="#81BC00"/>
<path d="M14.292 11.7241V11.6075H13.9476C13.7699 11.6075 13.681 11.6741 13.681 11.813C13.681 11.9518 13.7755 12.0185 13.9532 12.0185C14.0523 12.0286 14.1515 12.0008 14.2309 11.9407C14.2786 11.8792 14.3006 11.8015 14.292 11.7241ZM14.592 12.2518H14.292V12.1185C14.241 12.1688 14.1801 12.2081 14.1132 12.2339C14.0463 12.2597 13.9748 12.2715 13.9032 12.2685C13.7594 12.2768 13.618 12.229 13.5088 12.1351C13.4689 12.093 13.438 12.0433 13.418 11.9888C13.3979 11.9344 13.3891 11.8765 13.3922 11.8185C13.3908 11.761 13.402 11.7038 13.425 11.651C13.448 11.5982 13.4823 11.5511 13.5255 11.513C13.6336 11.4311 13.768 11.3916 13.9032 11.4019H14.292V11.2964C14.292 11.1131 14.1865 11.0242 13.9699 11.0242C13.909 11.0201 13.848 11.0305 13.792 11.0547C13.7359 11.0788 13.6865 11.116 13.6477 11.1631L13.4533 10.9854C13.5129 10.9091 13.5914 10.8497 13.681 10.8132C13.7781 10.7833 13.8795 10.7701 13.981 10.7743C14.3865 10.7743 14.592 10.9409 14.592 11.2742V12.2518Z" fill="#81BC00"/>
<path d="M15.6869 12.2517H15.5036C15.4468 12.2546 15.3902 12.2451 15.3375 12.224C15.2847 12.2029 15.2372 12.1707 15.1981 12.1296C15.1292 12.0517 15.0933 11.9501 15.0981 11.8463V10.1799H15.3925V11.8129C15.3888 11.8352 15.3904 11.8579 15.3971 11.8794C15.4038 11.9009 15.4155 11.9205 15.4311 11.9367C15.4468 11.9529 15.466 11.9652 15.4873 11.9727C15.5085 11.9801 15.5312 11.9825 15.5535 11.9796H15.6869V12.2517Z" fill="#81BC00"/>
<path d="M16.6695 12.252H16.4917C16.4345 12.2545 16.3775 12.2443 16.3247 12.2223C16.2719 12.2002 16.2246 12.1667 16.1862 12.1242C16.1182 12.0481 16.0824 11.9485 16.0863 11.8465V11.0411H15.9141V10.8411H16.114V10.4023H16.414V10.8411H16.6695V11.0689H16.3862V11.8576C16.3862 11.9687 16.4362 12.0243 16.5473 12.0243H16.6695V12.2798V12.252Z" fill="#81BC00"/>
<path d="M18.3363 12.2518H18.0364V11.3519C18.0423 11.3109 18.0389 11.2691 18.0265 11.2295C18.0142 11.1899 17.9931 11.1536 17.9649 11.1233C17.9366 11.0929 17.902 11.0693 17.8634 11.054C17.8248 11.0388 17.7833 11.0324 17.742 11.0353C17.7025 11.0328 17.6629 11.0383 17.6256 11.0517C17.5883 11.0651 17.5542 11.086 17.5254 11.1131C17.4963 11.1454 17.474 11.1832 17.4597 11.2242C17.4454 11.2652 17.4394 11.3086 17.442 11.3519V12.2518H17.1421V10.1966H17.442V10.9354C17.4908 10.8829 17.5503 10.8414 17.6163 10.8136C17.6824 10.7858 17.7536 10.7724 17.8253 10.7743C17.8949 10.7704 17.9645 10.7812 18.0296 10.8061C18.0947 10.831 18.1538 10.8694 18.203 10.9187C18.2955 11.0265 18.3432 11.1657 18.3363 11.3075V12.2518Z" fill="#81BC00"/>
<path d="M19.9517 10.7916L19.2963 12.5413C19.2751 12.6094 19.2391 12.672 19.1908 12.7246C19.1064 12.7979 18.9969 12.8357 18.8853 12.8301H18.7686V12.5635H18.8408C18.8889 12.5685 18.9373 12.5588 18.9797 12.5357C19.0149 12.5017 19.0415 12.4598 19.0575 12.4135L19.1352 12.1858L18.6187 10.7916H18.9353L19.2908 11.8192L19.6351 10.7916H19.9517Z" fill="#81BC00"/>
<path d="M22.2245 11.6572C22.2265 11.6151 22.2196 11.5731 22.2043 11.5339C22.189 11.4947 22.1656 11.4591 22.1356 11.4295C22.0661 11.3707 21.9766 11.3409 21.8857 11.3461H21.3858V11.9516H21.8857C21.9766 11.9569 22.0661 11.927 22.1356 11.8683C22.1659 11.8389 22.1895 11.8034 22.2048 11.7641C22.2202 11.7248 22.2269 11.6827 22.2245 11.6406V11.6572ZM22.1912 10.7574C22.1942 10.7168 22.1878 10.6761 22.1724 10.6385C22.157 10.6009 22.133 10.5675 22.1023 10.5408C22.0336 10.4848 21.9463 10.4571 21.8579 10.463H21.3858V11.0518H21.8579C21.9459 11.0552 22.0324 11.0276 22.1023 10.974C22.133 10.9473 22.157 10.9138 22.1724 10.8762C22.1878 10.8386 22.1942 10.7979 22.1912 10.7574ZM22.5411 11.6517C22.5447 11.7311 22.5312 11.8104 22.5015 11.8842C22.4718 11.958 22.4266 12.0245 22.3689 12.0794C22.2426 12.1876 22.0796 12.2433 21.9134 12.2349H21.0747V10.1797H21.8801C22.0462 10.1719 22.209 10.2275 22.3356 10.3353C22.3938 10.386 22.4396 10.4495 22.4694 10.5208C22.4993 10.592 22.5124 10.6692 22.5078 10.7463C22.5077 10.8375 22.4815 10.9267 22.4322 11.0035C22.383 11.0803 22.3129 11.1413 22.2301 11.1795C22.3264 11.2133 22.409 11.2778 22.4652 11.3631C22.5214 11.4484 22.5481 11.5498 22.5411 11.6517Z" fill="#81BC00"/>
<path d="M23.8895 11.3968C23.8868 11.3286 23.8736 11.2612 23.8506 11.1969C23.8246 11.1415 23.7834 11.0947 23.7317 11.0619C23.6801 11.0291 23.6202 11.0116 23.559 11.0116C23.4978 11.0116 23.4379 11.0291 23.3863 11.0619C23.3346 11.0947 23.2934 11.1415 23.2674 11.1969C23.2405 11.2601 23.2273 11.3282 23.2285 11.3968H23.8895ZM24.1839 11.6024H23.2285C23.2248 11.7102 23.2581 11.816 23.3229 11.9023C23.3605 11.9382 23.405 11.9661 23.4537 11.9842C23.5024 12.0023 23.5543 12.0104 23.6062 12.0078C23.6725 12.0079 23.7381 11.9947 23.7992 11.969C23.8603 11.9432 23.9155 11.9054 23.9617 11.8579L24.1505 12.0356C24.0811 12.1045 24.0003 12.1609 23.9117 12.2023C23.8117 12.2448 23.7038 12.2657 23.5951 12.2633C23.1507 12.2633 22.9285 12.0134 22.9285 11.5135C22.9174 11.3137 22.9785 11.1165 23.1007 10.958C23.1564 10.8926 23.2266 10.841 23.3056 10.8073C23.3846 10.7735 23.4704 10.7586 23.5562 10.7636C23.6434 10.7605 23.7302 10.7763 23.8108 10.8098C23.8913 10.8434 23.9636 10.8939 24.0228 10.958C24.1349 11.102 24.1921 11.2812 24.1839 11.4635V11.5968V11.6024Z" fill="#81BC00"/>
<path d="M25.4292 11.7246V11.608H25.0849C24.9071 11.608 24.8182 11.6746 24.8182 11.8135C24.8182 11.9524 24.9071 12.019 25.0904 12.019C25.1894 12.028 25.2882 12.0003 25.3681 11.9413C25.4134 11.8785 25.4351 11.8018 25.4292 11.7246ZM25.7292 12.2523H25.4292V12.119C25.3194 12.2107 25.1808 12.261 25.0376 12.261C24.8945 12.261 24.7559 12.2107 24.646 12.119C24.6062 12.0769 24.5752 12.0271 24.5552 11.9727C24.5351 11.9182 24.5264 11.8603 24.5294 11.8024C24.528 11.7448 24.5392 11.6877 24.5622 11.6349C24.5852 11.5821 24.6195 11.535 24.6627 11.4969C24.7708 11.415 24.9052 11.3755 25.0404 11.3858H25.4292V11.2803C25.4292 11.097 25.3237 11.0081 25.1071 11.0081C25.0462 11.0039 24.9852 11.0143 24.9292 11.0385C24.8731 11.0627 24.8237 11.0998 24.7849 11.147L24.5849 10.9692C24.6461 10.8922 24.7266 10.8327 24.8182 10.797C24.9152 10.7667 25.0167 10.7535 25.1182 10.7581C25.5237 10.7581 25.7292 10.9248 25.7292 11.2581V12.2357V12.2523Z" fill="#81BC00"/>
<path d="M27.4281 12.2524H27.1282V12.1025C27.0798 12.1573 27.0198 12.2007 26.9525 12.2295C26.8853 12.2583 26.8125 12.2718 26.7394 12.2691C26.6733 12.2725 26.6073 12.2624 26.5452 12.2395C26.4831 12.2166 26.4264 12.1813 26.3783 12.1358C26.3268 12.081 26.287 12.0164 26.2612 11.9457C26.2354 11.875 26.2242 11.7999 26.2284 11.7248V10.7916H26.5283V11.6803C26.5253 11.7246 26.531 11.769 26.5453 11.8109C26.5597 11.8529 26.5822 11.8916 26.6116 11.9247C26.6394 11.9517 26.6726 11.9725 26.7089 11.9859C26.7453 11.9993 26.784 12.005 26.8227 12.0025C26.9041 12.0067 26.9839 11.9788 27.0449 11.9247C27.0743 11.8916 27.0969 11.8529 27.1112 11.8109C27.1255 11.769 27.1313 11.7246 27.1282 11.6803V10.7916H27.4281V12.2524Z" fill="#81BC00"/>
<path d="M28.5791 12.252H28.4014C28.3442 12.2549 28.287 12.2449 28.2341 12.2228C28.1813 12.2007 28.134 12.167 28.0959 12.1242C28.0279 12.0481 27.992 11.9485 27.9959 11.8465V11.0411H27.8237V10.8411H27.9959V10.4023H28.2903V10.8411H28.5791V11.0689H28.2903V11.8576C28.2876 11.8802 28.2901 11.903 28.2975 11.9244C28.3049 11.9459 28.3171 11.9653 28.3332 11.9814C28.3492 11.9974 28.3687 12.0096 28.3901 12.017C28.4116 12.0245 28.4344 12.0269 28.4569 12.0243H28.5791V12.2798V12.252Z" fill="#81BC00"/>
<path d="M30.128 10.7916L29.4726 12.5413C29.4514 12.6094 29.4153 12.672 29.367 12.7246C29.2826 12.7979 29.1732 12.8357 29.0615 12.8301H28.9449V12.5635H29.0171C29.0652 12.5692 29.1138 12.5595 29.156 12.5357C29.1911 12.5017 29.2178 12.4598 29.2337 12.4135L29.3171 12.1858L28.7949 10.7916H29.1115L29.467 11.8192L29.8114 10.7916H30.128Z" fill="#81BC00"/>
<path d="M3.8944 8.10826H4.59983C4.83522 8.10402 5.06718 8.05108 5.2811 7.95278C5.49503 7.85449 5.68628 7.71295 5.84282 7.53711C5.99936 7.36126 6.11779 7.15494 6.19065 6.93107C6.26352 6.70721 6.28924 6.47068 6.26619 6.23638C6.28671 6.00485 6.26104 5.77152 6.19067 5.55C6.12029 5.32847 6.00662 5.12313 5.85625 4.94589C5.70588 4.76865 5.5218 4.62303 5.3147 4.5175C5.1076 4.41197 4.8816 4.34866 4.64982 4.33118H3.8944V8.10826ZM3.47226 9.01918C3.40975 9.01762 3.34861 9.00057 3.29432 8.96955C3.24003 8.93852 3.19429 8.89452 3.16121 8.84146C3.10151 8.76163 3.072 8.66325 3.07789 8.56374V3.8757C3.07843 3.75975 3.11972 3.64768 3.19453 3.55908C3.26767 3.47902 3.3695 3.43111 3.47781 3.42578H4.64982C4.97552 3.43114 5.29628 3.50628 5.59045 3.64618C5.88462 3.78608 6.14536 3.98746 6.35507 4.23672C6.82584 4.79585 7.08013 5.5055 7.0716 6.23638C7.08886 6.96999 6.82679 7.68275 6.3384 8.23044C6.12017 8.47654 5.85259 8.67394 5.55305 8.80983C5.25352 8.94572 4.92874 9.01705 4.59983 9.01918H3.47226Z" fill="#009EC2"/>
<path d="M10.1983 6.76503V4.30437C9.84836 4.30437 8.60415 4.49878 8.182 6.52619C8.182 6.57063 8.182 6.6484 8.14868 6.74283L10.1983 6.76503ZM10.6038 9.02018C10.5447 9.01777 10.4868 9.00264 10.434 8.9758C10.3813 8.94896 10.335 8.91105 10.2983 8.86467C10.233 8.77832 10.1979 8.67296 10.1983 8.56473V7.67043H8.07091C8.07091 7.83706 8.07091 8.3981 8.07091 8.56473C8.07393 8.67431 8.03635 8.78112 7.96538 8.86467C7.93346 8.90951 7.892 8.94673 7.84398 8.97363C7.79595 9.00052 7.74256 9.0164 7.68765 9.02018C7.62297 9.02235 7.55868 9.00944 7.49986 8.98244C7.44105 8.95545 7.38934 8.91512 7.34882 8.86467C7.28911 8.77587 7.25632 8.67172 7.25439 8.56473C7.25439 8.51474 7.25439 7.90929 7.25439 7.7982C7.25439 7.68711 7.32105 6.68727 7.33771 6.59284C7.69875 4.37103 8.94853 3.65449 9.55953 3.50452C9.78794 3.44315 10.0229 3.40958 10.2594 3.40454C10.6482 3.40454 10.7704 3.40454 10.8815 3.5434C10.9688 3.63035 11.0186 3.74797 11.0204 3.87114V8.56473C11.0188 8.67264 10.9839 8.77742 10.9204 8.86467C10.8842 8.91296 10.8372 8.95216 10.7832 8.97915C10.7292 9.00615 10.6697 9.02018 10.6093 9.02018" fill="#009EC2"/>
<path d="M15.3923 8.53587V3.87563C15.3944 3.81602 15.3841 3.75663 15.3621 3.7012C15.3401 3.64576 15.3069 3.59547 15.2646 3.55345C15.2291 3.51474 15.1863 3.48351 15.1386 3.46158C15.0909 3.43964 15.0393 3.42745 14.9869 3.42571C14.9322 3.42413 14.878 3.43476 14.828 3.45686C14.778 3.47897 14.7336 3.51198 14.698 3.55345C14.6152 3.64014 14.5693 3.75571 14.5703 3.87563V7.20835C14.5703 7.20835 12.154 3.62011 12.0818 3.55901C12.0433 3.51264 11.9949 3.47557 11.9401 3.45056C11.8852 3.42555 11.8255 3.41325 11.7652 3.41459C11.7108 3.41595 11.6573 3.42906 11.6084 3.45303C11.5595 3.477 11.5164 3.51125 11.4819 3.55345C11.4118 3.64364 11.3764 3.75597 11.382 3.87007V8.56919C11.3759 8.68323 11.4151 8.79505 11.491 8.88035C11.5669 8.96564 11.6735 9.01751 11.7874 9.02467C11.9029 9.01891 12.0114 8.96786 12.0894 8.88259C12.1674 8.79731 12.2086 8.68467 12.204 8.56919C12.204 8.397 12.204 5.15316 12.204 5.15316L14.5758 8.74138C14.6199 8.81498 14.6805 8.87738 14.7528 8.92364C14.8251 8.9699 14.9071 8.99878 14.9924 9.00802C15.0499 9.00451 15.106 8.98957 15.1576 8.96412C15.2092 8.93867 15.2553 8.9032 15.293 8.85977C15.3308 8.81633 15.3595 8.7658 15.3775 8.71114C15.3955 8.65649 15.4024 8.59879 15.3979 8.54143" fill="#009EC2"/>
<path d="M19.4471 8.10826H20.1525C20.3879 8.10402 20.6198 8.05108 20.8338 7.95278C21.0477 7.85449 21.239 7.71295 21.3955 7.53711C21.552 7.36126 21.6705 7.15494 21.7433 6.93107C21.8162 6.70721 21.8419 6.47068 21.8189 6.23638C21.8386 6.00456 21.8122 5.77111 21.7412 5.54955C21.6702 5.328 21.556 5.12271 21.4052 4.94555C21.2544 4.7684 21.0699 4.62289 20.8625 4.51743C20.6552 4.41198 20.4289 4.34868 20.1969 4.33118H19.4471V8.10826ZM19.0305 9.01918C18.9672 9.01755 18.9053 9.00052 18.8502 8.96955C18.795 8.93857 18.7482 8.89462 18.7139 8.84146C18.657 8.76026 18.6277 8.66286 18.6306 8.56374V3.8757C18.6331 3.75914 18.6764 3.64714 18.7528 3.55908C18.8259 3.47902 18.9277 3.43111 19.036 3.42578H20.208C20.5329 3.4312 20.8529 3.50643 21.1461 3.64635C21.4394 3.78627 21.6991 3.9876 21.9077 4.23672C22.3807 4.79459 22.6353 5.50508 22.6243 6.23638C22.6415 6.96999 22.3795 7.68275 21.8911 8.23044C21.6739 8.47639 21.4073 8.67375 21.1087 8.80966C20.8101 8.94558 20.4861 9.01697 20.1581 9.01918H19.0305Z" fill="#009EC2"/>
<path d="M25.7339 6.76503V4.30437C25.3896 4.30437 24.1398 4.49878 23.7232 6.52619C23.7232 6.57063 23.7232 6.6484 23.6843 6.74283L25.7339 6.76503ZM26.145 9.02018C26.085 9.01819 26.0261 9.00329 25.9725 8.97644C25.9188 8.9496 25.8715 8.91147 25.8339 8.86467C25.7687 8.77833 25.7335 8.67297 25.7339 8.56474V7.67043H23.6066C23.6066 7.83706 23.6066 8.3981 23.6066 8.56474C23.6124 8.67474 23.5745 8.78257 23.501 8.86467C23.4691 8.90952 23.4276 8.94674 23.3796 8.97363C23.3316 9.00052 23.2782 9.01641 23.2233 9.02018C23.1588 9.02111 23.0949 9.00766 23.0363 8.98075C22.9777 8.95384 22.9258 8.91418 22.8845 8.86467C22.8276 8.77453 22.7951 8.6712 22.79 8.56474C22.79 8.51474 22.79 7.9093 22.79 7.79821C22.79 7.68711 22.8567 6.68727 22.8734 6.59284C23.24 4.37103 24.4842 3.65449 25.0952 3.50452C25.3254 3.44276 25.5623 3.40919 25.8006 3.40454C26.1894 3.40454 26.3061 3.40454 26.4172 3.5434C26.4614 3.58571 26.4965 3.6366 26.5204 3.69295C26.5442 3.7493 26.5564 3.80994 26.556 3.87114V8.56474C26.5545 8.67265 26.5196 8.77742 26.456 8.86467C26.4216 8.91353 26.3758 8.95324 26.3226 8.98034C26.2693 9.00745 26.2103 9.02111 26.1505 9.02018" fill="#009EC2"/>
<path d="M30.9286 8.53581V3.87557C30.9311 3.75643 30.8873 3.64096 30.8064 3.5534C30.7341 3.47621 30.6344 3.43037 30.5287 3.42565C30.4731 3.42323 30.4178 3.43346 30.3668 3.45559C30.3158 3.47772 30.2705 3.51117 30.2343 3.5534C30.1535 3.64096 30.1097 3.75643 30.1121 3.87557V7.2083C30.1121 7.2083 27.6959 3.62006 27.6181 3.55896C27.5805 3.51302 27.533 3.47616 27.4791 3.45115C27.4253 3.42614 27.3664 3.41364 27.3071 3.41454C27.2525 3.41513 27.1987 3.4279 27.1497 3.45193C27.1007 3.47595 27.0577 3.51062 27.0238 3.5534C26.9493 3.6415 26.9115 3.75485 26.9182 3.87001V8.56914C26.9122 8.68317 26.9513 8.795 27.0273 8.88029C27.1032 8.96559 27.2097 9.01746 27.3237 9.02461C27.4391 9.01885 27.5476 8.96781 27.6256 8.88253C27.7036 8.79725 27.7448 8.68462 27.7403 8.56914V5.15311L30.1066 8.74133C30.1507 8.81493 30.2113 8.87733 30.2835 8.92359C30.3558 8.96984 30.4378 8.99873 30.5231 9.00797C30.5808 9.00521 30.6374 8.9908 30.6894 8.96559C30.7413 8.94038 30.7877 8.90491 30.8256 8.86131C30.8635 8.81771 30.8921 8.76688 30.9098 8.7119C30.9276 8.65692 30.9339 8.59889 30.9286 8.54137" fill="#009EC2"/>
<path d="M17.8312 5.95913C17.9145 5.95913 17.9812 6.02577 17.9812 6.22574C17.9812 6.4257 17.9145 6.49234 17.8312 6.49234H17.2758V7.0478C17.2758 7.12556 17.198 7.19222 17.0036 7.19222C16.8092 7.19222 16.737 7.12556 16.737 7.0478V6.49234H16.1815C16.1038 6.49234 16.0371 6.41459 16.0371 6.22574C16.0371 6.03688 16.1038 5.95913 16.1815 5.95913H16.737V5.40368C16.737 5.32036 16.8147 5.25369 17.0036 5.25369C17.1925 5.25369 17.2758 5.32036 17.2758 5.40368V5.95913H17.8312Z" fill="#F37D2F"/>
</svg>
