<svg width="30" height="13" viewBox="0 0 30 13" fill="none" xmlns="http://www.w3.org/2000/svg">
<path fill-rule="evenodd" clip-rule="evenodd" d="M6.9828 4.44967V4.24111C6.9828 3.59138 6.66538 3.27167 6.02253 3.27167H3.00762C3.97592 3.55012 4.55117 4.26059 4.6417 5.32056C4.64972 5.38015 4.65316 5.43974 4.65316 5.49933V5.58069L4.66232 5.58642L4.65316 5.6059V10.2045C4.65316 10.853 4.13177 11.379 3.49005 11.379C3.11076 11.379 2.77156 11.1957 2.55957 10.9092C2.74979 11.6403 3.16691 12.1892 3.61954 12.6361L6.06836 11.811C6.58288 11.6964 6.96676 11.2392 6.98051 10.6903H6.9828V4.44967Z" fill="url(#paint0_linear_6608_7949)"/>
<path fill-rule="evenodd" clip-rule="evenodd" d="M2.32735 10.2042V5.4991C2.32735 4.85051 2.8476 4.32453 3.48931 4.32453C3.86746 4.32453 4.20321 4.50559 4.41521 4.78748C4.14019 3.86846 3.37357 3.33102 2.21391 3.27258H0.956839C0.316272 3.27258 0 3.59229 0 4.24203V10.6855C0.0103132 11.2378 0.396486 11.6962 0.909856 11.8119L3.48931 12.6805C2.93469 12.1248 2.44767 11.4177 2.34683 10.4208C2.33308 10.3509 2.32735 10.2799 2.32735 10.2054V10.2042Z" fill="url(#paint1_linear_6608_7949)"/>
<path fill-rule="evenodd" clip-rule="evenodd" d="M4.65416 1.50791C4.65416 2.15764 4.13277 2.68476 3.49106 2.68476C2.84935 2.68476 2.3291 2.15764 2.3291 1.50791C2.3291 0.858172 2.84935 0.333344 3.49106 0.333344C4.13277 0.333344 4.65416 0.859318 4.65416 1.50791Z" fill="url(#paint2_linear_6608_7949)"/>
<path fill-rule="evenodd" clip-rule="evenodd" d="M11.2839 5.78597C11.1361 5.78597 11.0043 5.73899 10.8977 5.64388C10.7912 5.55106 10.7373 5.41928 10.7373 5.24739C10.7373 5.09269 10.7912 4.96435 10.9035 4.86465C11.0123 4.76381 11.1407 4.71454 11.2839 4.71454C11.4271 4.71454 11.5498 4.75923 11.6609 4.8509C11.7675 4.94028 11.8225 5.0755 11.8225 5.24853C11.8225 5.42157 11.7709 5.54991 11.6621 5.64273C11.5555 5.73784 11.4306 5.78711 11.2839 5.78711V5.78597ZM11.8225 6.91699V10.0843C11.8225 10.302 11.7709 10.4682 11.6666 10.5805C11.5635 10.6939 11.4317 10.7501 11.2759 10.7501C11.12 10.7501 10.986 10.6916 10.8874 10.5782C10.7877 10.4624 10.7373 10.2974 10.7373 10.0843V6.95022C10.7373 6.73249 10.7877 6.56863 10.8874 6.45977C10.9871 6.34976 11.1155 6.29361 11.2759 6.29361C11.4363 6.29361 11.5647 6.34861 11.6666 6.45977C11.7709 6.56863 11.8225 6.72104 11.8225 6.91699Z" fill="#5A5C5E"/>
<path fill-rule="evenodd" clip-rule="evenodd" d="M13.2527 10.7503C13.0888 10.7503 12.949 10.6953 12.8275 10.5898C12.7107 10.4821 12.6465 10.332 12.6465 10.1395C12.6465 9.97564 12.7061 9.83584 12.8195 9.71895C12.933 9.59978 13.0728 9.54248 13.2401 9.54248C13.4074 9.54248 13.5506 9.59863 13.6686 9.71551C13.7844 9.8324 13.844 9.97334 13.844 10.1384C13.844 10.3274 13.7855 10.4764 13.6686 10.5853C13.5506 10.693 13.4131 10.748 13.2527 10.748V10.7503Z" fill="#5A5C5E"/>
<path fill-rule="evenodd" clip-rule="evenodd" d="M17.8593 9.77393C17.8249 9.92634 17.7458 10.073 17.6244 10.2185C17.5018 10.3641 17.3219 10.489 17.0858 10.5933C16.8509 10.6964 16.5346 10.7503 16.1404 10.7503C15.8207 10.7503 15.556 10.7113 15.3486 10.6345C15.1366 10.5577 14.9578 10.4466 14.8066 10.2976C14.7252 10.2151 14.6461 10.112 14.5659 9.98478C14.488 9.85873 14.4502 9.72237 14.4502 9.57569C14.4502 9.49777 14.4777 9.42901 14.5373 9.36828C14.5992 9.30755 14.6714 9.27775 14.7573 9.27775C14.8524 9.27775 14.9212 9.30525 14.9647 9.35911C15.0128 9.41412 15.0507 9.47943 15.0839 9.55507C15.1652 9.74872 15.289 9.9103 15.4529 10.0409C15.6179 10.1727 15.8631 10.238 16.1885 10.238C16.514 10.238 16.7592 10.167 16.9254 10.0295C17.0927 9.88853 17.174 9.73154 17.174 9.55507C17.174 9.42558 17.1408 9.31786 17.0812 9.23192C17.0193 9.14827 16.9403 9.07493 16.8474 9.01763C16.7569 8.96148 16.6515 8.91564 16.5346 8.88127C16.4189 8.84918 16.31 8.81939 16.2057 8.79303C15.9857 8.73803 15.807 8.68875 15.6637 8.64521C15.5205 8.60052 15.4013 8.55926 15.3039 8.5203C15.2054 8.48249 15.1251 8.44467 15.0621 8.40686C15.0002 8.3679 14.9384 8.3255 14.8788 8.27622C14.7791 8.19257 14.6966 8.08715 14.6221 7.95766C14.5476 7.83046 14.5109 7.68035 14.5109 7.51075C14.5109 7.31939 14.5659 7.13146 14.6748 6.94238C14.7814 6.75789 14.9349 6.61007 15.1309 6.49891C15.25 6.43359 15.3887 6.38317 15.548 6.3465C15.7038 6.31213 15.8849 6.29379 16.0911 6.29379C16.4372 6.29379 16.7168 6.34192 16.9242 6.43359C17.1339 6.52756 17.2944 6.63298 17.4078 6.74872C17.5235 6.8679 17.5969 6.98363 17.6358 7.09593C17.6771 7.20823 17.6943 7.28386 17.6943 7.32168C17.6943 7.33772 17.692 7.36293 17.6863 7.39616C17.6828 7.42825 17.6679 7.46033 17.6439 7.49357C17.6232 7.5268 17.5923 7.55544 17.5556 7.57836C17.5155 7.60357 17.4617 7.61618 17.3929 7.61618C17.2944 7.61618 17.2256 7.59097 17.1855 7.54169C17.1442 7.49242 17.0984 7.41106 17.0423 7.29647C16.9827 7.16469 16.8807 7.04895 16.734 6.9504C16.5885 6.853 16.3788 6.80258 16.1083 6.80258C15.8379 6.80258 15.6282 6.85529 15.4529 6.95842C15.2764 7.06385 15.1905 7.21167 15.1905 7.40189C15.1905 7.4844 15.2076 7.56003 15.242 7.62878C15.2764 7.69754 15.3383 7.76171 15.4288 7.8213C15.5159 7.88203 15.6419 7.94047 15.7989 7.99089C15.9571 8.0436 16.1576 8.09632 16.3983 8.15017C16.561 8.18341 16.7329 8.22924 16.9093 8.2831C17.0847 8.33696 17.2474 8.41144 17.3975 8.50312C17.5476 8.59708 17.6702 8.71626 17.7688 8.86179C17.8685 9.00732 17.9154 9.18952 17.9154 9.40839C17.9154 9.50121 17.8983 9.62153 17.8616 9.77279L17.8593 9.77393Z" fill="#5A5C5E"/>
<path fill-rule="evenodd" clip-rule="evenodd" d="M21.0079 10.2518C20.915 10.3308 20.7959 10.4065 20.6595 10.481C20.5208 10.5554 20.3616 10.6185 20.1794 10.67C19.9972 10.7228 19.792 10.7491 19.5663 10.7491C19.3405 10.7491 19.1308 10.7136 18.959 10.6414C18.7882 10.5715 18.6461 10.4775 18.5327 10.3618C18.4204 10.246 18.3356 10.1177 18.2806 9.97218C18.2267 9.82894 18.1992 9.68111 18.1992 9.53329C18.1992 9.29265 18.2473 9.09555 18.3436 8.94085C18.4399 8.78845 18.5602 8.66698 18.7023 8.57416C18.8444 8.48592 18.9933 8.41946 19.1538 8.37935C19.3142 8.3381 19.4563 8.30372 19.5812 8.27737C19.6305 8.26476 19.7118 8.24872 19.8253 8.22809C19.9387 8.20518 20.0602 8.1834 20.1851 8.16163C20.3077 8.141 20.4246 8.11809 20.5369 8.09631C20.6492 8.07569 20.726 8.05735 20.7707 8.04819C20.8291 8.031 20.8875 8.01381 20.9448 7.99776C21.001 7.98172 21.0743 7.95766 21.1671 7.92443C21.1626 7.78233 21.1522 7.64482 21.1385 7.51304C21.1259 7.38126 21.0869 7.26438 21.0285 7.1601C20.9712 7.05582 20.8749 6.97446 20.7489 6.91258C20.6228 6.853 20.4395 6.8232 20.2069 6.8232C20.0831 6.8232 19.9571 6.83122 19.8379 6.85185C19.7153 6.87018 19.6007 6.90342 19.4952 6.94811C19.3898 6.99853 19.2947 7.05697 19.2099 7.13489C19.1274 7.21281 19.0632 7.30563 19.0208 7.41564C18.9842 7.50731 18.9429 7.58982 18.8971 7.65743C18.8547 7.72618 18.7779 7.76056 18.6713 7.76056C18.5831 7.76056 18.5075 7.73191 18.4467 7.67347C18.3826 7.61732 18.3516 7.54284 18.3516 7.45575C18.3516 7.39501 18.3745 7.30105 18.4192 7.17156C18.4605 7.04322 18.5476 6.91488 18.6782 6.78768C18.81 6.65704 18.991 6.5436 19.226 6.44505C19.4643 6.3465 19.7726 6.29608 20.1576 6.29608C20.5426 6.29608 20.8761 6.34192 21.1064 6.43245C21.3367 6.52297 21.5086 6.64788 21.6221 6.80601C21.7389 6.96415 21.8088 7.15093 21.8352 7.36522C21.8593 7.57836 21.8765 7.80869 21.8765 8.05391C21.8765 8.11006 21.873 8.20174 21.8707 8.33008C21.8684 8.45957 21.8661 8.59479 21.8627 8.73688C21.8593 8.87897 21.857 9.01419 21.8547 9.13451C21.8524 9.25827 21.8501 9.34536 21.8501 9.39578C21.8501 9.59173 21.8627 9.74414 21.8868 9.84727C21.912 9.95155 21.936 10.0386 21.9647 10.1005C21.9704 10.1234 21.9865 10.175 22.0082 10.2541C22.0346 10.3331 22.0449 10.4053 22.0449 10.4706C22.0449 10.5417 22.0105 10.6059 21.9441 10.6632C21.8765 10.7216 21.7951 10.7514 21.7057 10.7514C21.6324 10.7514 21.5751 10.7285 21.5247 10.6861C21.4777 10.6414 21.433 10.5864 21.3963 10.5165C21.3585 10.4477 21.3287 10.3721 21.3035 10.2896C21.276 10.2071 21.2554 10.1292 21.2325 10.0524C21.1786 10.1062 21.1041 10.1739 21.0079 10.2541V10.2518ZM20.9632 8.50197C20.8864 8.52718 20.7947 8.55124 20.687 8.57874C20.4315 8.63948 20.2034 8.68761 20.0029 8.72313C19.8035 8.75751 19.6179 8.79761 19.4528 8.84116C19.3337 8.87439 19.2363 8.91679 19.1652 8.97294C19.0965 9.02794 19.0415 9.08753 19.0048 9.14941C18.9681 9.21129 18.9418 9.27431 18.9269 9.3339C18.9143 9.39464 18.9062 9.44276 18.9062 9.48172C18.9062 9.5585 18.9211 9.63986 18.9498 9.72122C18.9819 9.80373 19.0277 9.87936 19.0896 9.94697C19.1515 10.0157 19.234 10.073 19.336 10.1189C19.4414 10.1658 19.5663 10.1888 19.7118 10.1888C19.8241 10.1888 19.9422 10.1761 20.0659 10.1521C20.1862 10.128 20.3066 10.0914 20.4223 10.0409C20.5403 9.99395 20.6457 9.92978 20.7454 9.853C20.844 9.77622 20.9185 9.68226 20.9804 9.57454C21.0617 9.43016 21.1121 9.26515 21.1282 9.07492C21.1488 8.88699 21.1568 8.67271 21.1568 8.43092C21.1041 8.45155 21.0376 8.47561 20.962 8.50082L20.9632 8.50197Z" fill="#5A5C5E"/>
<path fill-rule="evenodd" clip-rule="evenodd" d="M23.3939 9.01636V10.1485C23.3939 10.2207 23.3927 10.2918 23.3882 10.3617C23.3836 10.4339 23.3733 10.498 23.3481 10.5565C23.324 10.6138 23.2873 10.6596 23.238 10.6963C23.1888 10.7318 23.1189 10.7501 23.0238 10.7501C22.939 10.7501 22.8736 10.7341 22.8255 10.7009C22.7797 10.6676 22.7476 10.6229 22.7247 10.5633C22.7029 10.5072 22.6914 10.4407 22.6903 10.3663C22.6869 10.2929 22.6846 10.2116 22.6846 10.1233V5.35631C22.6846 5.28412 22.6869 5.20735 22.6903 5.12599C22.6926 5.04233 22.7052 4.96785 22.7327 4.90024C22.7556 4.83034 22.7888 4.77763 22.8347 4.73294C22.8817 4.6871 22.9516 4.66647 23.0421 4.66647C23.1235 4.66647 23.1911 4.6871 23.2472 4.72606C23.2999 4.76846 23.3412 4.82117 23.3687 4.88763C23.3801 4.9243 23.3836 4.98045 23.3882 5.0515C23.3927 5.12369 23.3939 5.20276 23.3939 5.291V8.20162L25.0876 6.55609C25.2102 6.43577 25.295 6.36013 25.3385 6.32576C25.3821 6.29253 25.4336 6.27648 25.4932 6.27648C25.5849 6.27648 25.6628 6.31086 25.7281 6.37732C25.7946 6.44722 25.8244 6.52056 25.8244 6.59619C25.8244 6.65807 25.8049 6.70964 25.7636 6.76235C25.7247 6.81163 25.6674 6.86663 25.5963 6.93309L24.4997 7.97817L25.8576 9.95831C25.9596 10.1061 26.0226 10.2093 26.0444 10.2666C26.0673 10.3227 26.0765 10.3766 26.0765 10.4178C26.0765 10.5187 26.0364 10.5943 25.955 10.6573C25.8725 10.718 25.7957 10.7478 25.719 10.7478C25.6376 10.7478 25.5677 10.7192 25.5127 10.6653C25.4565 10.6115 25.3866 10.5221 25.311 10.4018L24.0092 8.43882L23.3916 9.01522L23.3939 9.01636Z" fill="#5A5C5E"/>
<path fill-rule="evenodd" clip-rule="evenodd" d="M26.5031 6.88555C26.5031 6.76179 26.5054 6.6598 26.5134 6.58188C26.5237 6.50396 26.5524 6.44437 26.5994 6.39968C26.6704 6.32978 26.7552 6.29196 26.8618 6.29196C26.9523 6.29196 27.0371 6.32519 27.1127 6.39166C27.162 6.44093 27.1906 6.50396 27.1987 6.58188C27.2055 6.65865 27.2113 6.76064 27.2113 6.88555V8.87485C27.2113 9.01695 27.2159 9.16019 27.2262 9.30572C27.2376 9.45354 27.2766 9.58303 27.3488 9.69647C27.4279 9.83513 27.5379 9.94055 27.6719 10.0139C27.8083 10.0884 27.9504 10.1239 28.0959 10.1239C28.3033 10.1239 28.5004 10.0689 28.6861 9.96004C28.8729 9.85117 29.0138 9.70793 29.1066 9.53261C29.1261 9.48219 29.149 9.43291 29.1719 9.38249C29.1971 9.32978 29.2178 9.2553 29.235 9.16477C29.2499 9.07081 29.2659 8.95048 29.2751 8.80381C29.2888 8.65484 29.2934 8.46003 29.2934 8.21824V6.88669C29.2934 6.76752 29.298 6.66782 29.306 6.58646C29.3117 6.50739 29.3404 6.44666 29.3908 6.40082C29.4183 6.37332 29.4504 6.34926 29.4928 6.32749C29.534 6.30686 29.581 6.29425 29.6418 6.29425C29.7346 6.29425 29.8217 6.32748 29.903 6.39395C29.9546 6.44322 29.981 6.50625 29.9878 6.58417C29.997 6.66095 30.0004 6.76293 30.0004 6.88784V10.1858C30.0004 10.3004 29.9958 10.3978 29.9878 10.4723C29.981 10.5502 29.9546 10.6098 29.903 10.6533C29.8744 10.6808 29.8423 10.7026 29.8022 10.7232C29.7621 10.7438 29.7117 10.753 29.6578 10.753C29.5879 10.753 29.5283 10.737 29.4768 10.7037C29.4217 10.6705 29.3908 10.635 29.3748 10.596C29.3461 10.541 29.3289 10.4746 29.3255 10.4001C29.3186 10.3233 29.3163 10.1938 29.3163 10.0127C29.2625 10.0781 29.1983 10.1548 29.125 10.2431C29.0516 10.3313 28.9611 10.4115 28.8534 10.486C28.7434 10.5605 28.6185 10.6235 28.4718 10.6751C28.3251 10.7278 28.1521 10.7542 27.9515 10.7542C27.8415 10.7542 27.7281 10.7427 27.6043 10.7209C27.4817 10.6992 27.3637 10.6636 27.2491 10.6155C27.1356 10.5639 27.0314 10.4998 26.9328 10.423C26.8354 10.3428 26.7598 10.2442 26.7048 10.1296C26.612 9.94399 26.5558 9.77669 26.5352 9.62887C26.5134 9.48219 26.502 9.3252 26.502 9.15904V6.89128L26.5031 6.88555Z" fill="#5A5C5E"/>
<defs>
<linearGradient id="paint0_linear_6608_7949" x1="3.93467" y1="11.6414" x2="5.40602" y2="5.24379" gradientUnits="userSpaceOnUse">
<stop stop-color="#265EA7"/>
<stop offset="0.57" stop-color="#1C76B9"/>
<stop offset="1" stop-color="#00A5C2"/>
</linearGradient>
<linearGradient id="paint1_linear_6608_7949" x1="3.62911" y1="3.84325" x2="0.712758" y2="10.7623" gradientUnits="userSpaceOnUse">
<stop stop-color="#265EA7"/>
<stop offset="0.57" stop-color="#1C76B9"/>
<stop offset="1" stop-color="#00A5C2"/>
</linearGradient>
<linearGradient id="paint2_linear_6608_7949" x1="3.49106" y1="0.765353" x2="3.49106" y2="3.03885" gradientUnits="userSpaceOnUse">
<stop stop-color="#F9BD1E"/>
<stop offset="1" stop-color="#F28321"/>
</linearGradient>
</defs>
</svg>
