<svg width="34" height="10" viewBox="0 0 34 10" fill="none" xmlns="http://www.w3.org/2000/svg">
<path fill-rule="evenodd" clip-rule="evenodd" d="M16.0031 1.74674C16.0405 1.69754 16.0591 1.46804 16.0591 1.41433V0.301647C16.0531 0.236117 16.0291 0.186855 15.9874 0.154166C15.9457 0.12131 15.8977 0.10498 15.8439 0.10498H11.0213C10.9614 0.10498 10.9114 0.122852 10.8711 0.158504C10.8309 0.194248 10.8105 0.242089 10.8105 0.301647V0.314066C10.8105 0.385721 10.844 0.45287 10.9005 0.496786C11.1769 0.711569 11.4337 0.939809 11.7151 1.34396C11.9861 1.73295 11.9999 1.82052 12.0834 1.82052H12.5631V6.54487C12.5631 6.60564 12.589 6.66478 12.635 6.7046C12.6784 6.74214 12.7244 6.76077 12.7732 6.76077H14.0877C14.1501 6.76077 14.2008 6.73916 14.2396 6.69584C14.2781 6.65244 14.2976 6.60376 14.2976 6.54997V1.82052H15.8439C15.9128 1.82052 15.9657 1.79593 16.0031 1.74674Z" fill="#E72635"/>
<path fill-rule="evenodd" clip-rule="evenodd" d="M18.126 4.94483C17.3126 4.94483 16.6534 4.28546 16.6534 3.47217C16.6534 2.65878 17.3126 1.9995 18.126 1.9995C18.9395 1.9995 19.5987 2.65878 19.5987 3.47217C19.5987 4.28546 18.9395 4.94483 18.126 4.94483ZM21.4315 2.5667C21.3494 2.2754 21.2342 2.00198 21.0863 1.7465C20.9381 1.49112 20.7595 1.25888 20.5504 1.04953C20.3409 0.840355 20.1091 0.661897 19.8552 0.51408C19.6009 0.366095 19.3274 0.250936 19.0341 0.168909C18.7412 0.0867901 18.4378 0.0455933 18.1238 0.0455933C17.8068 0.0455933 17.5027 0.0867901 17.211 0.168909C17.0013 0.228054 16.8018 0.305071 16.6114 0.398264C16.5735 0.424384 16.5232 0.466421 16.4771 0.526666C16.4221 0.598413 16.3938 0.687421 16.3938 0.777804V1.66174C16.3938 1.89296 16.2064 2.08035 15.9753 2.08035H15.2785C15.0994 2.08035 14.9405 2.19431 14.8819 2.36331C14.8587 2.42994 14.8375 2.49794 14.8183 2.5667C14.7376 2.85818 14.6973 3.16223 14.6973 3.47897C14.6973 3.79555 14.7376 4.0997 14.8183 4.391C14.8991 4.6823 15.0142 4.95419 15.1637 5.20686C15.3132 5.45935 15.4919 5.6892 15.6997 5.89694C15.9075 6.10466 16.1384 6.2832 16.3927 6.43256C16.6467 6.582 16.9197 6.69714 17.211 6.77747C17.5027 6.8584 17.8068 6.89874 18.1238 6.89874C18.4378 6.89874 18.7412 6.8584 19.0341 6.77747C19.3274 6.69714 19.6009 6.582 19.8552 6.43256C20.1091 6.2832 20.3409 6.10466 20.5504 5.89694C20.7595 5.6892 20.9381 5.45935 21.0863 5.20686C21.2342 4.95419 21.3494 4.6823 21.4315 4.391C21.5138 4.0997 21.555 3.79555 21.555 3.47897C21.555 3.16223 21.5138 2.85818 21.4315 2.5667Z" fill="#E72635"/>
<mask id="mask0_6650_27780" style="mask-type:alpha" maskUnits="userSpaceOnUse" x="0" y="0" width="12" height="7">
<path d="M0.333984 0H11.8022V6.89117H0.333984V0Z" fill="white"/>
</mask>
<g mask="url(#mask0_6650_27780)">
<path fill-rule="evenodd" clip-rule="evenodd" d="M3.71485 4.90544C2.90145 4.90544 2.24219 4.24607 2.24219 3.43278C2.24219 2.61938 2.90145 1.96011 3.71485 1.96011C4.52815 1.96011 5.18752 2.61938 5.18752 3.43278C5.18752 4.24607 4.52815 4.90544 3.71485 4.90544ZM11.6269 4.60725L10.2053 4.13145C10.096 4.09485 9.97339 4.13433 9.9111 4.23144C9.63232 4.66673 9.12954 4.94466 8.56438 4.89955C8.19368 4.87003 7.85711 4.69635 7.6139 4.43348C7.4374 4.24292 7.30976 4.00567 7.25536 3.74126C7.2347 3.64077 7.22558 3.54204 7.22558 3.44546H7.22507C7.22507 2.50986 6.85157 1.66184 6.24599 1.04093C6.23647 1.03098 6.22702 1.0207 6.21732 1.01057C5.5937 0.386352 4.73163 0 3.7797 0C2.37102 0 1.16056 0.845796 0.62638 2.0567C0.439077 2.48169 0.333984 2.95119 0.333984 3.44554C0.333984 5.04798 1.42795 6.3946 2.90964 6.78011C2.93133 6.78573 2.95363 6.78981 2.97567 6.79491V6.79508C3.23362 6.85687 3.50252 6.89109 3.77952 6.89109C4.64134 6.89109 5.42886 6.57375 6.03308 6.05073C6.03308 6.05073 6.20804 5.88929 6.23323 5.86494C6.85795 6.49759 7.72435 6.89118 8.68371 6.89118C9.06758 6.89118 9.4359 6.8264 9.78065 6.71032C10.6545 6.41666 11.3725 5.78375 11.7753 4.96628C11.8444 4.82596 11.7753 4.65677 11.6269 4.60725Z" fill="#E72635"/>
</g>
<path fill-rule="evenodd" clip-rule="evenodd" d="M8.68319 1.98668C9.13397 1.98668 9.53615 2.19161 9.80363 2.51302C9.8763 2.60034 9.99978 2.62646 10.1047 2.58239L11.4817 2.00285C11.6328 1.93928 11.6898 1.75546 11.6026 1.61658C10.9935 0.645845 9.91409 0 8.68319 0C7.81286 0 7.01845 0.323297 6.41211 0.855786C6.91191 1.36382 7.26602 2.01535 7.4065 2.74229C7.65492 2.2921 8.13275 1.98668 8.68319 1.98668Z" fill="#E72635"/>
<path fill-rule="evenodd" clip-rule="evenodd" d="M24.7905 3.82725H24.4715C23.6741 3.82725 23.086 4.38542 23.086 5.13295C23.086 6.03998 23.7787 6.43863 24.292 6.43863H24.7905V6.87721H24.292C23.3203 6.87721 22.5977 6.12968 22.5977 5.13295C22.5977 4.28575 23.2904 3.38867 24.4217 3.38867H24.7905V3.82725Z" fill="#790008"/>
<mask id="mask1_6650_27780" style="mask-type:alpha" maskUnits="userSpaceOnUse" x="0" y="0" width="34" height="10">
<path d="M0.333984 9.71889H33.6673V0H0.333984V9.71889Z" fill="white"/>
</mask>
<g mask="url(#mask1_6650_27780)">
<path fill-rule="evenodd" clip-rule="evenodd" d="M25.25 6.87721H25.6886V3.38867H25.25V6.87721Z" fill="#790008"/>
<path fill-rule="evenodd" clip-rule="evenodd" d="M26.4961 6.87768H26.9346V4.48555H26.4961V6.87768ZM26.7153 3.68817C26.8848 3.68817 26.9795 3.81775 26.9795 3.95231C26.9795 4.08687 26.8848 4.21644 26.7153 4.21644C26.5459 4.21644 26.4512 4.08687 26.4512 3.95231C26.4512 3.81775 26.5459 3.68817 26.7153 3.68817Z" fill="#790008"/>
<path fill-rule="evenodd" clip-rule="evenodd" d="M29.2407 4.90427H28.9018C28.4882 4.90427 28.0796 5.17342 28.0796 5.68172C28.0796 6.19003 28.4882 6.45918 28.9018 6.45918H29.2407V6.87779H28.8222C28.264 6.87779 27.6211 6.44922 27.6211 5.68172C27.6211 4.91423 28.264 4.48566 28.8222 4.48566H29.2407V4.90427Z" fill="#790008"/>
<path fill-rule="evenodd" clip-rule="evenodd" d="M29.6055 6.87721V3.38867H30.044V5.37216H30.2284C30.4128 5.37216 30.5324 5.30238 30.5972 5.19275L31.0108 4.48507H31.5092L31.1952 5.02332C31.1005 5.18775 30.956 5.42696 30.8214 5.46185V5.47183C31.1753 5.54159 31.3696 5.75092 31.3696 6.17454V6.87721H30.931V6.22434C30.931 5.92536 30.7716 5.79077 30.5423 5.79077H30.044V6.87721H29.6055Z" fill="#790008"/>
<path fill-rule="evenodd" clip-rule="evenodd" d="M31.6992 6.45918H32.9252C33.1295 6.45918 33.2092 6.37944 33.2092 6.22993C33.2092 5.79135 31.6992 5.96078 31.6992 5.13352C31.6992 4.70991 31.9932 4.48566 32.5165 4.48566H33.5481V4.90427H32.4418C32.2275 4.90427 32.1627 4.96409 32.1577 5.1136C32.1527 5.52725 33.6677 5.35281 33.6677 6.21001C33.6677 6.6635 33.3488 6.87779 32.9252 6.87779H31.6992V6.45918Z" fill="#790008"/>
<path fill-rule="evenodd" clip-rule="evenodd" d="M9.85547 9.40504H11.6504V7.61066H9.85547V9.40504Z" fill="#790008"/>
<path fill-rule="evenodd" clip-rule="evenodd" d="M11.0538 7.94922H10.0996L10.5213 8.50763H11.4755L11.0538 7.94922Z" fill="white"/>
<path fill-rule="evenodd" clip-rule="evenodd" d="M11.4755 8.50751H10.5213L10.0996 9.06581H11.0538L11.4755 8.50751Z" fill="#ED1C24"/>
<path fill-rule="evenodd" clip-rule="evenodd" d="M12.9834 8.81939C12.9153 8.87397 12.8333 8.90203 12.7463 8.90203C12.535 8.90203 12.371 8.73449 12.371 8.51956C12.371 8.30485 12.535 8.13692 12.7463 8.13692C12.8333 8.13692 12.9153 8.16557 12.9834 8.21946L12.9867 8.2223L13.1494 8.05955L13.1454 8.05637C13.0347 7.96002 12.8927 7.90692 12.7463 7.90692C12.4048 7.90692 12.127 8.18198 12.127 8.51956C12.127 8.85712 12.4048 9.13198 12.7463 9.13198C12.8927 9.13198 13.0347 9.07885 13.1454 8.98259L13.1494 8.97925L12.9867 8.81654L12.9834 8.81939ZM13.3705 9.09764H13.6045V7.94121H13.3705V9.09764ZM14.5265 8.68016C14.5185 8.66481 14.1186 7.93879 14.1186 7.93879H13.8906V9.0956H14.1239V8.4044C14.141 8.43492 14.5265 9.10452 14.5265 9.10452C14.5265 9.10452 14.9112 8.43516 14.9288 8.40486V9.0956H15.1619V7.93879H14.9337C14.9337 7.93879 14.5351 8.66481 14.5265 8.68016ZM15.898 8.88853H15.6694V8.61576H15.898C16.0045 8.61576 16.0424 8.6861 16.0424 8.75145C16.0424 8.81774 16.0045 8.88853 15.898 8.88853ZM15.6694 8.15097H15.8834C15.973 8.15097 16.0267 8.19852 16.0267 8.2782C16.0267 8.35764 15.973 8.40526 15.8834 8.40526H15.6694V8.15097ZM16.1249 8.50469C16.1758 8.47653 16.2602 8.39772 16.2602 8.26818C16.2602 8.06653 16.1227 7.94121 15.9012 7.94121H15.4355V9.09764H15.9201C16.1402 9.09764 16.2764 8.96968 16.2764 8.76272C16.2764 8.60744 16.1847 8.53531 16.1249 8.50469Z" fill="#790008"/>
<path fill-rule="evenodd" clip-rule="evenodd" d="M18.7352 7.94598H18.9028L19.3052 9.09254H19.1659L19.0563 8.78373H18.5741L18.4694 9.09982H18.3125L18.7352 7.94598ZM18.6222 8.64903H19.0084L18.8185 8.09035H18.8154L18.6222 8.64903Z" fill="#790008"/>
<path fill-rule="evenodd" clip-rule="evenodd" d="M21.0668 7.94598H21.2351L21.6367 9.09254H21.497L21.388 8.78373H20.9058L20.8009 9.09982H20.6445L21.0668 7.94598ZM20.9538 8.64903H21.3401L21.1497 8.09035H21.147L20.9538 8.64903Z" fill="#790008"/>
<path fill-rule="evenodd" clip-rule="evenodd" d="M20.4219 8.09604C20.4219 8.09604 19.9872 7.75108 19.5975 8.11868C19.5975 8.11868 19.4224 8.27091 19.432 8.59074C19.432 8.59074 19.4523 9.11583 20.0321 9.12317C20.0321 9.12317 20.2795 9.10816 20.4448 9.0108V8.46353H20.0624V8.5681H20.3324V8.92821C20.3324 8.92821 19.9347 9.11583 19.7097 8.89062C19.7097 8.89062 19.5301 8.79322 19.5671 8.45615C19.5671 8.45615 19.6424 8.04604 20.0574 8.07106C20.0574 8.07106 20.2823 8.09848 20.3425 8.19585L20.4219 8.09604Z" fill="#790008"/>
<path fill-rule="evenodd" clip-rule="evenodd" d="M18 9.09254H18.12V7.93781H18V9.09254Z" fill="#790008"/>
<path fill-rule="evenodd" clip-rule="evenodd" d="M17.5737 7.93781V8.88243L16.8836 7.93781H16.7637V9.09254H16.8836V8.14423L17.5737 9.09254H17.6937V7.93781H17.5737Z" fill="#790008"/>
</g>
</svg>
