<svg width="32" height="16" viewBox="0 0 32 16" fill="none" xmlns="http://www.w3.org/2000/svg">
<path fill-rule="evenodd" clip-rule="evenodd" d="M6.69084 8.78762C6.68807 9.01303 6.9728 9.03735 7.14523 9.03735H7.23796C7.25497 9.03735 7.26881 9.03696 7.28878 9.03498C7.69611 9.01402 7.69294 8.86058 7.69294 8.78762C7.69176 8.74946 7.69176 8.70991 7.69294 8.66502V0.251318C7.69611 0.0262984 7.40979 0 7.23796 0H7.14523C6.9728 0 6.68807 0.0262984 6.69084 0.251318C6.69084 0.298773 6.68945 0.344647 6.68945 0.392301V8.64604C6.68945 8.65039 6.68945 8.65672 6.69084 8.66898V8.78762Z" fill="#EC212E"/>
<path fill-rule="evenodd" clip-rule="evenodd" d="M1.34573 8.78762C1.34276 9.01303 1.62769 9.03735 1.79972 9.03735H1.89246C1.90966 9.03735 1.9237 9.03696 1.94347 9.03498C2.3506 9.01402 2.34744 8.86058 2.34744 8.78762C2.34665 8.74946 2.34665 8.70991 2.34744 8.66502V0.251318C2.3506 0.0262984 2.06448 0 1.89246 0H1.79972C1.62769 0 1.34276 0.0262984 1.34573 0.251318C1.34573 0.298773 1.34375 0.344647 1.34375 0.392301V8.64604C1.34375 8.65039 1.34375 8.65672 1.34573 8.66898V8.78762Z" fill="#EC212E"/>
<path fill-rule="evenodd" clip-rule="evenodd" d="M3.12619 8.78762C3.12381 9.01303 3.40855 9.03735 3.58097 9.03735H3.67371C3.69051 9.03735 3.70436 9.03696 3.72452 9.03498C4.13165 9.01402 4.12869 8.86058 4.12869 8.78762C4.1273 8.74946 4.1273 8.70991 4.12869 8.66502V0.251318C4.13165 0.0262984 3.84554 0 3.67371 0H3.58097C3.40855 0 3.12381 0.0262984 3.12619 0.251318C3.12619 0.298773 3.125 0.344647 3.125 0.392301V8.64604C3.125 8.65039 3.125 8.65672 3.12619 8.66898V8.78762Z" fill="#EC212E"/>
<path fill-rule="evenodd" clip-rule="evenodd" d="M4.90823 8.78762C4.90566 9.01303 5.19019 9.03735 5.36262 9.03735H5.45535C5.47216 9.03735 5.4862 9.03696 5.50597 9.03498C5.9135 9.01402 5.91014 8.86058 5.91014 8.78762C5.90915 8.74946 5.90915 8.70991 5.91014 8.66502V0.251318C5.9135 0.0262984 5.62698 0 5.45535 0H5.36262C5.19019 0 4.90566 0.0262984 4.90823 0.251318C4.90823 0.298773 4.90625 0.344647 4.90625 0.392301V8.64604C4.90625 8.65039 4.90625 8.65672 4.90823 8.66898V8.78762Z" fill="#EC212E"/>
<path fill-rule="evenodd" clip-rule="evenodd" d="M0.249538 4.01832C0.0241233 4.01555 0 4.30029 0 4.4731V4.56604C0 4.58285 0.000593197 4.59669 0.00217505 4.61606C0.0231347 5.02359 0.176575 5.02062 0.249538 5.02062C0.287898 5.01924 0.327049 5.01924 0.372528 5.02062H8.78584C9.01086 5.02359 9.03716 4.73747 9.03716 4.56604V4.4731C9.03716 4.30029 9.01086 4.01555 8.78584 4.01832C8.73818 4.01832 8.6929 4.01654 8.64486 4.01654H0.391312C0.386764 4.01654 0.381228 4.01654 0.368177 4.01832H0.249538Z" fill="#EC212E"/>
<path fill-rule="evenodd" clip-rule="evenodd" d="M21.4946 7.23809H21.477C20.0976 7.23809 19.5601 6.46674 19.5601 4.48625C19.5601 2.52752 20.0759 1.79947 21.463 1.79947H21.5078C22.8953 1.79947 23.4112 2.52752 23.4112 4.48625C23.4112 6.46674 22.8738 7.23809 21.4946 7.23809ZM21.4881 0.662109C19.0852 0.662109 18.0137 1.84554 18.0137 4.49871C18.0137 7.09078 19.1303 8.35904 21.4274 8.37525H21.5391C23.8403 8.36378 24.9593 7.09533 24.9593 4.49871C24.9593 1.84554 23.8885 0.662109 21.4881 0.662109Z" fill="#213C77"/>
<path fill-rule="evenodd" clip-rule="evenodd" d="M11.8397 7.78854C12.3269 8.16483 12.9899 8.32479 14.0569 8.32479H14.1241C15.199 8.32479 15.864 8.16483 16.3472 7.78894C17.0486 7.25585 17.1668 6.62805 17.1668 5.42188L17.168 1.09451C17.1688 1.03124 17.17 0.952542 17.1 0.881556C16.9894 0.76964 16.7431 0.712891 16.3674 0.712891C15.9952 0.712891 15.7507 0.769442 15.6407 0.880963C15.5701 0.952344 15.5711 1.03124 15.5721 1.09491L15.5723 1.87477V5.61645C15.5725 6.36922 15.5725 6.52602 15.2379 6.80126C14.9295 7.05238 14.4636 7.08442 14.0929 7.08442C13.7219 7.08442 13.2565 7.05238 12.948 6.80166C12.6148 6.5278 12.6148 6.37357 12.615 5.63286L12.6152 1.09491C12.6164 1.03144 12.617 0.952542 12.5468 0.881161C12.4365 0.769442 12.1913 0.712891 11.818 0.712891C11.4438 0.712891 11.1983 0.76964 11.0883 0.881359C11.0177 0.952542 11.0189 1.03124 11.0197 1.09471L11.0199 1.1131V5.42188C11.0199 6.62706 11.1382 7.25486 11.8397 7.78854Z" fill="#213C77"/>
<path fill-rule="evenodd" clip-rule="evenodd" d="M29.0683 7.19943H27.3763V4.93282H29.1907C30.1967 4.93282 30.3988 5.371 30.3988 6.07769C30.3988 7.02997 30.0502 7.19943 29.0683 7.19943ZM27.3778 1.81281H29.1037C29.9972 1.81281 30.068 2.26561 30.068 2.85802C30.068 3.5657 29.7437 3.86744 28.9834 3.86744H27.3778V1.81281ZM30.9584 1.16227C30.5615 0.867052 30.088 0.762451 29.1487 0.762451H26.0596C25.919 0.762451 25.8047 0.876345 25.8047 1.01614V8.01982C25.8047 8.161 25.919 8.27549 26.0596 8.27549H29.3002C30.1799 8.27549 30.7947 8.24701 31.3058 7.86223C31.8788 7.41792 31.9992 6.68987 31.9992 6.15718C31.9992 5.45424 31.7633 4.89743 31.3349 4.59035C31.1488 4.45174 30.9291 4.36849 30.7203 4.29514L30.5797 4.2459L30.714 4.18184C31.3449 3.88049 31.5761 3.46169 31.566 2.63616C31.5607 2.24979 31.4745 1.54389 30.9584 1.16227Z" fill="#213C77"/>
<path fill-rule="evenodd" clip-rule="evenodd" d="M6.94922 15.5776V11.1064H9.28305V11.5128H7.41883V13.1247H8.94671V13.531H7.41883V15.171H9.52824V15.5776H6.94922Z" fill="#00367B"/>
<path fill-rule="evenodd" clip-rule="evenodd" d="M10.291 15.5775V15.4721L11.8327 12.8326C11.9636 12.608 12.0979 12.3786 12.2357 12.1447C12.3735 11.9108 12.5032 11.6978 12.6248 11.5058L12.6177 11.4987H10.4733V11.1064H13.2904V11.2116L11.7347 13.8651C11.6087 14.0805 11.4766 14.3041 11.3388 14.5357C11.201 14.7674 11.0713 14.9813 10.9499 15.1779L10.9568 15.1852H13.3606V15.5775H10.291Z" fill="#00367B"/>
<path fill-rule="evenodd" clip-rule="evenodd" d="M18.5054 12.3188C18.5054 12.1924 18.4808 12.0793 18.4318 11.9787C18.3828 11.8782 18.3171 11.7944 18.2355 11.7265C18.1538 11.6587 18.0579 11.6061 17.9481 11.5688C17.8384 11.5316 17.7204 11.5128 17.5944 11.5128H16.8934V13.1245H17.6223C17.7391 13.1245 17.8511 13.1071 17.9586 13.0721C18.0662 13.0371 18.1595 12.9843 18.239 12.9143C18.3185 12.8443 18.3828 12.7591 18.4318 12.6587C18.4808 12.5582 18.5054 12.4449 18.5054 12.3188ZM18.9819 12.3188C18.9819 12.5104 18.9457 12.6808 18.8733 12.8303C18.8008 12.98 18.7051 13.1071 18.586 13.2123C18.4668 13.3173 18.3302 13.3968 18.1759 13.4506C18.0217 13.5042 17.8629 13.5311 17.6994 13.5311H16.8934V15.5774H16.4238V11.1063H17.6713C17.8396 11.1063 18.0029 11.1332 18.1619 11.1867C18.3207 11.2407 18.4609 11.32 18.5825 11.425C18.7039 11.5304 18.8008 11.6575 18.8733 11.807C18.9457 11.9567 18.9819 12.1272 18.9819 12.3188Z" fill="#00367B"/>
<path fill-rule="evenodd" clip-rule="evenodd" d="M21.3434 12.5616C21.3013 12.459 21.2603 12.3498 21.2206 12.2334C21.181 12.1169 21.1423 11.9981 21.1051 11.8771H21.0911C21.0537 11.9981 21.014 12.1169 20.972 12.2334C20.9299 12.3498 20.8878 12.459 20.8457 12.5616L20.3061 13.9305H21.8759L21.3434 12.5616ZM22.5488 15.5774L22.0372 14.3228H20.1449L19.6402 15.5774H19.1777L21.028 11.0151H21.1751L23.0253 15.5774H22.5488Z" fill="#00367B"/>
<path fill-rule="evenodd" clip-rule="evenodd" d="M25.148 13.51V15.5775H24.6855V13.51L22.9824 11.1064H23.5011L24.4682 12.4729C24.5384 12.5755 24.6155 12.6878 24.6995 12.8093C24.7836 12.9309 24.8607 13.0451 24.9307 13.1525H24.9447C25.0149 13.0451 25.0897 12.9318 25.1689 12.8128C25.2484 12.6936 25.3279 12.5805 25.4074 12.4729L26.3814 11.1064H26.8651L25.148 13.51Z" fill="#00367B"/>
</svg>
