<svg id="Layer_1" data-name="Layer 1" xmlns="http://www.w3.org/2000/svg" xmlns:xlink="http://www.w3.org/1999/xlink" viewBox="0 0 745.52 576.44"><defs><style>.cls-1{fill:none;}.cls-2{clip-path:url(#clip-path);}.cls-3{clip-path:url(#clip-path-2);}.cls-4{fill:#eda624;}.cls-5{clip-path:url(#clip-path-4);}.cls-6{clip-path:url(#clip-path-7);}.cls-7{clip-path:url(#clip-path-10);}.cls-8{clip-path:url(#clip-path-13);}.cls-9{clip-path:url(#clip-path-16);}.cls-10{clip-path:url(#clip-path-19);}.cls-11{clip-path:url(#clip-path-22);}.cls-12{clip-path:url(#clip-path-25);}.cls-13{clip-path:url(#clip-path-28);}.cls-14{clip-path:url(#clip-path-31);}.cls-15{clip-path:url(#clip-path-34);}.cls-16{clip-path:url(#clip-path-37);}.cls-17{clip-path:url(#clip-path-40);}.cls-18{clip-path:url(#clip-path-41);}.cls-19{clip-path:url(#clip-path-43);}.cls-20{clip-path:url(#clip-path-46);}.cls-21{clip-path:url(#clip-path-49);}.cls-22{clip-path:url(#clip-path-52);}.cls-23{clip-path:url(#clip-path-55);}.cls-24{clip-path:url(#clip-path-58);}.cls-25{clip-path:url(#clip-path-61);}.cls-26{clip-path:url(#clip-path-64);}.cls-27{clip-path:url(#clip-path-67);}.cls-28{clip-path:url(#clip-path-70);}.cls-29{clip-path:url(#clip-path-73);}.cls-30{clip-path:url(#clip-path-76);}.cls-31{clip-path:url(#clip-path-79);}.cls-32{clip-path:url(#clip-path-80);}.cls-33{clip-path:url(#clip-path-82);}.cls-34{clip-path:url(#clip-path-85);}.cls-35{clip-path:url(#clip-path-88);}.cls-36{clip-path:url(#clip-path-91);}.cls-37{clip-path:url(#clip-path-94);}.cls-38{clip-path:url(#clip-path-97);}.cls-39{clip-path:url(#clip-path-100);}.cls-40{clip-path:url(#clip-path-103);}.cls-41{clip-path:url(#clip-path-106);}.cls-42{clip-path:url(#clip-path-109);}.cls-43{clip-path:url(#clip-path-112);}.cls-44{clip-path:url(#clip-path-115);}.cls-45{clip-path:url(#clip-path-118);}.cls-46{clip-path:url(#clip-path-119);}.cls-47{clip-path:url(#clip-path-121);}.cls-48{clip-path:url(#clip-path-124);}.cls-49{clip-path:url(#clip-path-127);}.cls-50{clip-path:url(#clip-path-130);}.cls-51{clip-path:url(#clip-path-133);}.cls-52{clip-path:url(#clip-path-136);}.cls-53{clip-path:url(#clip-path-139);}.cls-54{clip-path:url(#clip-path-142);}.cls-55{clip-path:url(#clip-path-145);}.cls-56{clip-path:url(#clip-path-148);}.cls-57{clip-path:url(#clip-path-151);}.cls-58{clip-path:url(#clip-path-154);}</style><clipPath id="clip-path" transform="translate(-0.83 -0.91)"><rect class="cls-1" x="21" y="21" width="8" height="8"/></clipPath><clipPath id="clip-path-2" transform="translate(-0.83 -0.91)"><rect class="cls-1" x="-24.98" y="-25.03" width="110.87" height="110.87" transform="translate(-12.58 30.44) rotate(-45)"/></clipPath><clipPath id="clip-path-4" transform="translate(-0.83 -0.91)"><rect class="cls-1" x="22" y="27" width="10" height="6"/></clipPath><clipPath id="clip-path-7" transform="translate(-0.83 -0.91)"><rect class="cls-1" x="27" y="21" width="6" height="11"/></clipPath><clipPath id="clip-path-10" transform="translate(-0.83 -0.91)"><rect class="cls-1" x="19" y="35" width="18" height="11"/></clipPath><clipPath id="clip-path-13" transform="translate(-0.83 -0.91)"><rect class="cls-1" x="27" y="32" width="4" height="5"/></clipPath><clipPath id="clip-path-16" transform="translate(-0.83 -0.91)"><rect class="cls-1" x="22" y="32" width="7" height="6"/></clipPath><clipPath id="clip-path-19" transform="translate(-0.83 -0.91)"><rect class="cls-1" x="16" y="32" width="9" height="8"/></clipPath><clipPath id="clip-path-22" transform="translate(-0.83 -0.91)"><rect class="cls-1" x="35" y="19" width="11" height="18"/></clipPath><clipPath id="clip-path-25" transform="translate(-0.83 -0.91)"><rect class="cls-1" x="32" y="27" width="5" height="4"/></clipPath><clipPath id="clip-path-28" transform="translate(-0.83 -0.91)"><rect class="cls-1" x="32" y="22" width="6" height="7"/></clipPath><clipPath id="clip-path-31" transform="translate(-0.83 -0.91)"><rect class="cls-1" x="32" y="16" width="8" height="9"/></clipPath><clipPath id="clip-path-34" transform="translate(-0.83 -0.91)"><rect class="cls-1" y="41" width="30" height="29"/></clipPath><clipPath id="clip-path-37" transform="translate(-0.83 -0.91)"><rect class="cls-1" x="41" width="29" height="30"/></clipPath><clipPath id="clip-path-40" transform="translate(-0.83 -0.91)"><rect class="cls-1" x="718" y="549" width="9" height="9"/></clipPath><clipPath id="clip-path-41" transform="translate(-0.83 -0.91)"><rect class="cls-1" x="661.3" y="492.41" width="110.87" height="110.87" transform="translate(-177.46 667.27) rotate(-45)"/></clipPath><clipPath id="clip-path-43" transform="translate(-0.83 -0.91)"><rect class="cls-1" x="715" y="546" width="11" height="5"/></clipPath><clipPath id="clip-path-46" transform="translate(-0.83 -0.91)"><rect class="cls-1" x="714" y="546" width="6" height="11"/></clipPath><clipPath id="clip-path-49" transform="translate(-0.83 -0.91)"><rect class="cls-1" x="710" y="532" width="18" height="12"/></clipPath><clipPath id="clip-path-52" transform="translate(-0.83 -0.91)"><rect class="cls-1" x="716" y="542" width="5" height="4"/></clipPath><clipPath id="clip-path-55" transform="translate(-0.83 -0.91)"><rect class="cls-1" x="718" y="540" width="7" height="6"/></clipPath><clipPath id="clip-path-58" transform="translate(-0.83 -0.91)"><rect class="cls-1" x="722" y="538" width="9" height="8"/></clipPath><clipPath id="clip-path-61" transform="translate(-0.83 -0.91)"><rect class="cls-1" x="701" y="541" width="12" height="18"/></clipPath><clipPath id="clip-path-64" transform="translate(-0.83 -0.91)"><rect class="cls-1" x="711" y="548" width="4" height="4"/></clipPath><clipPath id="clip-path-67" transform="translate(-0.83 -0.91)"><rect class="cls-1" x="709" y="549" width="6" height="7"/></clipPath><clipPath id="clip-path-70" transform="translate(-0.83 -0.91)"><rect class="cls-1" x="707" y="553" width="8" height="9"/></clipPath><clipPath id="clip-path-73" transform="translate(-0.83 -0.91)"><rect class="cls-1" x="717" y="508" width="30" height="29"/></clipPath><clipPath id="clip-path-76" transform="translate(-0.83 -0.91)"><rect class="cls-1" x="677" y="548" width="29" height="30"/></clipPath><clipPath id="clip-path-79" transform="translate(-0.83 -0.91)"><rect class="cls-1" x="21" y="549" width="8" height="8"/></clipPath><clipPath id="clip-path-80" transform="translate(-0.83 -0.91)"><rect class="cls-1" x="-25.1" y="492.28" width="110.87" height="110.87" transform="translate(-378.4 181.86) rotate(-45)"/></clipPath><clipPath id="clip-path-82" transform="translate(-0.83 -0.91)"><rect class="cls-1" x="27" y="546" width="6" height="11"/></clipPath><clipPath id="clip-path-85" transform="translate(-0.83 -0.91)"><rect class="cls-1" x="21" y="545" width="11" height="6"/></clipPath><clipPath id="clip-path-88" transform="translate(-0.83 -0.91)"><rect class="cls-1" x="34" y="541" width="12" height="18"/></clipPath><clipPath id="clip-path-91" transform="translate(-0.83 -0.91)"><rect class="cls-1" x="32" y="547" width="5" height="5"/></clipPath><clipPath id="clip-path-94" transform="translate(-0.83 -0.91)"><rect class="cls-1" x="32" y="549" width="6" height="7"/></clipPath><clipPath id="clip-path-97" transform="translate(-0.83 -0.91)"><rect class="cls-1" x="32" y="553" width="8" height="9"/></clipPath><clipPath id="clip-path-100" transform="translate(-0.83 -0.91)"><rect class="cls-1" x="19" y="532" width="18" height="12"/></clipPath><clipPath id="clip-path-103" transform="translate(-0.83 -0.91)"><rect class="cls-1" x="27" y="542" width="4" height="4"/></clipPath><clipPath id="clip-path-106" transform="translate(-0.83 -0.91)"><rect class="cls-1" x="22" y="540" width="7" height="6"/></clipPath><clipPath id="clip-path-109" transform="translate(-0.83 -0.91)"><rect class="cls-1" x="16" y="538" width="9" height="8"/></clipPath><clipPath id="clip-path-112" transform="translate(-0.83 -0.91)"><rect class="cls-1" x="41" y="548" width="29" height="30"/></clipPath><clipPath id="clip-path-115" transform="translate(-0.83 -0.91)"><rect class="cls-1" y="508" width="30" height="29"/></clipPath><clipPath id="clip-path-118" transform="translate(-0.83 -0.91)"><rect class="cls-1" x="718" y="21" width="9" height="8"/></clipPath><clipPath id="clip-path-119" transform="translate(-0.83 -0.91)"><rect class="cls-1" x="661.42" y="-24.91" width="110.87" height="110.87" transform="translate(188.39 515.85) rotate(-45)"/></clipPath><clipPath id="clip-path-121" transform="translate(-0.83 -0.91)"><rect class="cls-1" x="715" y="22" width="5" height="10"/></clipPath><clipPath id="clip-path-124" transform="translate(-0.83 -0.91)"><rect class="cls-1" x="715" y="27" width="11" height="6"/></clipPath><clipPath id="clip-path-127" transform="translate(-0.83 -0.91)"><rect class="cls-1" x="701" y="19" width="12" height="18"/></clipPath><clipPath id="clip-path-130" transform="translate(-0.83 -0.91)"><rect class="cls-1" x="711" y="27" width="4" height="4"/></clipPath><clipPath id="clip-path-133" transform="translate(-0.83 -0.91)"><rect class="cls-1" x="709" y="22" width="6" height="7"/></clipPath><clipPath id="clip-path-136" transform="translate(-0.83 -0.91)"><rect class="cls-1" x="707" y="16" width="8" height="9"/></clipPath><clipPath id="clip-path-139" transform="translate(-0.83 -0.91)"><rect class="cls-1" x="710" y="35" width="18" height="11"/></clipPath><clipPath id="clip-path-142" transform="translate(-0.83 -0.91)"><rect class="cls-1" x="717" y="32" width="4" height="5"/></clipPath><clipPath id="clip-path-145" transform="translate(-0.83 -0.91)"><rect class="cls-1" x="718" y="32" width="7" height="6"/></clipPath><clipPath id="clip-path-148" transform="translate(-0.83 -0.91)"><rect class="cls-1" x="722" y="33" width="9" height="7"/></clipPath><clipPath id="clip-path-151" transform="translate(-0.83 -0.91)"><rect class="cls-1" x="677" y="1" width="29" height="29"/></clipPath><clipPath id="clip-path-154" transform="translate(-0.83 -0.91)"><rect class="cls-1" x="717" y="41" width="30" height="29"/></clipPath></defs><g class="cls-2"><g class="cls-3"><g class="cls-3"><path class="cls-4" d="M26.55,21.14A3.58,3.58,0,0,0,25,23.52c-.37-1-1.3-2-3.53-2.12h0c.12,2.23,1.17,3.16,2.13,3.54a3.54,3.54,0,0,0-2.38,1.57s2.23-1.35,3.38.2A2.34,2.34,0,0,0,28.05,28h0a2.34,2.34,0,0,0-1.29-3.5c-1.55-1.14-.21-3.38-.21-3.38" transform="translate(-0.83 -0.91)"/></g></g></g><g class="cls-5"><g class="cls-3"><g class="cls-3"><path class="cls-4" d="M23.82,27.55a2.25,2.25,0,0,0-.31.16,1.37,1.37,0,0,0-.26.2,1.31,1.31,0,0,0-.2.21.86.86,0,0,0-.11.24.61.61,0,0,0,0,.23,1.1,1.1,0,0,0,0,.25L23,29v0h0s0,0,0,0h0v0l0,.09c0,.05,0,.05.05.08l.06.08a.37.37,0,0,0,.13.12l.16.09.21.07.25,0a1.24,1.24,0,0,0,.27,0h.59l.3,0h-.09a4.64,4.64,0,0,1,.48-.07l.47-.05c.32,0,.64,0,.95,0a8.74,8.74,0,0,1,1.89.29,7.75,7.75,0,0,1,.91.35,4.63,4.63,0,0,1,.43.24,3.6,3.6,0,0,1,.4.28,2.24,2.24,0,0,1,.36.33,2.83,2.83,0,0,1,.32.37,2.44,2.44,0,0,1,.24.41,1.82,1.82,0,0,1,.17.44l-.36-.28a3.6,3.6,0,0,0-.37-.22l-.38-.19c-.12-.06-.25-.1-.38-.15l-.39-.12-.4-.09-.4-.06-.41,0c-.26,0-.54,0-.81-.05s-.55,0-.83,0L26,31l-.42,0-.39,0-.09,0a6.56,6.56,0,0,1-.76,0L23.94,31a2.6,2.6,0,0,1-.4-.1,3.25,3.25,0,0,1-.4-.15,2,2,0,0,1-.4-.24,1.94,1.94,0,0,1-.36-.34,1.5,1.5,0,0,1-.26-.44,2,2,0,0,1-.07-.23c0-.08,0-.19,0-.25v-.12s0,0,0,0V29l0-.22a1.7,1.7,0,0,1,.11-.43,1.33,1.33,0,0,1,.24-.39,1.26,1.26,0,0,1,.33-.28,1.92,1.92,0,0,1,.37-.15,1.69,1.69,0,0,1,.74,0" transform="translate(-0.83 -0.91)"/></g></g></g><g class="cls-6"><g class="cls-3"><g class="cls-3"><path class="cls-4" d="M27.59,23.78a1.51,1.51,0,0,1,0-.73,1.37,1.37,0,0,1,.15-.38,1.23,1.23,0,0,1,.28-.33,1.38,1.38,0,0,1,.39-.23,1.62,1.62,0,0,1,.43-.12h.43a1.2,1.2,0,0,1,.24,0,1.09,1.09,0,0,1,.24.07,1.56,1.56,0,0,1,.43.25,2,2,0,0,1,.35.36,2.3,2.3,0,0,1,.23.4c.06.13.11.27.16.4a3.24,3.24,0,0,1,.09.4c0,.14,0,.26.06.39a6.52,6.52,0,0,1,0,.76v.1l0,.39L31,26c0,.27,0,.55-.05.83v.82c0,.28,0,.55.06.82a2.85,2.85,0,0,0,0,.41c0,.13,0,.27.07.39a2.59,2.59,0,0,0,.09.4c0,.13.07.26.12.39a3.12,3.12,0,0,0,.15.39,3.26,3.26,0,0,0,.18.38,2.74,2.74,0,0,0,.23.36c.08.13.18.24.27.37a3.83,3.83,0,0,1-.43-.17c-.15-.07-.28-.16-.42-.24a2.83,2.83,0,0,1-.37-.32,3.45,3.45,0,0,1-.61-.77,3.55,3.55,0,0,1-.23-.43,5,5,0,0,1-.35-.91,7.58,7.58,0,0,1-.29-1.88c0-.32,0-.64,0-.95s0-.31,0-.47,0-.31.07-.49V25l0-.31v-.59l0-.27a1.69,1.69,0,0,0-.05-.24,1,1,0,0,0-.07-.21.61.61,0,0,0-.09-.16.76.76,0,0,0-.11-.14L29.2,23a.28.28,0,0,0-.08-.05L29,23h0l-.15,0a1.05,1.05,0,0,0-.24,0,.67.67,0,0,0-.24,0,.61.61,0,0,0-.23.11,1.24,1.24,0,0,0-.22.19,2.48,2.48,0,0,0-.19.26,3,3,0,0,0-.16.31" transform="translate(-0.83 -0.91)"/></g></g></g><g class="cls-7"><g class="cls-3"><g class="cls-3"><path class="cls-4" d="M34.09,38.16a.68.68,0,0,0,.21.23,1.09,1.09,0,0,0,.3.18,1,1,0,0,0,.41.07.39.39,0,0,0,.15-.06,2,2,0,0,0,.18-.15.75.75,0,0,0,.2-.42.9.9,0,0,0,0-.23l0,0,0-.07-.08-.13a1.31,1.31,0,0,0-.45-.43,2.1,2.1,0,0,0-1.4-.1c-.66.12-1.43.26-2.19.45s-1.55.4-2.32.66-1.56.57-2.32.9a18.51,18.51,0,0,0-2.17,1.13,10,10,0,0,0-1.81,1.36,4.2,4.2,0,0,0-.63.74,2.14,2.14,0,0,0-.32.7,1,1,0,0,0,0,.58,1.78,1.78,0,0,0,.3.6.91.91,0,0,0,.34.29,1,1,0,0,0,.5,0,.52.52,0,0,0,.33-.2.77.77,0,0,0,.1-.18c0-.09.05-.16.07-.24a1.06,1.06,0,0,0-.07-.75l-.15-.18-.05,0a.64.64,0,0,1,.33.08,1.26,1.26,0,0,1,.62.85s0,.11.05.17V44s0,.05,0,.09a1.27,1.27,0,0,1-.05.46,1.54,1.54,0,0,1-.65.88A2,2,0,0,1,21,45.32a3.63,3.63,0,0,1-.48-.48,3.42,3.42,0,0,1-.38-.58,2.86,2.86,0,0,1-.26-1.56,3.7,3.7,0,0,1,.48-1.46,6.14,6.14,0,0,1,.84-1.16,11,11,0,0,1,2.13-1.79A17.35,17.35,0,0,1,25.77,37a24.85,24.85,0,0,1,2.56-1,25.11,25.11,0,0,1,2.56-.63c.42-.08.83-.14,1.24-.2l.61-.07.29,0,.34,0a4.43,4.43,0,0,1,1.38.2A2.77,2.77,0,0,1,36,36a2.47,2.47,0,0,1,.58,1.12,2.93,2.93,0,0,1,0,.29s0,.09,0,.14v.18a1.64,1.64,0,0,1-.13.59,1.52,1.52,0,0,1-.69.74,1.27,1.27,0,0,1-.41.15.85.85,0,0,1-.45,0,1.3,1.3,0,0,1-.51-.35,1.6,1.6,0,0,1-.24-.36,1.37,1.37,0,0,1-.07-.24v-.09" transform="translate(-0.83 -0.91)"/></g></g></g><g class="cls-8"><g class="cls-3"><g class="cls-3"><path class="cls-4" d="M30.18,35.7l-.09.07-.1.08-.15.09a2.27,2.27,0,0,1-.48.15,2,2,0,0,1-.68-.05,2.36,2.36,0,0,1-1.35-1l-.06-.11,0-.06v0l0-.07-.07-.2a1.55,1.55,0,0,1-.07-.61,1.74,1.74,0,0,1,.45-1.09,1.72,1.72,0,0,1,.48-.37l.13-.07,0,0h0l.06,0h.07l.11,0h.16l.19,0a.81.81,0,0,1,.16,0,1.08,1.08,0,0,1,.31.07.77.77,0,0,1,.28.12l.13.07.11.1.11.1.09.11a1,1,0,0,1,.15.24l.05.12,0,0h0c0,.09,0,0,0,0h0v0l0,.09s0,.1,0,.15v.16l0,.14a1.13,1.13,0,0,1-.08.24,1.05,1.05,0,0,1-.27.38,1,1,0,0,1-.71.27.77.77,0,0,1-.52-.22.63.63,0,0,1-.16-.28.45.45,0,0,1,0-.11l.07.07a.82.82,0,0,0,.23.13.61.61,0,0,0,.33,0,.57.57,0,0,0,.28-.27.41.41,0,0,0,.05-.19.28.28,0,0,0,0-.09v0l0,0v0l-.06-.13h0s0-.05,0,0l0,0,0,0a.27.27,0,0,0-.08-.07l0,0,0,0,0,0,0,0-.1,0h-.2l-.1,0h0l0,0a1,1,0,0,0-.19.15.82.82,0,0,0-.2.43s0,.07,0,.09v0a0,0,0,0,0,0,.06l.05.2h0c0-.09,0,0,0,0h0v0l0,.07a2.13,2.13,0,0,0,.73.9,1.4,1.4,0,0,0,.44.22,2.11,2.11,0,0,0,.4.07h.4" transform="translate(-0.83 -0.91)"/></g></g></g><g class="cls-9"><g class="cls-3"><g class="cls-3"><path class="cls-4" d="M28.68,36a2.11,2.11,0,0,1-.3.34,3.6,3.6,0,0,1-1,.63,3.31,3.31,0,0,1-.77.24,3.45,3.45,0,0,1-.93.07,3.32,3.32,0,0,1-1-.21,3.61,3.61,0,0,1-1-.56,3.73,3.73,0,0,1-.41-.39c-.09-.1-.15-.18-.22-.27s-.12-.19-.17-.29a2.39,2.39,0,0,1-.25-1.38,1.88,1.88,0,0,1,.21-.67,2.09,2.09,0,0,1,.37-.5,2,2,0,0,1,.86-.51,2.2,2.2,0,0,1,.73-.09,2.23,2.23,0,0,1,.53.09,2.25,2.25,0,0,1,.43.18l-.09.08-.25.21c-.1.09-.22.19-.33.31a2.31,2.31,0,0,0-.31.39,1,1,0,0,0-.15.39.29.29,0,0,0,.07.23l.13.17.05.07.06,0a1.53,1.53,0,0,0,.18.18,3.47,3.47,0,0,0,.95.59,5,5,0,0,0,.58.21l.6.16c.38.09.74.15,1,.2l.43.08" transform="translate(-0.83 -0.91)"/></g></g></g><g class="cls-10"><g class="cls-3"><g class="cls-3"><path class="cls-4" d="M24.71,37.87a1,1,0,0,1-.1.13c-.07.07-.17.2-.31.33a4.61,4.61,0,0,1-.55.42,4.45,4.45,0,0,1-.79.44,5.07,5.07,0,0,1-1,.33,4.79,4.79,0,0,1-1.28.1,4.55,4.55,0,0,1-1.41-.29,5.08,5.08,0,0,1-1.36-.76l-.29-.26A2.47,2.47,0,0,1,17.3,38a4.22,4.22,0,0,1-.29-.37c-.08-.13-.16-.25-.23-.39a3,3,0,0,1-.07-2.8,3.17,3.17,0,0,1,.51-.69,2.82,2.82,0,0,1,1.17-.7,2.92,2.92,0,0,1,1-.12,2.69,2.69,0,0,1,.72.12,4.16,4.16,0,0,1,.44.17l.15.08-.13.11-.33.28a5.86,5.86,0,0,0-.45.43,2.7,2.7,0,0,0-.43.53,1.13,1.13,0,0,0-.2.53.47.47,0,0,0,.08.32c.07.07.13.15.2.23l.06.09.07.08c.07.08.18.16.26.25a4.92,4.92,0,0,0,1.3.8c.25.11.52.2.79.29s.54.15.81.21c.53.12,1,.21,1.38.28l.59.11" transform="translate(-0.83 -0.91)"/></g></g></g><g class="cls-11"><g class="cls-3"><g class="cls-3"><path class="cls-4" d="M38.15,34.13h.08l.25.07a1.72,1.72,0,0,1,.35.23,1.35,1.35,0,0,1,.35.52.92.92,0,0,1,0,.44,1.5,1.5,0,0,1-.15.42,1.51,1.51,0,0,1-1.34.81h-.32a1.37,1.37,0,0,1-.28,0A2.5,2.5,0,0,1,36,36a2.71,2.71,0,0,1-.76-1.2A4.11,4.11,0,0,1,35,33.4a19,19,0,0,1,.31-2.47A25.2,25.2,0,0,1,36,28.37a20.36,20.36,0,0,1,1-2.56,17.29,17.29,0,0,1,1.32-2.43,11,11,0,0,1,1.79-2.13,5.73,5.73,0,0,1,1.16-.84,3.94,3.94,0,0,1,1.46-.49,2.86,2.86,0,0,1,1.56.27,3.42,3.42,0,0,1,.58.38,4.25,4.25,0,0,1,.48.47,2.16,2.16,0,0,1,.5,1.34,2.19,2.19,0,0,1-.35,1.14,1.59,1.59,0,0,1-.88.65,1.9,1.9,0,0,1-.46,0h-.18l-.18-.05a1.23,1.23,0,0,1-.84-.62,1,1,0,0,1-.09-.34l.06.06a1,1,0,0,0,.18.14,1,1,0,0,0,.74.07.53.53,0,0,0,.12,0l.06,0,.06,0a.56.56,0,0,0,.19-.09.58.58,0,0,0,.19-.33,1.06,1.06,0,0,0,0-.5.86.86,0,0,0-.29-.34,2.19,2.19,0,0,0-.61-.31,1,1,0,0,0-.58,0,2.66,2.66,0,0,0-.7.32,5.91,5.91,0,0,0-.74.64,10,10,0,0,0-1.36,1.81A20.16,20.16,0,0,0,39,26.74c-.33.76-.64,1.53-.89,2.31s-.48,1.56-.67,2.33-.33,1.53-.45,2.18a2,2,0,0,0,.11,1.4,1.2,1.2,0,0,0,.42.45.67.67,0,0,0,.14.09l.06,0,0,0a.55.55,0,0,0,.22,0,.69.69,0,0,0,.43-.2,2.09,2.09,0,0,0,.14-.17.38.38,0,0,0,.06-.16.79.79,0,0,0-.07-.4,1.49,1.49,0,0,0-.17-.31.71.71,0,0,0-.23-.2" transform="translate(-0.83 -0.91)"/></g></g></g><g class="cls-12"><g class="cls-3"><g class="cls-3"><path class="cls-4" d="M35.69,30.21a.82.82,0,0,1,0-.1.62.62,0,0,1,0-.13.81.81,0,0,1,0-.16,1.68,1.68,0,0,0-.07-.41,1.59,1.59,0,0,0-.21-.44,2.14,2.14,0,0,0-.91-.72l-.1,0h0l0,0h0l-.2,0s0,0-.06,0H34a.82.82,0,0,0-.43.2.67.67,0,0,0-.14.19l0,0h0s0,.06,0-.05l0,.08,0,.1v0h0v.05a.17.17,0,0,0,0,.1.16.16,0,0,0,0,.09v.05l0,.05,0,0,0,0,.07.08.05,0h0l.09,0h.18a.41.41,0,0,0,.19-.05.57.57,0,0,0,.27-.28.53.53,0,0,0,0-.33.5.5,0,0,0-.13-.23l-.06-.08.1,0a.69.69,0,0,1,.28.16.84.84,0,0,1,.23.52,1.1,1.1,0,0,1-.27.72,1.23,1.23,0,0,1-.39.27,1,1,0,0,1-.24.07l-.14,0h-.3l-.1,0H33.3l0,0h0l0,0-.13-.05a1.2,1.2,0,0,1-.24-.15l-.11-.1-.1-.1-.09-.12a.57.57,0,0,1-.08-.13.79.79,0,0,1-.12-.28.94.94,0,0,1-.07-.3c0-.05,0-.1,0-.16s0-.13,0-.19v-.09a.32.32,0,0,0,0-.08l0-.1,0,0v0h0c0-.11,0,0,0-.05h0v0l.07-.13a1.92,1.92,0,0,1,.37-.48,1.74,1.74,0,0,1,1.09-.45,1.62,1.62,0,0,1,.62.07l.19.07.07,0h0l.16.09a2.43,2.43,0,0,1,1,1.35,1.82,1.82,0,0,1,0,.68,1.6,1.6,0,0,1-.15.48l-.09.16-.07.1-.07.08" transform="translate(-0.83 -0.91)"/></g></g></g><g class="cls-13"><g class="cls-3"><g class="cls-3"><path class="cls-4" d="M36,28.72s0-.15-.08-.43-.12-.62-.21-1c0-.19-.1-.39-.15-.59s-.13-.4-.21-.58a4,4,0,0,0-.59-.95L34.61,25l-.06,0-.06-.05-.18-.14a.33.33,0,0,0-.23-.06.91.91,0,0,0-.39.15,2.31,2.31,0,0,0-.39.31c-.12.11-.21.23-.31.33s-.16.18-.2.24l-.08.09a1.65,1.65,0,0,1-.19-.42,3,3,0,0,1-.09-.53,2.47,2.47,0,0,1,.09-.73,2.06,2.06,0,0,1,.51-.86,2,2,0,0,1,.51-.37,1.83,1.83,0,0,1,.66-.21,2.35,2.35,0,0,1,1.39.25,2.61,2.61,0,0,1,.28.17,1.65,1.65,0,0,1,.27.21,4,4,0,0,1,.4.42,3.61,3.61,0,0,1,.56,1,3.54,3.54,0,0,1,.2,1,3.14,3.14,0,0,1-.07.93,3.23,3.23,0,0,1-.24.76,3.45,3.45,0,0,1-.63,1,3.82,3.82,0,0,1-.33.3" transform="translate(-0.83 -0.91)"/></g></g></g><g class="cls-14"><g class="cls-3"><g class="cls-3"><path class="cls-4" d="M37.85,24.74l-.11-.58c-.06-.36-.16-.85-.28-1.38-.06-.27-.13-.54-.21-.82s-.18-.53-.29-.79a5,5,0,0,0-.8-1.29,3.13,3.13,0,0,0-.25-.26l-.08-.07-.08-.07c-.09-.06-.16-.13-.24-.19a.44.44,0,0,0-.32-.09,1.2,1.2,0,0,0-.53.21,3.06,3.06,0,0,0-.53.42c-.16.15-.3.32-.42.45l-.29.34a.71.71,0,0,1-.11.12,1,1,0,0,1-.08-.14c0-.1-.11-.25-.17-.44a3.83,3.83,0,0,1-.12-.72,3.18,3.18,0,0,1,.12-1,2.87,2.87,0,0,1,.7-1.17,2.81,2.81,0,0,1,.69-.51,3,3,0,0,1,.91-.28,3.2,3.2,0,0,1,1.89.35,1.9,1.9,0,0,1,.39.23,4.22,4.22,0,0,1,.37.29l.29.27.25.3a5.06,5.06,0,0,1,.77,1.35,5.28,5.28,0,0,1,.29,1.42A5.1,5.1,0,0,1,39.5,22,4.46,4.46,0,0,1,39.17,23a4.83,4.83,0,0,1-.43.79,4.62,4.62,0,0,1-.43.54,3.86,3.86,0,0,1-.33.31l-.13.1" transform="translate(-0.83 -0.91)"/></g></g></g><g class="cls-15"><g class="cls-3"><g class="cls-3"><path class="cls-4" d="M26.66,45.09a1.29,1.29,0,0,1-.68.28,1.39,1.39,0,0,1-.77-.15,1.27,1.27,0,0,1-.33-.24,2.38,2.38,0,0,1-.26-.31,1.76,1.76,0,0,1-.26-.81,1.93,1.93,0,0,1,.63-1.6l.09-.08,0,0,0,0h.05l.15-.11a2,2,0,0,1,.21-.11l.21-.09a2.47,2.47,0,0,1,.9-.16,2.62,2.62,0,0,1,1.72.69,2.82,2.82,0,0,1,.33.36l0,.05h0l0,0v0l.13.19,0,0,.12.24c0,.08.05.15.08.22a3.88,3.88,0,0,1,.14.45,3.43,3.43,0,0,1-.17,1.9,3.52,3.52,0,0,1-.5.86,3.93,3.93,0,0,1-.73.68l-.08,0L25,49.11l-2.8,1.63-2.82,1.61-2.82,1.59L13.76,55.5l-2.83,1.56L8.14,58.61,7.48,59l-.09,0h0s0,0,0,0l0,0-.18.11-.25.17a7.11,7.11,0,0,0-1,.82,4.74,4.74,0,0,0-1.2,2,3.2,3.2,0,0,0,0,2,3,3,0,0,0,1.31,1.51,5,5,0,0,0,2.31.63l.33,0h.13s-.17,0-.08,0H8.9a5.3,5.3,0,0,0,.6-.12,5.51,5.51,0,0,0,1.17-.44,4.75,4.75,0,0,0,1.84-1.6,4.64,4.64,0,0,0,.87-2.22,1.62,1.62,0,0,0-.26-.85,3.5,3.5,0,0,0-.86-.86l.14.08s0,0,0,0l0,0-.09-.05L12,60.14a2.47,2.47,0,0,0-.47-.11,2.94,2.94,0,0,0-1,0,3.15,3.15,0,0,0-1,.33l-.23.13-.09.06-.09.07a3.3,3.3,0,0,0-.38.37,3,3,0,0,0-.73,2,3.75,3.75,0,0,0,.09.57,3,3,0,0,0,.22.56,3.61,3.61,0,0,0,.33.53c.13.17.27.34.41.5a6.33,6.33,0,0,1-.54-.36,4.33,4.33,0,0,1-.5-.46,3.3,3.3,0,0,1-.69-1.21,3.43,3.43,0,0,1-.11-1.46,4.14,4.14,0,0,1,.47-1.4,3.52,3.52,0,0,1,.42-.64l.13-.16.15-.14a3.4,3.4,0,0,1,.29-.26,5.23,5.23,0,0,1,1.32-.78A4.82,4.82,0,0,1,11.64,58a5.49,5.49,0,0,1,.81,0l.41.07.21,0,.11,0a1.14,1.14,0,0,1,.14.06h0l.11.06A5.7,5.7,0,0,1,15,59.61a4,4,0,0,1,.61,1A4.2,4.2,0,0,1,16,61.72a5.5,5.5,0,0,1-.22,2.14,8.15,8.15,0,0,1-.34.91c-.05.14-.14.31-.2.44l-.09.18-.12.23a7.68,7.68,0,0,1-2.77,2.86,8.56,8.56,0,0,1-1.8.81,9.15,9.15,0,0,1-1,.26l-.28,0H8.32a8.43,8.43,0,0,1-3.91-.92,6.73,6.73,0,0,1-1.74-1.32A6.39,6.39,0,0,1,1.45,65.5a6.69,6.69,0,0,1-.24-4.34A8.4,8.4,0,0,1,3.3,57.61a9.44,9.44,0,0,1,1.5-1.27l.42-.27L5.39,56l.12-.07.09,0,.74-.42c1-.54,1.93-1,2.9-1.54s1.93-1,2.9-1.47,1.95-1,2.92-1.42L18,49.6,21,48.24c1-.44,2-.89,3-1.32s2-.87,3-1.28l-.07,0a2,2,0,0,0,.35-.24,1.88,1.88,0,0,0,.28-.34,1.6,1.6,0,0,0,.23-.89,2,2,0,0,0,0-.24l0-.12a.29.29,0,0,0,0-.09V43.7l0-.09,0-.08v0h0s0,.06,0,0h0v0a1.06,1.06,0,0,0-.12-.2,1.35,1.35,0,0,0-.8-.49,1.51,1.51,0,0,0-.52,0l-.24.06-.16.07h0l0,0-.06,0a1.2,1.2,0,0,0-.55.88,1.35,1.35,0,0,0,.05.57,1.36,1.36,0,0,0,.34.52,1.22,1.22,0,0,0,1.27.14" transform="translate(-0.83 -0.91)"/></g></g></g><g class="cls-16"><g class="cls-3"><g class="cls-3"><path class="cls-4" d="M45.14,26.6A1.18,1.18,0,0,0,45,25.34a1.51,1.51,0,0,0-.23-.21,1.46,1.46,0,0,0-.28-.13,1.56,1.56,0,0,0-.57-.06,1.2,1.2,0,0,0-.89.56l0,.06v0h0v0h0l-.07.17a1.68,1.68,0,0,0-.06.24,1.45,1.45,0,0,0,0,.51,1.34,1.34,0,0,0,.5.81,2,2,0,0,0,.19.12h0l0,0h0l.07,0,.09,0,0,0h0l.1,0,.11,0a.66.66,0,0,0,.24,0,1.6,1.6,0,0,0,.89-.23,1.5,1.5,0,0,0,.34-.27,1.78,1.78,0,0,0,.25-.36l-.05.08c.42-1,.85-2,1.29-3s.88-2,1.32-3l1.35-2.95L51,15c.47-1,1-1.95,1.43-2.92s1-1.93,1.46-2.9,1-1.93,1.54-2.9l.42-.74.06-.1L56,5.34l.1-.17c.07-.12.18-.29.27-.42a10.7,10.7,0,0,1,1.27-1.51,8.49,8.49,0,0,1,3.55-2.08,6.69,6.69,0,0,1,4.34.24,6.56,6.56,0,0,1,1.89,1.21,6.46,6.46,0,0,1,1.32,1.74,8.33,8.33,0,0,1,.92,3.91c0,.16,0,.32,0,.48V9.1a2.26,2.26,0,0,1,0,.29,7.25,7.25,0,0,1-.26,1,8.56,8.56,0,0,1-.81,1.8,7.73,7.73,0,0,1-2.85,2.77l-.23.12-.19.09-.44.2a7.47,7.47,0,0,1-.91.33,5.32,5.32,0,0,1-2.14.22,3.93,3.93,0,0,1-1.14-.3,4.31,4.31,0,0,1-1-.61,5.7,5.7,0,0,1-1.27-1.57l-.06-.11v0c0-.08,0-.1,0-.15l0-.1c0-.07,0-.14,0-.22s0-.27-.07-.4a5.54,5.54,0,0,1,0-.81A4.81,4.81,0,0,1,58.39,10a5.2,5.2,0,0,1,.79-1.33l.25-.29.15-.14a1.92,1.92,0,0,1,.15-.14,5,5,0,0,1,.64-.42,4.17,4.17,0,0,1,1.41-.46,3.22,3.22,0,0,1,1.45.11,3,3,0,0,1,1.21.69,4.24,4.24,0,0,1,.46.49,4.72,4.72,0,0,1,.36.55,4.63,4.63,0,0,0-.49-.41,3,3,0,0,0-.54-.33,3,3,0,0,0-.56-.22A2.25,2.25,0,0,0,63.11,8a3,3,0,0,0-2,.73,4.31,4.31,0,0,0-.37.37l-.07.09-.06.1a2.36,2.36,0,0,0-.13.23,3.34,3.34,0,0,0-.33,1,2.93,2.93,0,0,0,0,1,2.47,2.47,0,0,0,.11.47,1.8,1.8,0,0,0,.08.21l0,.1,0,0s0,0,0,0l-.08-.13a3.68,3.68,0,0,0,.86.86,1.55,1.55,0,0,0,.86.25,4.51,4.51,0,0,0,2.21-.87,4.64,4.64,0,0,0,1.6-1.83,6,6,0,0,0,.45-1.18,4.48,4.48,0,0,0,.11-.6.53.53,0,0,0,0-.12c0-.09,0,.11,0,.08V8.68c0-.11,0-.22,0-.33A5,5,0,0,0,65.71,6a3,3,0,0,0-1.5-1.31,3.2,3.2,0,0,0-2,0,4.62,4.62,0,0,0-2,1.2,6.92,6.92,0,0,0-.82,1l-.17.26-.14.21h0v0l-.05.08-.38.66-1.56,2.8-1.55,2.83L54,16.54,52.4,19.36l-1.61,2.81L49.16,25c-.55.93-1.1,1.86-1.66,2.79l0,.08a3.33,3.33,0,0,1-1.53,1.22,3.35,3.35,0,0,1-1.9.17,2.32,2.32,0,0,1-.45-.13L43.34,29l-.23-.12-.06,0,0,0-.15-.1h0l0,0h0l0,0a2.82,2.82,0,0,1-.36-.33,2.59,2.59,0,0,1-.68-1.73,2.45,2.45,0,0,1,.15-.89,2,2,0,0,1,.09-.22l.11-.21.11-.15v0h0v0l0,0,0-.05.07-.08a2,2,0,0,1,1.61-.64,1.85,1.85,0,0,1,.81.27,1.7,1.7,0,0,1,.31.25,1.91,1.91,0,0,1,.24.34,1.46,1.46,0,0,1,.15.76,1.35,1.35,0,0,1-.29.68" transform="translate(-0.83 -0.91)"/></g></g></g><g class="cls-17"><g class="cls-18"><g class="cls-18"><path class="cls-4" d="M720.64,557.11a3.58,3.58,0,0,0,1.57-2.39c.38,1,1.31,2,3.54,2.13h0c-.12-2.23-1.16-3.16-2.12-3.54a3.58,3.58,0,0,0,2.38-1.57s-2.24,1.34-3.38-.2a2.34,2.34,0,0,0-3.49-1.3h0a2.34,2.34,0,0,0,1.3,3.5c1.55,1.14.2,3.38.2,3.38" transform="translate(-0.83 -0.91)"/></g></g></g><g class="cls-19"><g class="cls-18"><g class="cls-18"><path class="cls-4" d="M723.38,550.69l.31-.15a2.56,2.56,0,0,0,.26-.2.79.79,0,0,0,.19-.22.54.54,0,0,0,.11-.23.66.66,0,0,0,0-.23,1.07,1.07,0,0,0,0-.25l0-.12v0h0v0h0v0l0-.08a.28.28,0,0,0-.05-.08.56.56,0,0,0,0-.08.53.53,0,0,0-.14-.12.61.61,0,0,0-.16-.09l-.21-.07a1,1,0,0,0-.24,0l-.28,0h-.58l-.31,0h.1l-.49.07-.47,0c-.31,0-.63,0-.95,0a8.07,8.07,0,0,1-1.88-.28,7.13,7.13,0,0,1-.91-.35,3.62,3.62,0,0,1-.43-.24,3.45,3.45,0,0,1-.77-.61,2.83,2.83,0,0,1-.32-.37,4.36,4.36,0,0,1-.24-.41,3.34,3.34,0,0,1-.17-.44l.36.27a3,3,0,0,0,.38.23l.37.19a3,3,0,0,0,.39.14,2.52,2.52,0,0,0,.39.12l.39.09.4.07a2.85,2.85,0,0,0,.41,0,7.36,7.36,0,0,0,.82.06h.83l.82,0,.42,0,.39,0h.1a6.52,6.52,0,0,1,.76,0l.39.06a1.86,1.86,0,0,1,.39.1,2.86,2.86,0,0,1,.41.15,2.3,2.3,0,0,1,.4.23,2.38,2.38,0,0,1,.36.35,1.73,1.73,0,0,1,.25.44,1,1,0,0,1,.07.23,1.29,1.29,0,0,1,0,.25v.11s0,0,0,0v.28a1.8,1.8,0,0,1-.12.44,1.54,1.54,0,0,1-.23.39,1.4,1.4,0,0,1-.33.27,1.2,1.2,0,0,1-.38.15,1.51,1.51,0,0,1-.73,0" transform="translate(-0.83 -0.91)"/></g></g></g><g class="cls-20"><g class="cls-18"><g class="cls-18"><path class="cls-4" d="M719.61,554.46a1.85,1.85,0,0,1,0,.74,1.22,1.22,0,0,1-.16.37,1.27,1.27,0,0,1-.27.34,1.54,1.54,0,0,1-.39.23,1.36,1.36,0,0,1-.44.11l-.21,0h-.21l-.25,0-.23-.07a1.73,1.73,0,0,1-.44-.25,2.31,2.31,0,0,1-.34-.36,2.44,2.44,0,0,1-.24-.41,2.74,2.74,0,0,1-.15-.4,2.6,2.6,0,0,1-.1-.4c0-.13,0-.25-.06-.39a6.27,6.27,0,0,1,0-.75h0l0-.1,0-.39,0-.42c0-.27,0-.55,0-.83s0-.55,0-.83,0-.54-.05-.81,0-.27,0-.41,0-.27-.07-.4,0-.26-.08-.4l-.12-.39c-.05-.12-.09-.26-.15-.38l-.18-.38c-.08-.12-.14-.25-.23-.37s-.19-.23-.28-.36a2.35,2.35,0,0,1,.44.17,2.91,2.91,0,0,1,.41.24,4.22,4.22,0,0,1,.7.68,4.85,4.85,0,0,1,.28.4,3.75,3.75,0,0,1,.24.44,6.6,6.6,0,0,1,.35.91,8.65,8.65,0,0,1,.29,1.88c0,.32,0,.63,0,.95,0,.15,0,.31,0,.47a4.81,4.81,0,0,1-.07.49v-.1l0,.3v.3a2.71,2.71,0,0,0,0,.29,1.12,1.12,0,0,0,0,.27,1.87,1.87,0,0,0,0,.25c0,.08,0,.14.07.21a1.14,1.14,0,0,0,.09.16.75.75,0,0,0,.12.14l.08.05a.28.28,0,0,0,.08,0l.09,0h0l.15,0,.24,0a1,1,0,0,0,.24,0,.64.64,0,0,0,.24-.11,1.24,1.24,0,0,0,.21-.19,1.89,1.89,0,0,0,.2-.27c.06-.09.1-.2.16-.31" transform="translate(-0.83 -0.91)"/></g></g></g><g class="cls-21"><g class="cls-18"><g class="cls-18"><path class="cls-4" d="M713.1,540.08a.81.81,0,0,0-.21-.23,1,1,0,0,0-.3-.17.81.81,0,0,0-.41-.07.3.3,0,0,0-.14.06,1.24,1.24,0,0,0-.18.14.69.69,0,0,0-.2.43.55.55,0,0,0,0,.22l0,0,0,.06.09.14a1.2,1.2,0,0,0,.45.42,2,2,0,0,0,1.39.11c.66-.12,1.44-.26,2.2-.45s1.54-.4,2.32-.67,1.55-.56,2.32-.89a21,21,0,0,0,2.16-1.13,10.43,10.43,0,0,0,1.81-1.36,5.91,5.91,0,0,0,.64-.74,2.37,2.37,0,0,0,.32-.7,1,1,0,0,0,0-.58,2.19,2.19,0,0,0-.31-.61.89.89,0,0,0-.34-.28,1,1,0,0,0-.49,0,.65.65,0,0,0-.34.2.56.56,0,0,0-.09.19c0,.09-.05.16-.07.24a1,1,0,0,0,.07.74,1,1,0,0,0,.14.18l.06.06a.94.94,0,0,1-.33-.09,1.24,1.24,0,0,1-.63-.84.85.85,0,0,1,0-.17l0-.1s0-.05,0-.09a1.9,1.9,0,0,1,0-.46,1.59,1.59,0,0,1,.65-.88,2.2,2.2,0,0,1,1.15-.35,2.16,2.16,0,0,1,1.33.5,3.63,3.63,0,0,1,.48.48,4.12,4.12,0,0,1,.37.58,2.86,2.86,0,0,1,.27,1.56,4.05,4.05,0,0,1-.48,1.46,6.19,6.19,0,0,1-.85,1.16,11.25,11.25,0,0,1-2.12,1.79,19.22,19.22,0,0,1-2.44,1.33,22.67,22.67,0,0,1-2.56,1,20.32,20.32,0,0,1-2.56.63l-1.23.21-.62.07-.29,0-.33,0a4.39,4.39,0,0,1-1.38-.2,2.9,2.9,0,0,1-1.2-.76,2.63,2.63,0,0,1-.59-1.13,2.7,2.7,0,0,1,0-.28.66.66,0,0,1,0-.14v-.18a1.88,1.88,0,0,1,.13-.59,1.56,1.56,0,0,1,.69-.74,1.26,1.26,0,0,1,.42-.16.92.92,0,0,1,.44,0,1.35,1.35,0,0,1,.52.35,1.72,1.72,0,0,1,.23.35,1.71,1.71,0,0,1,.07.25v.08" transform="translate(-0.83 -0.91)"/></g></g></g><g class="cls-22"><g class="cls-18"><g class="cls-18"><path class="cls-4" d="M717,542.54l.08-.06.1-.08.16-.09a1.6,1.6,0,0,1,.48-.15,2,2,0,0,1,.67.05,2.38,2.38,0,0,1,1.36,1l.06.11,0,0,0,0,0,.07.08.2a1.76,1.76,0,0,1,.06.61,1.74,1.74,0,0,1-.45,1.09,1.92,1.92,0,0,1-.48.37l-.13.07h0l-.13,0-.1,0h-.17l-.19,0h-.16a1,1,0,0,1-.3-.07,1.18,1.18,0,0,1-.28-.12l-.13-.07-.11-.1-.11-.1a.87.87,0,0,1-.09-.11.91.91,0,0,1-.16-.24l0-.13,0,0h0c0-.09,0,0,0,0h0v0l0-.09a1,1,0,0,0,0-.16v-.16l0-.13a2.25,2.25,0,0,1,.08-.24,1.39,1.39,0,0,1,.28-.39,1,1,0,0,1,.71-.26.81.81,0,0,1,.52.22.69.69,0,0,1,.16.28.45.45,0,0,1,0,.11l-.07-.08a.89.89,0,0,0-.24-.12.53.53,0,0,0-.33,0,.57.57,0,0,0-.28.27.61.61,0,0,0-.05.18.34.34,0,0,0,0,.1v.06s0,0,0,0l0,.09,0,0h0s0,.05,0,0h0l0,0,.08.07,0,0,0,0,0,0,.05,0,.1,0h.19l.1,0h0l0,0s.05,0,0,0h0l0,0a1.3,1.3,0,0,0,.18-.15.82.82,0,0,0,.2-.43.34.34,0,0,0,0-.09v0a.1.1,0,0,0,0-.07l0-.19v0h0l0,0v0l0-.1a2.14,2.14,0,0,0-.72-.91,1.52,1.52,0,0,0-.45-.21,1.21,1.21,0,0,0-.4-.07h-.16l-.13,0H717" transform="translate(-0.83 -0.91)"/></g></g></g><g class="cls-23"><g class="cls-18"><g class="cls-18"><path class="cls-4" d="M718.51,542.2a2.43,2.43,0,0,1,.3-.33,3.45,3.45,0,0,1,1-.63,3.23,3.23,0,0,1,.76-.24,3.51,3.51,0,0,1,.93-.08,3.56,3.56,0,0,1,1,.21,3.61,3.61,0,0,1,1,.56,4,4,0,0,1,.42.4,2.47,2.47,0,0,1,.21.27,2.61,2.61,0,0,1,.17.28,2.35,2.35,0,0,1,.25,1.39,2,2,0,0,1-.2.66,2.26,2.26,0,0,1-.38.51,2.06,2.06,0,0,1-.86.51,2.2,2.2,0,0,1-.73.09,2.32,2.32,0,0,1-.53-.09,2,2,0,0,1-.42-.18l.09-.08.24-.21c.1-.09.22-.19.33-.31a1.9,1.9,0,0,0,.31-.39.87.87,0,0,0,.15-.39.29.29,0,0,0-.06-.23c0-.06-.09-.12-.14-.17l-.05-.07,0-.06-.19-.18a3.71,3.71,0,0,0-1-.58,5,5,0,0,0-.58-.21l-.59-.16c-.39-.09-.75-.15-1-.2l-.43-.09" transform="translate(-0.83 -0.91)"/></g></g></g><g class="cls-24"><g class="cls-18"><g class="cls-18"><path class="cls-4" d="M722.48,540.38l.11-.13a3.86,3.86,0,0,1,.31-.33,4.62,4.62,0,0,1,.54-.43,5.28,5.28,0,0,1,.79-.43,4.46,4.46,0,0,1,1-.33,4.68,4.68,0,0,1,1.27-.1,4.66,4.66,0,0,1,2.77,1l.3.26a3.63,3.63,0,0,1,.27.28,2.91,2.91,0,0,1,.29.37,3.68,3.68,0,0,1,.24.39,3.2,3.2,0,0,1,.34,1.89,2.93,2.93,0,0,1-.28.91,2.81,2.81,0,0,1-.51.69,2.87,2.87,0,0,1-1.17.7,3.09,3.09,0,0,1-1.73,0c-.19-.06-.34-.13-.44-.17l-.15-.08.13-.11c.09-.06.2-.17.34-.29s.29-.26.45-.42a3.06,3.06,0,0,0,.42-.53,1,1,0,0,0,.2-.53.41.41,0,0,0-.08-.32l-.19-.24-.07-.08-.07-.08a3.13,3.13,0,0,0-.26-.25,4.86,4.86,0,0,0-1.29-.8c-.25-.11-.52-.2-.79-.29l-.82-.21c-.53-.13-1-.21-1.38-.28l-.59-.11" transform="translate(-0.83 -0.91)"/></g></g></g><g class="cls-25"><g class="cls-18"><g class="cls-18"><path class="cls-4" d="M709,544.12H709a.86.86,0,0,1-.25-.06,1.46,1.46,0,0,1-.35-.24,1.2,1.2,0,0,1-.34-.51.76.76,0,0,1,0-.45,1.07,1.07,0,0,1,.15-.41,1.56,1.56,0,0,1,.74-.69,1.88,1.88,0,0,1,.59-.13h.32l.29,0a2.49,2.49,0,0,1,1.12.59,2.68,2.68,0,0,1,.76,1.19,4.18,4.18,0,0,1,.2,1.39,19.2,19.2,0,0,1-.32,2.47,22.8,22.8,0,0,1-.64,2.56,20.89,20.89,0,0,1-1,2.56,16.38,16.38,0,0,1-1.33,2.43,11,11,0,0,1-1.79,2.13,5.46,5.46,0,0,1-1.16.84,3.71,3.71,0,0,1-1.45.48,2.74,2.74,0,0,1-1.56-.26,2.77,2.77,0,0,1-.58-.38,3.17,3.17,0,0,1-.49-.48,2.11,2.11,0,0,1-.5-1.33,2.19,2.19,0,0,1,.35-1.14,1.59,1.59,0,0,1,.88-.65,1.57,1.57,0,0,1,.46-.05h.19l.17,0a1.27,1.27,0,0,1,.85.63,1.68,1.68,0,0,1,.09.33l-.06,0a.78.78,0,0,0-.19-.14,1,1,0,0,0-.73-.08l-.12,0-.06,0-.07,0-.19.1a.52.52,0,0,0-.19.33,1,1,0,0,0,0,.5.89.89,0,0,0,.28.34,2.17,2.17,0,0,0,.61.3,1,1,0,0,0,.58,0,2.42,2.42,0,0,0,.7-.33,4.64,4.64,0,0,0,.75-.63,10.4,10.4,0,0,0,1.35-1.81,18.51,18.51,0,0,0,1.13-2.17c.33-.76.64-1.53.89-2.31s.49-1.57.67-2.33.33-1.53.46-2.19a2.12,2.12,0,0,0-.11-1.39,1.2,1.2,0,0,0-.42-.45l-.14-.09-.07,0,0,0a.62.62,0,0,0-.23,0,.65.65,0,0,0-.42.21.7.7,0,0,0-.14.17.41.41,0,0,0-.07.15.83.83,0,0,0,.07.41,1.19,1.19,0,0,0,.17.3,1.09,1.09,0,0,0,.23.21" transform="translate(-0.83 -0.91)"/></g></g></g><g class="cls-26"><g class="cls-18"><g class="cls-18"><path class="cls-4" d="M711.51,548a.36.36,0,0,0,0,.1.69.69,0,0,1,0,.13.81.81,0,0,1,0,.16,1.61,1.61,0,0,0,.07.4,1.65,1.65,0,0,0,.22.44,2.13,2.13,0,0,0,.9.73l.07,0h0l.2.05h.2a.82.82,0,0,0,.42-.2,1,1,0,0,0,.15-.19l0,0h0l0,.06h0l0-.07,0-.1v0h0v-.06a.34.34,0,0,0,0-.1.36.36,0,0,0,0-.1l0,0,0,0,0-.05,0,0a.27.27,0,0,0-.07-.08l0-.05s.07,0,0,0h0l0,0-.09,0h0l0,0h-.14a.41.41,0,0,0-.19,0,.57.57,0,0,0-.27.28.61.61,0,0,0,0,.33.7.7,0,0,0,.13.23l.07.08-.11,0a.74.74,0,0,1-.28-.17.76.76,0,0,1-.22-.51,1,1,0,0,1,.27-.72,1.19,1.19,0,0,1,.38-.27l.24-.08.14,0h.16l.15,0,.09,0h.06l.05,0h0l0,0,.12,0a1,1,0,0,1,.24.15l.11.09.1.11.1.12a.54.54,0,0,1,.07.13.84.84,0,0,1,.13.27,1.55,1.55,0,0,1,.06.31.42.42,0,0,1,0,.16,1.21,1.21,0,0,1,0,.19l0,.09s0,.06,0,.08l0,.09,0,.06v0h0c0,.1,0,0,0,.05h0v0l-.07.13a1.73,1.73,0,0,1-1.46.93,1.55,1.55,0,0,1-.61-.07l-.19-.07-.08,0-.19-.11a2.35,2.35,0,0,1-1-1.35,1.78,1.78,0,0,1-.06-.67,1.6,1.6,0,0,1,.15-.48,1.31,1.31,0,0,1,.09-.17l.08-.09.07-.08" transform="translate(-0.83 -0.91)"/></g></g></g><g class="cls-27"><g class="cls-18"><g class="cls-18"><path class="cls-4" d="M711.17,549.53s0,.15.08.43.11.62.2,1c0,.2.1.4.16.6s.13.4.21.58a3.71,3.71,0,0,0,.58,1l.19.18,0,.05.07.06.17.14a.35.35,0,0,0,.23.06.83.83,0,0,0,.39-.15,3,3,0,0,0,.39-.31c.12-.11.22-.23.31-.33l.21-.24.08-.1a2.25,2.25,0,0,1,.18.43,2.32,2.32,0,0,1,.09.53,2.2,2.2,0,0,1-.09.73,2,2,0,0,1-.51.86,1.91,1.91,0,0,1-.5.37,1.88,1.88,0,0,1-.67.21,2.32,2.32,0,0,1-1.38-.25l-.29-.17-.27-.22a3.48,3.48,0,0,1-.95-1.4,3.32,3.32,0,0,1-.21-1,3.45,3.45,0,0,1,.07-.93,3.77,3.77,0,0,1,.24-.76,3.68,3.68,0,0,1,.63-1,2.11,2.11,0,0,1,.34-.3" transform="translate(-0.83 -0.91)"/></g></g></g><g class="cls-28"><g class="cls-18"><g class="cls-18"><path class="cls-4" d="M709.34,553.5l.11.59c.07.36.16.85.28,1.38.06.26.13.54.22.82a7.25,7.25,0,0,0,.28.78,4.7,4.7,0,0,0,.81,1.3,3.07,3.07,0,0,0,.25.26l.07.07.09.07a2.11,2.11,0,0,1,.23.19.46.46,0,0,0,.32.08,1.2,1.2,0,0,0,.54-.2,3,3,0,0,0,.52-.43,5.86,5.86,0,0,0,.43-.45c.11-.14.22-.25.28-.33l.11-.13.08.15a4.16,4.16,0,0,1,.17.44,3.16,3.16,0,0,1,.12.72,2.64,2.64,0,0,1-.12,1,2.73,2.73,0,0,1-.7,1.18,2.48,2.48,0,0,1-.69.51,2.93,2.93,0,0,1-.91.28,3.17,3.17,0,0,1-1.88-.35,3.81,3.81,0,0,1-.4-.23,4.22,4.22,0,0,1-.37-.29l-.28-.28-.26-.29a4.93,4.93,0,0,1-.76-1.36,4.86,4.86,0,0,1-.29-1.41,5.24,5.24,0,0,1,.1-1.28,5.77,5.77,0,0,1,.33-1,4.83,4.83,0,0,1,.43-.79c.16-.22.3-.4.43-.55s.26-.24.33-.31l.13-.1" transform="translate(-0.83 -0.91)"/></g></g></g><g class="cls-29"><g class="cls-18"><g class="cls-18"><path class="cls-4" d="M720.54,533.16a1.25,1.25,0,0,1,.68-.28,1.45,1.45,0,0,1,.76.14,1.91,1.91,0,0,1,.34.24,1.7,1.7,0,0,1,.25.31,1.85,1.85,0,0,1,.27.81,2,2,0,0,1-.64,1.61.27.27,0,0,1-.08.07l0,0,0,0h0l-.15.11-.21.11-.22.09a2.69,2.69,0,0,1-.89.16,2.65,2.65,0,0,1-1.73-.69,3.81,3.81,0,0,1-.33-.36l0,0h0l0,0v0l-.1-.15,0,0,0-.06-.12-.23c0-.08-.06-.15-.09-.22a4,4,0,0,1-.13-.46,3.35,3.35,0,0,1,.17-1.9,3.61,3.61,0,0,1,.49-.85,3.93,3.93,0,0,1,.73-.68l.08-.05,2.79-1.66,2.8-1.63,2.81-1.61,2.82-1.59,2.83-1.57,2.83-1.55,2.79-1.56.67-.38.08,0h0s0,0,0,0l.21-.14a2.94,2.94,0,0,0,.26-.17,7.6,7.6,0,0,0,1-.81,4.61,4.61,0,0,0,1.2-2,3.2,3.2,0,0,0,0-2,3,3,0,0,0-1.3-1.5,5.12,5.12,0,0,0-2.32-.64h-.49a4.48,4.48,0,0,0-.6.11,6,6,0,0,0-1.18.45,4.79,4.79,0,0,0-1.83,1.6,4.55,4.55,0,0,0-.87,2.21,1.53,1.53,0,0,0,.25.86,3.68,3.68,0,0,0,.86.86l-.13-.08s0,0,0,0l0,0,.1,0,.21.09a3.56,3.56,0,0,0,.47.1,2.69,2.69,0,0,0,1,0,3.34,3.34,0,0,0,1-.33l.23-.13.1-.06.09-.07a3.23,3.23,0,0,0,.37-.37,3,3,0,0,0,.73-2,2.26,2.26,0,0,0-.09-.57,2.72,2.72,0,0,0-.22-.56,2.62,2.62,0,0,0-.33-.53,3.89,3.89,0,0,0-.41-.5,5.21,5.21,0,0,1,.55.36,4.24,4.24,0,0,1,.49.46,3.32,3.32,0,0,1,.7,1.21,3.38,3.38,0,0,1,.1,1.45,4.17,4.17,0,0,1-.46,1.41,5,5,0,0,1-.42.64,1.92,1.92,0,0,1-.14.15l-.14.15-.29.25a4.75,4.75,0,0,1-1.33.78,4.57,4.57,0,0,1-1.56.32,5.59,5.59,0,0,1-.81,0l-.4-.07-.22,0-.11,0-.14,0h0l-.11-.06a5.85,5.85,0,0,1-1.57-1.27,4.31,4.31,0,0,1-.61-1,4.18,4.18,0,0,1-.3-1.14,5.32,5.32,0,0,1,.22-2.14,8.13,8.13,0,0,1,.33-.91l.2-.44.09-.18.12-.23a7.68,7.68,0,0,1,2.77-2.86,8.56,8.56,0,0,1,1.8-.81,7.25,7.25,0,0,1,1-.26l.29,0h.84a8.33,8.33,0,0,1,3.91.92,6.67,6.67,0,0,1,1.74,1.32,6.36,6.36,0,0,1,1.21,1.89,6.62,6.62,0,0,1,.24,4.34,8.49,8.49,0,0,1-2.08,3.55,10.59,10.59,0,0,1-1.51,1.27l-.42.27-.17.11-.11.07-.1,0-.74.42c-1,.54-1.93,1-2.9,1.54s-1.93,1-2.9,1.46l-2.92,1.43-2.93,1.39-3,1.35c-1,.45-2,.89-3,1.32s-2,.87-3,1.29l.08-.05a1.78,1.78,0,0,0-.36.25,1.5,1.5,0,0,0-.27.34,1.6,1.6,0,0,0-.23.89.66.66,0,0,0,0,.24.36.36,0,0,0,0,.11l0,.1v0l0,0,0,.09,0,.07v0h0s0-.06,0,0h0v0a1.22,1.22,0,0,0,.12.19,1.27,1.27,0,0,0,.81.5,1.45,1.45,0,0,0,.51,0l.24-.06.17-.07h0l.06,0a1.2,1.2,0,0,0,.56-.89,1.41,1.41,0,0,0-.19-.85,1.51,1.51,0,0,0-.21-.23,1.18,1.18,0,0,0-1.26-.14" transform="translate(-0.83 -0.91)"/></g></g></g><g class="cls-30"><g class="cls-18"><g class="cls-18"><path class="cls-4" d="M702.05,551.64a1.2,1.2,0,0,0,.15,1.27.87.87,0,0,0,.23.2.92.92,0,0,0,.28.14,1.35,1.35,0,0,0,.57,0,1.14,1.14,0,0,0,.88-.55l0-.06v0h0v0h0l.08-.16.05-.24a1.51,1.51,0,0,0,0-.52,1.31,1.31,0,0,0-.49-.8,1.06,1.06,0,0,0-.2-.12h0l0,0h0l-.08,0-.08,0h-.07l-.09,0-.12,0-.24,0a1.69,1.69,0,0,0-.89.23,1.88,1.88,0,0,0-.34.28,2,2,0,0,0-.24.35l0-.07c-.41,1-.85,2-1.28,3s-.88,2-1.32,3l-1.36,2.95-1.39,2.93c-.46,1-.95,1.94-1.42,2.92s-1,1.93-1.47,2.9-1,1.93-1.54,2.9l-.42.74,0,.1-.07.11-.11.17c-.07.12-.18.29-.27.42a9.92,9.92,0,0,1-1.26,1.5,8.38,8.38,0,0,1-3.56,2.09,6.69,6.69,0,0,1-4.34-.24,6.52,6.52,0,0,1-1.89-1.22,6.73,6.73,0,0,1-1.32-1.74,8.55,8.55,0,0,1-.92-3.91c0-.16,0-.32,0-.48v-.36c0-.1,0-.19,0-.28a9.15,9.15,0,0,1,.26-1,8.56,8.56,0,0,1,.81-1.8,7.68,7.68,0,0,1,2.86-2.77l.23-.12.18-.09c.13-.06.3-.15.44-.2a6.67,6.67,0,0,1,.92-.33,5.25,5.25,0,0,1,2.13-.22,3.77,3.77,0,0,1,1.14.3,4.62,4.62,0,0,1,1,.61,5.84,5.84,0,0,1,1.26,1.57l.06.11,0,0c0,.07,0,.1,0,.14l0,.11a2.09,2.09,0,0,1,0,.21c0,.14,0,.27.07.41a5.49,5.49,0,0,1,0,.81,4.82,4.82,0,0,1-.32,1.56,4.7,4.7,0,0,1-.78,1.32c-.09.1-.15.19-.25.29l-.15.15-.16.13a4.22,4.22,0,0,1-.64.43,4.33,4.33,0,0,1-1.41.46,3.24,3.24,0,0,1-1.45-.11,3.3,3.3,0,0,1-1.21-.69,4.33,4.33,0,0,1-.46-.5,5.07,5.07,0,0,1-.36-.54,5,5,0,0,0,.5.41,2.93,2.93,0,0,0,.53.33,3,3,0,0,0,.56.22,3.75,3.75,0,0,0,.57.09,3,3,0,0,0,2-.73,3.23,3.23,0,0,0,.37-.37.86.86,0,0,1,.07-.1l.06-.09a2.36,2.36,0,0,0,.13-.23,3.36,3.36,0,0,0,.34-1,3.22,3.22,0,0,0,0-1,2.47,2.47,0,0,0-.11-.47c0-.07,0-.15-.08-.22l0-.09,0,0s0,0,0,0l.08.14a3.5,3.5,0,0,0-.86-.86,1.52,1.52,0,0,0-.85-.25,4.52,4.52,0,0,0-2.22.86,4.79,4.79,0,0,0-1.6,1.83,5.81,5.81,0,0,0-.44,1.18c-.05.21-.09.42-.12.6s0,.1,0,.13h0c0,.09,0-.1,0-.08v.13c0,.11,0,.22,0,.33a5.07,5.07,0,0,0,.63,2.31,3,3,0,0,0,1.5,1.31,3.23,3.23,0,0,0,2,0,4.68,4.68,0,0,0,2-1.2,7.11,7.11,0,0,0,.82-1l.17-.25.11-.18,0,0s0,0,0,0h0v0l0-.09.38-.66,1.56-2.79,1.56-2.83,1.56-2.83,1.59-2.82,1.61-2.82,1.64-2.8c.55-.93,1.1-1.86,1.66-2.78l0-.08a3.93,3.93,0,0,1,.68-.73,3.71,3.71,0,0,1,.86-.5,3.4,3.4,0,0,1,1.89-.16,2.42,2.42,0,0,1,.46.13l.22.08.24.12,0,0,0,0,.15.1h0l0,0h0l.05,0a2.82,2.82,0,0,1,.36.33,2.62,2.62,0,0,1,.69,1.72,2.47,2.47,0,0,1-.16.9,1.89,1.89,0,0,1-.09.21,1.34,1.34,0,0,1-.11.21l-.1.15,0,0h0v0l0,0,0,0a.73.73,0,0,1-.08.09,2,2,0,0,1-1.6.64,1.9,1.9,0,0,1-.81-.27,2.38,2.38,0,0,1-.31-.26,1.27,1.27,0,0,1-.24-.33,1.39,1.39,0,0,1-.15-.77,1.29,1.29,0,0,1,.28-.68" transform="translate(-0.83 -0.91)"/></g></g></g><g class="cls-31"><g class="cls-32"><g class="cls-32"><path class="cls-4" d="M21.07,551.63a3.56,3.56,0,0,0,2.38,1.56c-1,.38-2,1.31-2.12,3.54h0c2.23-.12,3.16-1.16,3.54-2.12A3.52,3.52,0,0,0,26.45,557s-1.35-2.24.2-3.38a2.34,2.34,0,0,0,1.3-3.49h0a2.34,2.34,0,0,0-3.49,1.3c-1.14,1.55-3.38.21-3.38.21" transform="translate(-0.83 -0.91)"/></g></g></g><g class="cls-33"><g class="cls-32"><g class="cls-32"><path class="cls-4" d="M27.48,554.36a3,3,0,0,0,.16.31,1.79,1.79,0,0,0,.2.26.93.93,0,0,0,.21.19.9.9,0,0,0,.24.12.91.91,0,0,0,.23,0,1.94,1.94,0,0,0,.24,0l.16,0h0l.09,0s.05,0,.08,0l.08,0a1.42,1.42,0,0,0,.12-.13l.09-.17q0-.09.06-.21a.85.85,0,0,0,.05-.24,2.48,2.48,0,0,0,0-.27,2.71,2.71,0,0,0,0-.29v-.3l0-.31v.1a4.44,4.44,0,0,1-.07-.49c0-.15,0-.31-.05-.47s0-.63,0-.94a8.64,8.64,0,0,1,.29-1.89,5.89,5.89,0,0,1,.35-.91,3.62,3.62,0,0,1,.24-.43,2.71,2.71,0,0,1,.28-.41,2.2,2.2,0,0,1,.33-.36,2.76,2.76,0,0,1,.37-.31,3.45,3.45,0,0,1,.41-.25,3.34,3.34,0,0,1,.44-.17c-.1.13-.19.24-.28.37a2.85,2.85,0,0,0-.23.37c-.06.12-.13.25-.18.37s-.1.26-.15.39l-.12.39-.09.4-.06.4c0,.13,0,.26,0,.4s0,.54-.05.82,0,.55,0,.83,0,.55,0,.83l0,.41,0,.39,0,.1a6.56,6.56,0,0,1,0,.76c0,.13,0,.26-.05.39s-.06.26-.1.4a3.25,3.25,0,0,1-.15.4,2.36,2.36,0,0,1-.24.4,1.94,1.94,0,0,1-.34.36,1.48,1.48,0,0,1-.44.25,1,1,0,0,1-.24.07l-.24,0h-.43a2.26,2.26,0,0,1-.43-.11,2,2,0,0,1-.39-.24,1.44,1.44,0,0,1-.28-.33,1.77,1.77,0,0,1-.15-.38,1.64,1.64,0,0,1,0-.73" transform="translate(-0.83 -0.91)"/></g></g></g><g class="cls-34"><g class="cls-32"><g class="cls-32"><path class="cls-4" d="M23.71,550.59a1.64,1.64,0,0,1-.73,0,1.37,1.37,0,0,1-.38-.15,1.44,1.44,0,0,1-.33-.28,1.54,1.54,0,0,1-.23-.39,1.73,1.73,0,0,1-.12-.43V549s0,0,0,0v-.12c0-.06,0-.17,0-.25s0-.15.08-.23a1.61,1.61,0,0,1,.25-.44,2.31,2.31,0,0,1,.36-.34,2.46,2.46,0,0,1,.8-.39l.4-.1.39,0a6.56,6.56,0,0,1,.76,0l.1,0,.39,0,.42,0a7.5,7.5,0,0,0,.82,0c.28,0,.56,0,.83,0s.55,0,.82,0l.41,0,.39-.07.4-.09.39-.12c.13,0,.26-.09.39-.15a3.14,3.14,0,0,0,.37-.18,2.3,2.3,0,0,0,.37-.23,4.5,4.5,0,0,0,.37-.28,3.34,3.34,0,0,1-.17.44c-.07.14-.16.28-.24.41a3.79,3.79,0,0,1-.32.38,2.67,2.67,0,0,1-.36.32,2.71,2.71,0,0,1-.41.28,3.62,3.62,0,0,1-.43.24,5,5,0,0,1-.91.35,7.59,7.59,0,0,1-1.89.29c-.31,0-.63,0-.94,0l-.47,0a2.89,2.89,0,0,1-.49-.07H24l-.27,0-.24,0-.21.06-.17.09a1.42,1.42,0,0,0-.13.12A.35.35,0,0,0,23,549a.28.28,0,0,0-.05.08l0,.09v0h0s0,0,0,0v0l0,.15a1,1,0,0,0,0,.48A1,1,0,0,0,23,550a1.24,1.24,0,0,0,.19.22,2.48,2.48,0,0,0,.26.19l.31.16" transform="translate(-0.83 -0.91)"/></g></g></g><g class="cls-35"><g class="cls-32"><g class="cls-32"><path class="cls-4" d="M38.09,544.09a.87.87,0,0,0,.23-.21,1,1,0,0,0,.18-.31.92.92,0,0,0,.07-.4.3.3,0,0,0-.06-.15,1.19,1.19,0,0,0-.15-.18.69.69,0,0,0-.42-.2.6.6,0,0,0-.23,0l0,0-.07,0-.13.08a1.31,1.31,0,0,0-.43.45,2.09,2.09,0,0,0-.1,1.4c.12.65.26,1.43.44,2.19s.41,1.54.67,2.32.56,1.56.9,2.32a19.19,19.19,0,0,0,1.13,2.16,9.51,9.51,0,0,0,1.36,1.81,4.28,4.28,0,0,0,.74.64,2.14,2.14,0,0,0,.7.32,1,1,0,0,0,.58,0,1.79,1.79,0,0,0,.6-.31.83.83,0,0,0,.29-.33,1,1,0,0,0,0-.5.56.56,0,0,0-.39-.43l-.23-.07a1,1,0,0,0-.75.07l-.18.14,0,.06a.63.63,0,0,1,.08-.33,1.27,1.27,0,0,1,.85-.63l.17,0h.19a1.42,1.42,0,0,1,.45,0,1.55,1.55,0,0,1,.89.66,2.13,2.13,0,0,1,.35,1.14,2.09,2.09,0,0,1-.51,1.33,3.05,3.05,0,0,1-.47.48,2.68,2.68,0,0,1-.59.37,2.83,2.83,0,0,1-1.56.27,4.07,4.07,0,0,1-1.45-.48A6.14,6.14,0,0,1,40,557a11,11,0,0,1-1.79-2.13,17.35,17.35,0,0,1-1.33-2.43,23.5,23.5,0,0,1-1-2.56,25.11,25.11,0,0,1-.63-2.56c-.08-.42-.14-.84-.2-1.24,0-.21-.05-.41-.07-.62l0-.28c0-.11,0-.23,0-.34a4.16,4.16,0,0,1,.2-1.38,2.71,2.71,0,0,1,.76-1.2,2.42,2.42,0,0,1,1.12-.58l.29,0h.32a1.64,1.64,0,0,1,.59.13,1.59,1.59,0,0,1,.74.68,1.42,1.42,0,0,1,.15.42.76.76,0,0,1,0,.45,1.26,1.26,0,0,1-.34.51,1.52,1.52,0,0,1-.36.23.83.83,0,0,1-.24.07h-.09" transform="translate(-0.83 -0.91)"/></g></g></g><g class="cls-36"><g class="cls-32"><g class="cls-32"><path class="cls-4" d="M35.63,548l.07.09.08.09.09.16a2.1,2.1,0,0,1,.15.48,1.83,1.83,0,0,1-.06.68,2.33,2.33,0,0,1-1,1.35l-.19.11-.07,0-.2.08a1.55,1.55,0,0,1-.61.07,1.77,1.77,0,0,1-1.09-.45,1.72,1.72,0,0,1-.37-.48l-.07-.14,0,0h0l0-.09v-.05l0-.1a.56.56,0,0,1,0-.07l0-.1c0-.06,0-.12,0-.18a.4.4,0,0,1,0-.16,1.08,1.08,0,0,1,.07-.31.77.77,0,0,1,.12-.28.83.83,0,0,1,.07-.13l.1-.11.1-.11.11-.09a.75.75,0,0,1,.24-.15l.12-.06h.15l.09,0h.31l.14,0a1.13,1.13,0,0,1,.24.08,1.05,1.05,0,0,1,.38.27,1,1,0,0,1,.27.71.79.79,0,0,1-.22.52.76.76,0,0,1-.28.16l-.11,0,.07-.07a1.17,1.17,0,0,0,.13-.23.64.64,0,0,0,0-.34.51.51,0,0,0-.27-.27.41.41,0,0,0-.19-.05h-.18l-.09,0,0,0h0l0,0a.16.16,0,0,0-.07.07l0,0,0,.05,0,0,0,0a.3.3,0,0,0,0,.1.28.28,0,0,0,0,.09v.07h0v0l0,.1,0,.05v0s0,.05,0,0h0l0,0a.9.9,0,0,0,.15.18A.84.84,0,0,0,34,550h.2l.2,0h0l-.05,0h.06l.07,0a2.11,2.11,0,0,0,.9-.72,2,2,0,0,0,.22-.44,2.35,2.35,0,0,0,.07-.41v-.16c0-.05,0-.09,0-.12a.87.87,0,0,1,0-.11" transform="translate(-0.83 -0.91)"/></g></g></g><g class="cls-37"><g class="cls-32"><g class="cls-32"><path class="cls-4" d="M36,549.49a3,3,0,0,1,.34.3,3.68,3.68,0,0,1,.63,1,4,4,0,0,1,.24.76,3.52,3.52,0,0,1,.07.93,3.56,3.56,0,0,1-.21,1,3.61,3.61,0,0,1-.56,1,3.08,3.08,0,0,1-.39.42,2.22,2.22,0,0,1-.27.21,1.69,1.69,0,0,1-.29.17,2.32,2.32,0,0,1-1.38.26,2.1,2.1,0,0,1-.67-.21A2.4,2.4,0,0,1,33,555a2,2,0,0,1-.51-.86,2.2,2.2,0,0,1,0-1.26,1.92,1.92,0,0,1,.18-.43l.08.09c.05.06.13.14.21.25l.31.33a2.25,2.25,0,0,0,.39.3.73.73,0,0,0,.39.15.27.27,0,0,0,.23-.06l.17-.14.07-.05,0,0a1.62,1.62,0,0,0,.18-.19,3.27,3.27,0,0,0,.59-.94c.08-.19.14-.38.21-.58s.11-.41.16-.6c.09-.39.15-.75.2-1l.08-.43" transform="translate(-0.83 -0.91)"/></g></g></g><g class="cls-38"><g class="cls-32"><g class="cls-32"><path class="cls-4" d="M37.8,553.47l.13.1c.07.07.19.17.32.31a2.92,2.92,0,0,1,.43.55,4.45,4.45,0,0,1,.44.79,5.3,5.3,0,0,1,.33,1,4.71,4.71,0,0,1,.1,1.27,4.55,4.55,0,0,1-.29,1.42,4.88,4.88,0,0,1-.76,1.35l-.26.3-.29.28a4,4,0,0,1-.36.28,4.11,4.11,0,0,1-.39.24,3.29,3.29,0,0,1-1.89.35,3.09,3.09,0,0,1-.92-.29A2.78,2.78,0,0,1,33,559.78a2.92,2.92,0,0,1-.12-1,2.76,2.76,0,0,1,.12-.72,3.82,3.82,0,0,1,.17-.43l.08-.15.11.12c.06.09.17.2.28.34a5.86,5.86,0,0,0,.43.45,2.65,2.65,0,0,0,.53.42,1.15,1.15,0,0,0,.53.21.42.42,0,0,0,.32-.09l.23-.19.09-.07.08-.07c.08-.07.16-.17.25-.26a4.71,4.71,0,0,0,.8-1.29c.11-.25.2-.52.29-.79s.15-.55.21-.81c.12-.54.21-1,.28-1.39l.11-.58" transform="translate(-0.83 -0.91)"/></g></g></g><g class="cls-39"><g class="cls-32"><g class="cls-32"><path class="cls-4" d="M34.06,540V540a1.22,1.22,0,0,1,.07-.25,1.76,1.76,0,0,1,.23-.36,1.24,1.24,0,0,1,.52-.34.81.81,0,0,1,.44,0,1.5,1.5,0,0,1,.42.15,1.64,1.64,0,0,1,.69.75,1.54,1.54,0,0,1,.12.58v.18a.76.76,0,0,1,0,.15,1.37,1.37,0,0,1,0,.28,2.5,2.5,0,0,1-.58,1.13,2.9,2.9,0,0,1-1.2.76,4.11,4.11,0,0,1-1.38.19,19,19,0,0,1-2.47-.32,22.72,22.72,0,0,1-2.56-.63,20.36,20.36,0,0,1-2.56-1,17,17,0,0,1-2.44-1.33,10.89,10.89,0,0,1-2.12-1.78,6.26,6.26,0,0,1-.85-1.17,4,4,0,0,1-.48-1.45,2.83,2.83,0,0,1,.27-1.56,2.77,2.77,0,0,1,.38-.58,2.67,2.67,0,0,1,.47-.48,2.17,2.17,0,0,1,1.33-.51,2.39,2.39,0,0,1,1.15.35,1.61,1.61,0,0,1,.65.89,1.9,1.9,0,0,1,0,.46s0,.06,0,.09l0,.09a1.16,1.16,0,0,1,0,.18,1.29,1.29,0,0,1-.62.84,1,1,0,0,1-.34.09l.06-.06a1,1,0,0,0,.14-.18,1,1,0,0,0,.07-.74.53.53,0,0,0,0-.12l0-.06a.11.11,0,0,0,0-.06.56.56,0,0,0-.09-.19.59.59,0,0,0-.33-.2.94.94,0,0,0-.5,0,.79.79,0,0,0-.34.29,2.27,2.27,0,0,0-.31.6,1,1,0,0,0,0,.58,2.16,2.16,0,0,0,.32.7,5.33,5.33,0,0,0,.64.75A10.43,10.43,0,0,0,24.5,538a18.46,18.46,0,0,0,2.17,1.12q1.14.51,2.31.9c.78.26,1.56.48,2.33.67s1.53.32,2.18.45a2.09,2.09,0,0,0,1.4-.11,1.2,1.2,0,0,0,.45-.42.7.7,0,0,0,.08-.14l0-.07,0,0a.6.6,0,0,0,0-.23.69.69,0,0,0-.2-.42.79.79,0,0,0-.18-.14.3.3,0,0,0-.15-.06.78.78,0,0,0-.4.06,1.49,1.49,0,0,0-.31.18.71.71,0,0,0-.2.23" transform="translate(-0.83 -0.91)"/></g></g></g><g class="cls-40"><g class="cls-32"><g class="cls-32"><path class="cls-4" d="M30.14,542.49h-.39a2.35,2.35,0,0,0-.41.07,2,2,0,0,0-.44.22,2.17,2.17,0,0,0-.72.9l0,.07v.06l0,0h0l0,.2a.07.07,0,0,0,0,.06v0a.41.41,0,0,0,0,.1.79.79,0,0,0,.2.42.55.55,0,0,0,.19.15l0,0h0l-.05,0h0l.08,0,.1,0h.2l.09,0H29l.05,0,0,0,0,0a.16.16,0,0,0,.07-.07l0,0h0s0,.07,0,0v-.06l0-.08s0,0,0,0v-.06s0-.07,0-.1a.33.33,0,0,0-.06-.19.49.49,0,0,0-.27-.26.47.47,0,0,0-.33,0,.76.76,0,0,0-.24.12l-.07.07a.54.54,0,0,1,0-.11.67.67,0,0,1,.16-.27.79.79,0,0,1,.52-.23,1,1,0,0,1,.71.27,1.21,1.21,0,0,1,.28.38,1,1,0,0,1,.07.25l0,.13a.92.92,0,0,1,0,.16s0,.12,0,.15l0,.09v0h0s0,.06,0,0h0l0,0-.05.13a1.58,1.58,0,0,1-.15.24l-.1.11-.11.1-.11.09a.57.57,0,0,1-.13.08,1.18,1.18,0,0,1-.28.12,1.46,1.46,0,0,1-.3.07h-.44l-.08,0-.1,0h-.08l-.05,0h0l-.13-.08a1.68,1.68,0,0,1-.48-.36,1.74,1.74,0,0,1-.45-1.1,1.57,1.57,0,0,1,.06-.61l.08-.19,0-.07,0,0,.09-.16a2.35,2.35,0,0,1,1.35-1,1.81,1.81,0,0,1,.68,0,2,2,0,0,1,.48.14l.16.09.1.08.08.07" transform="translate(-0.83 -0.91)"/></g></g></g><g class="cls-41"><g class="cls-32"><g class="cls-32"><path class="cls-4" d="M28.65,542.15l-.43.08-1,.21-.59.15c-.2.07-.4.13-.58.21a3.33,3.33,0,0,0-.95.59l-.19.18,0,.06-.05.06c-.05.06-.09.12-.14.17a.28.28,0,0,0-.06.24.84.84,0,0,0,.15.38,2.31,2.31,0,0,0,.31.39c.11.12.23.22.33.31l.24.21.09.08a1.48,1.48,0,0,1-.42.18,1.88,1.88,0,0,1-.53.09,2.15,2.15,0,0,1-.73-.08,2.09,2.09,0,0,1-.86-.52,2.19,2.19,0,0,1-.38-.5,2.09,2.09,0,0,1-.2-.67,2.32,2.32,0,0,1,.25-1.38c0-.1.11-.19.17-.29a2.18,2.18,0,0,1,.21-.26,3.16,3.16,0,0,1,.42-.4,3.61,3.61,0,0,1,1-.56,3.56,3.56,0,0,1,1-.21,4,4,0,0,1,.93.07,4.54,4.54,0,0,1,.76.24,3.45,3.45,0,0,1,1,.64,2.59,2.59,0,0,1,.3.33" transform="translate(-0.83 -0.91)"/></g></g></g><g class="cls-42"><g class="cls-32"><g class="cls-32"><path class="cls-4" d="M24.67,540.33l-.58.1c-.36.07-.85.16-1.38.28l-.82.22c-.27.09-.54.18-.79.28a4.88,4.88,0,0,0-1.29.81,3.13,3.13,0,0,0-.26.25l-.07.07-.07.09-.19.24a.43.43,0,0,0-.09.31,1.23,1.23,0,0,0,.21.54,3.06,3.06,0,0,0,.42.53c.15.16.32.3.45.42s.25.22.34.28l.12.11-.15.08a2.54,2.54,0,0,1-.43.17,3.11,3.11,0,0,1-.72.13,3,3,0,0,1-1-.13,2.73,2.73,0,0,1-1.17-.69,2.69,2.69,0,0,1-.79-1.6,3.11,3.11,0,0,1,.35-1.89,1.9,1.9,0,0,1,.23-.39,4.28,4.28,0,0,1,.29-.38l.27-.28.3-.26a5.15,5.15,0,0,1,1.35-.76,5.28,5.28,0,0,1,1.42-.29,5.12,5.12,0,0,1,1.27.1,5.64,5.64,0,0,1,1.05.33,6.36,6.36,0,0,1,.79.44,3.77,3.77,0,0,1,.54.43,2.78,2.78,0,0,1,.31.33,1,1,0,0,1,.1.13" transform="translate(-0.83 -0.91)"/></g></g></g><g class="cls-43"><g class="cls-32"><g class="cls-32"><path class="cls-4" d="M45,551.52a1.29,1.29,0,0,1,.28.68,1.35,1.35,0,0,1-.15.76,1.16,1.16,0,0,1-.24.34,1.7,1.7,0,0,1-.31.25,1.81,1.81,0,0,1-.81.27,2,2,0,0,1-1.6-.63l-.08-.09,0-.05,0,0h0v0l-.11-.15a2,2,0,0,1-.11-.21c0-.08-.06-.14-.09-.21a2.47,2.47,0,0,1-.16-.9,2.65,2.65,0,0,1,.69-1.73,2.74,2.74,0,0,1,.36-.32l.05,0h0l0,0h0l.15-.09,0,0,0,0,.24-.12.22-.09a3.81,3.81,0,0,1,.45-.13,3.43,3.43,0,0,1,1.9.17,3.83,3.83,0,0,1,.86.49,4.33,4.33,0,0,1,.68.74l0,.08c.56.92,1.11,1.85,1.67,2.78l1.63,2.8,1.61,2.82,1.59,2.81,1.56,2.83L57,567.24l1.55,2.8.39.66,0,.09h0s0,0,0,0l.14.22.17.25a7.77,7.77,0,0,0,.82,1,4.74,4.74,0,0,0,2,1.2,3.13,3.13,0,0,0,2-.05,3,3,0,0,0,1.51-1.3,5.08,5.08,0,0,0,.63-2.32c0-.11,0-.22,0-.33v-.12s0,.17,0,.08h0a.6.6,0,0,0,0-.12,4.48,4.48,0,0,0-.11-.6,5.59,5.59,0,0,0-.44-1.18,4.79,4.79,0,0,0-1.6-1.83,4.58,4.58,0,0,0-2.22-.87,1.61,1.61,0,0,0-.85.25,3.5,3.5,0,0,0-.86.86l.08-.13s0,0,0,0v0l-.05.1a1.43,1.43,0,0,0-.08.22,2.37,2.37,0,0,0-.11.46,3.22,3.22,0,0,0,0,1,3.36,3.36,0,0,0,.34,1,2.36,2.36,0,0,0,.13.23l.06.1.07.09a3.3,3.3,0,0,0,.37.38,3,3,0,0,0,2,.73,2.84,2.84,0,0,0,.57-.1,2.38,2.38,0,0,0,.56-.21,4.72,4.72,0,0,0,.53-.33l.5-.41a6.33,6.33,0,0,1-.36.54,4.24,4.24,0,0,1-.46.49,3.18,3.18,0,0,1-1.21.7,3.42,3.42,0,0,1-1.46.1,4.12,4.12,0,0,1-1.4-.46,3.71,3.71,0,0,1-.64-.42l-.16-.13-.15-.15-.25-.29a4.74,4.74,0,0,1-1.1-2.88,5.49,5.49,0,0,1,0-.81c0-.14,0-.27.07-.41a1.6,1.6,0,0,1,0-.21l0-.11a1.14,1.14,0,0,1,.06-.15v0l.06-.11a5.7,5.7,0,0,1,1.27-1.57,4,4,0,0,1,1-.61,4.1,4.1,0,0,1,1.14-.31,5.5,5.5,0,0,1,2.14.22c.31.1.62.21.91.33l.44.2.18.09.23.13A7.55,7.55,0,0,1,68.4,566a8.11,8.11,0,0,1,.82,1.8,9.34,9.34,0,0,1,.26,1c0,.09,0,.17,0,.28v.36c0,.16,0,.32,0,.48a8.58,8.58,0,0,1-.92,3.91,6.9,6.9,0,0,1-1.32,1.74,6.52,6.52,0,0,1-1.89,1.22,6.62,6.62,0,0,1-4.34.23,8.28,8.28,0,0,1-3.55-2.08,9.9,9.9,0,0,1-1.27-1.5L56,573l-.11-.17-.07-.12,0-.09-.43-.75c-.53-1-1-1.93-1.53-2.89s-1-1.94-1.47-2.91-1-1.94-1.42-2.91l-1.39-2.94-1.36-2.95c-.44-1-.89-2-1.32-3s-.87-2-1.28-3l0,.07a1.67,1.67,0,0,0-.24-.35,1.54,1.54,0,0,0-.34-.28,1.6,1.6,0,0,0-.89-.23l-.24,0-.12,0-.09,0h0l0,0-.08,0-.08,0h0l0,0h0l0,0-.2.11a1.36,1.36,0,0,0-.49.81,1.25,1.25,0,0,0,0,.51,1.83,1.83,0,0,0,.06.25l.07.16h0v0h0v0l0,0,0,.06a1.18,1.18,0,0,0,.88.56,1.35,1.35,0,0,0,.57,0,1.22,1.22,0,0,0,.28-.14,1.5,1.5,0,0,0,.24-.2,1.22,1.22,0,0,0,.14-1.27" transform="translate(-0.83 -0.91)"/></g></g></g><g class="cls-44"><g class="cls-32"><g class="cls-32"><path class="cls-4" d="M26.53,533a1.18,1.18,0,0,0-1.26.15,1.15,1.15,0,0,0-.21.23,1.46,1.46,0,0,0-.13.28,1.56,1.56,0,0,0-.06.57,1.18,1.18,0,0,0,.56.88l.06,0h0l.17.08a1.84,1.84,0,0,0,.75.05,1.39,1.39,0,0,0,.81-.5,2.12,2.12,0,0,0,.12-.2v0h0s0,.06,0,0h0v0l0-.08,0-.08,0,0v0a.29.29,0,0,1,0-.09.36.36,0,0,0,0-.11,1,1,0,0,0,0-.24,1.64,1.64,0,0,0-.23-.9,1.5,1.5,0,0,0-.27-.34,2.25,2.25,0,0,0-.36-.24l.08,0c-1-.42-2-.86-3-1.29s-2-.88-3-1.32l-2.95-1.36-2.93-1.38L12,525.71c-1-.48-1.93-1-2.9-1.47s-1.94-1-2.9-1.53l-.74-.42-.1-.06-.11-.07-.17-.11a4.19,4.19,0,0,1-.42-.27,10,10,0,0,1-1.51-1.26A8.49,8.49,0,0,1,1.09,517a6.72,6.72,0,0,1,.24-4.35,6.51,6.51,0,0,1,1.21-1.88,6.71,6.71,0,0,1,1.74-1.33,8.44,8.44,0,0,1,3.91-.91H9l.29.05a7.24,7.24,0,0,1,1,.25,9.14,9.14,0,0,1,1.8.82,7.65,7.65,0,0,1,2.77,2.85l.12.23.09.18.2.44a8.31,8.31,0,0,1,.33.92,5.32,5.32,0,0,1,.22,2.14,3.78,3.78,0,0,1-.3,1.13,4.78,4.78,0,0,1-.61,1,5.84,5.84,0,0,1-1.57,1.26l-.11.06,0,0-.15,0-.1,0-.22.06c-.13,0-.27,0-.41.06a4.29,4.29,0,0,1-.8,0,4.82,4.82,0,0,1-1.56-.32A4.75,4.75,0,0,1,8.63,519l-.29-.25-.14-.15a1.92,1.92,0,0,1-.14-.15,5.12,5.12,0,0,1-.42-.65,4.12,4.12,0,0,1-.46-1.4A3.22,3.22,0,0,1,7.29,515,3.13,3.13,0,0,1,8,513.73a4.15,4.15,0,0,1,.49-.45,5.28,5.28,0,0,1,.55-.37,4.72,4.72,0,0,0-.41.5,3.32,3.32,0,0,0-.33.53,3,3,0,0,0-.22.56,2.26,2.26,0,0,0-.09.57,2.93,2.93,0,0,0,.73,2,2.59,2.59,0,0,0,.37.37l.09.07.1.07.23.12a3.36,3.36,0,0,0,1,.34,3.22,3.22,0,0,0,1,0,2.47,2.47,0,0,0,.47-.11l.21-.08.1,0,0,0s0,0,0,0l-.13.07a3.47,3.47,0,0,0,.86-.85,1.58,1.58,0,0,0,.25-.86,4.51,4.51,0,0,0-.87-2.21,4.64,4.64,0,0,0-1.83-1.6,6,6,0,0,0-1.18-.45,4.48,4.48,0,0,0-.6-.11l-.12,0c-.09,0,.11,0,.08,0H8.61a1.82,1.82,0,0,0-.33,0,5.24,5.24,0,0,0-2.32.63A3.05,3.05,0,0,0,4.66,514a3.2,3.2,0,0,0,0,2,4.52,4.52,0,0,0,1.2,2,7.67,7.67,0,0,0,1,.82l.26.17.17.11,0,0s0,0,0,0h0l0,0,.08,0,.66.39,2.8,1.55,2.83,1.56,2.83,1.56,2.82,1.59,2.81,1.61L24.9,529l2.79,1.66.08.05a3.35,3.35,0,0,1,.73.68,3.42,3.42,0,0,1,.49.85,3.35,3.35,0,0,1,.17,1.9,3.81,3.81,0,0,1-.13.45,1.45,1.45,0,0,1-.09.22l-.12.24,0,0,0,0-.1.16h0l0,0h0l0,0a3.8,3.8,0,0,1-.33.37,2.59,2.59,0,0,1-1.73.68,2.55,2.55,0,0,1-.9-.16l-.21-.09-.21-.11-.15-.1,0,0h0l0,0-.05,0-.08-.08a2,2,0,0,1-.64-1.6,1.85,1.85,0,0,1,.27-.81,1.7,1.7,0,0,1,.25-.31,1.51,1.51,0,0,1,.34-.24,1.46,1.46,0,0,1,.76-.15,1.34,1.34,0,0,1,.68.28" transform="translate(-0.83 -0.91)"/></g></g></g><g class="cls-45"><g class="cls-46"><g class="cls-46"><path class="cls-4" d="M726.12,26.62a3.52,3.52,0,0,0-2.38-1.56c1-.38,2-1.31,2.12-3.54v0h0c-2.24.13-3.17,1.17-3.55,2.13a3.54,3.54,0,0,0-1.56-2.38s1.34,2.23-.21,3.38a2.34,2.34,0,0,0-1.3,3.49h0a2.33,2.33,0,0,0,3.49-1.29c1.14-1.55,3.38-.21,3.38-.21" transform="translate(-0.83 -0.91)"/></g></g></g><g class="cls-47"><g class="cls-46"><g class="cls-46"><path class="cls-4" d="M719.71,23.89a3,3,0,0,0-.16-.31,1.34,1.34,0,0,0-.19-.26,2,2,0,0,0-.22-.2,1.2,1.2,0,0,0-.23-.11.66.66,0,0,0-.24,0,1,1,0,0,0-.24,0l-.12,0h0s0,0,0,0h0l-.08,0a.38.38,0,0,0-.08.05l-.08.06a.3.3,0,0,0-.12.13.46.46,0,0,0-.09.17,1.18,1.18,0,0,0-.07.2,1.84,1.84,0,0,0,0,.25l0,.27a2.8,2.8,0,0,0,0,.29v.3l0,.3,0-.09a4.8,4.8,0,0,1,.08.48c0,.16,0,.32,0,.47,0,.32,0,.64,0,.95a7.66,7.66,0,0,1-.29,1.89,5,5,0,0,1-.35.91,4.5,4.5,0,0,1-.23.43c-.09.14-.18.27-.28.4a2.28,2.28,0,0,1-.33.36,3.68,3.68,0,0,1-.37.32,2.91,2.91,0,0,1-.41.24,2.07,2.07,0,0,1-.45.17,3.17,3.17,0,0,0,.28-.36,3.73,3.73,0,0,0,.23-.37c.07-.13.13-.25.19-.38s.1-.25.14-.38a2.91,2.91,0,0,0,.12-.39l.09-.4c0-.13,0-.27.07-.4s0-.27,0-.4a5.64,5.64,0,0,0,0-.82c0-.28,0-.55,0-.83s0-.55,0-.83l0-.41,0-.4v-.09h0a6.52,6.52,0,0,1,0-.76c0-.13,0-.26.06-.39a2,2,0,0,1,.1-.4,2.17,2.17,0,0,1,.15-.4,2,2,0,0,1,.23-.4,1.94,1.94,0,0,1,.34-.36,1.66,1.66,0,0,1,.45-.25.9.9,0,0,1,.23-.08l.25,0h.21l.21,0a2.09,2.09,0,0,1,.43.11,1.11,1.11,0,0,1,.39.24,1.1,1.1,0,0,1,.28.33,1.44,1.44,0,0,1,.15.37,1.55,1.55,0,0,1,0,.74" transform="translate(-0.83 -0.91)"/></g></g></g><g class="cls-48"><g class="cls-46"><g class="cls-46"><path class="cls-4" d="M723.48,27.66a1.51,1.51,0,0,1,.73,0,1.37,1.37,0,0,1,.38.15,1.1,1.1,0,0,1,.33.28,1.21,1.21,0,0,1,.24.39,2.26,2.26,0,0,1,.11.43l0,.21v.06h0s0,0,0,0v.12a1.2,1.2,0,0,1,0,.24,2.17,2.17,0,0,1-.07.24,2.3,2.3,0,0,1-.25.43,1.75,1.75,0,0,1-.37.35,2,2,0,0,1-.4.23l-.4.16-.4.09-.39.06a6.52,6.52,0,0,1-.76,0h-.09l-.4,0-.41,0c-.28,0-.56,0-.83-.05h-.83q-.4,0-.81.06a2.71,2.71,0,0,0-.41,0l-.4.07-.4.09c-.13,0-.26.07-.39.12a2.5,2.5,0,0,0-.38.15,3.26,3.26,0,0,0-.38.18,3.73,3.73,0,0,0-.37.23,4.39,4.39,0,0,0-.36.28,2.32,2.32,0,0,1,.16-.44,3.58,3.58,0,0,1,.25-.42,3.37,3.37,0,0,1,.68-.7l.4-.28a3.55,3.55,0,0,1,.43-.23,5,5,0,0,1,.91-.35,7.66,7.66,0,0,1,1.89-.29c.32,0,.63,0,.94,0l.48,0c.16,0,.31,0,.49.08h.79l.27,0,.25-.05.2-.07a.56.56,0,0,0,.17-.09.69.69,0,0,0,.13-.11l.06-.09,0-.08,0-.08v0h0s0,0,0,0h0l0-.15a1,1,0,0,0,0-.24,1,1,0,0,0,0-.24.8.8,0,0,0-.11-.23,1.33,1.33,0,0,0-.2-.22,1.74,1.74,0,0,0-.26-.19,2.25,2.25,0,0,0-.31-.16" transform="translate(-0.83 -0.91)"/></g></g></g><g class="cls-49"><g class="cls-46"><g class="cls-46"><path class="cls-4" d="M709.1,34.16a.87.87,0,0,0-.23.21,1.39,1.39,0,0,0-.17.3.73.73,0,0,0-.07.41.39.39,0,0,0,.06.15.73.73,0,0,0,.14.18.82.82,0,0,0,.42.2.86.86,0,0,0,.23,0l0,0,.07,0,.14-.08a1.37,1.37,0,0,0,.42-.45,2.09,2.09,0,0,0,.11-1.4c-.12-.66-.26-1.43-.45-2.19s-.41-1.55-.67-2.32a21.8,21.8,0,0,0-.9-2.32,19.28,19.28,0,0,0-1.12-2.17,10.43,10.43,0,0,0-1.36-1.81,5.22,5.22,0,0,0-.75-.63,2,2,0,0,0-.7-.32,1,1,0,0,0-.58,0,2,2,0,0,0-.6.3,1,1,0,0,0-.29.34,1.21,1.21,0,0,0,0,.5.56.56,0,0,0,.2.33.85.85,0,0,0,.19.1l.24.07a1,1,0,0,0,.74-.07,1.94,1.94,0,0,0,.18-.14l.06-.06a1.06,1.06,0,0,1-.09.33,1.23,1.23,0,0,1-.84.62l-.18.05h-.18a1.25,1.25,0,0,1-.46-.05,1.54,1.54,0,0,1-.88-.65,2.23,2.23,0,0,1-.36-1.14,2.14,2.14,0,0,1,.51-1.33,3.11,3.11,0,0,1,.48-.48,3.06,3.06,0,0,1,.58-.38,2.84,2.84,0,0,1,1.56-.26,3.66,3.66,0,0,1,1.45.48,6.21,6.21,0,0,1,1.17.84A11.31,11.31,0,0,1,709,23.41a16.38,16.38,0,0,1,1.33,2.43,21,21,0,0,1,1,2.56A22.72,22.72,0,0,1,711.9,31c.08.42.15.83.2,1.24,0,.2.06.41.08.61l0,.29c0,.1,0,.22,0,.34a4.14,4.14,0,0,1-.19,1.38,3,3,0,0,1-.76,1.2,2.5,2.5,0,0,1-1.13.58l-.28,0h-.33a1.56,1.56,0,0,1-1.33-.82,1.56,1.56,0,0,1-.15-.41.85.85,0,0,1,0-.45,1.2,1.2,0,0,1,.35-.51,1.83,1.83,0,0,1,.35-.24l.25-.07h.08" transform="translate(-0.83 -0.91)"/></g></g></g><g class="cls-50"><g class="cls-46"><g class="cls-46"><path class="cls-4" d="M711.56,30.25l-.07-.09s0-.06-.08-.1l-.09-.15a2.31,2.31,0,0,1-.14-.48,1.81,1.81,0,0,1,.05-.68,2.36,2.36,0,0,1,1-1.35l.1-.06.09-.05.07,0,.19-.07a1.6,1.6,0,0,1,.62-.07,1.74,1.74,0,0,1,1.09.45,1.92,1.92,0,0,1,.37.48l.07.13v0h0l0,.06v.07l0,.11s0,0,0,.07v.09c0,.07,0,.13,0,.19s0,.11,0,.16a1.55,1.55,0,0,1-.07.31,1.39,1.39,0,0,1-.12.28l-.08.13-.09.11-.1.11-.11.09a1.28,1.28,0,0,1-.25.15l-.12.06h0l0,0h-.06l-.09,0-.15,0h-.16l-.13,0a.85.85,0,0,1-.24-.08,1.09,1.09,0,0,1-.39-.27,1.06,1.06,0,0,1-.27-.71.84.84,0,0,1,.23-.52.69.69,0,0,1,.28-.16l.1,0-.07.07a.82.82,0,0,0-.12.23.46.46,0,0,0,0,.33.55.55,0,0,0,.26.28.45.45,0,0,0,.19.05h.14l0,0h0l.08,0,0,0h0s0,0,0,0v0l0,0a.27.27,0,0,0,.07-.08l0,0,0,0,0,0v-.05a.17.17,0,0,0,0-.1v-.16h0v0l0-.1,0-.05v0l0,.05h0l0,0a.67.67,0,0,0-.14-.19.82.82,0,0,0-.43-.2H713l-.19.05h0l.05,0h-.05l-.08,0a2.19,2.19,0,0,0-.9.73,1.65,1.65,0,0,0-.22.44,2.25,2.25,0,0,0-.07.4.85.85,0,0,1,0,.16.66.66,0,0,1,0,.13.87.87,0,0,1,0,.11" transform="translate(-0.83 -0.91)"/></g></g></g><g class="cls-51"><g class="cls-46"><g class="cls-46"><path class="cls-4" d="M711.22,28.75a2,2,0,0,1-.33-.29,3.68,3.68,0,0,1-.64-1,4.66,4.66,0,0,1-.24-.77,3.91,3.91,0,0,1-.07-.93,3.5,3.5,0,0,1,.77-2,3.08,3.08,0,0,1,.4-.41,2.61,2.61,0,0,1,.27-.22c.09-.05.18-.12.28-.17A2.41,2.41,0,0,1,713,22.7a1.88,1.88,0,0,1,.67.21,1.91,1.91,0,0,1,.5.37,2,2,0,0,1,.51.86,2.26,2.26,0,0,1,.1.74,2.91,2.91,0,0,1-.09.52,1.88,1.88,0,0,1-.19.43l-.08-.09a2.77,2.77,0,0,0-.21-.25c-.09-.1-.19-.22-.3-.33a2.31,2.31,0,0,0-.39-.31,1.07,1.07,0,0,0-.39-.15.28.28,0,0,0-.23.07l-.18.13-.06.06-.06.05a1.66,1.66,0,0,0-.18.19,3,3,0,0,0-.58.94,5,5,0,0,0-.22.58c0,.2-.11.4-.15.6-.09.38-.16.74-.21,1s-.08.43-.08.43" transform="translate(-0.83 -0.91)"/></g></g></g><g class="cls-52"><g class="cls-46"><g class="cls-46"><path class="cls-4" d="M709.4,24.78l-.13-.1a4,4,0,0,1-.33-.31,4.6,4.6,0,0,1-.43-.55,5.18,5.18,0,0,1-.44-.79,4.89,4.89,0,0,1-.32-1,4.78,4.78,0,0,1-.11-1.28,5.21,5.21,0,0,1,.29-1.41A4.91,4.91,0,0,1,708.7,18l.25-.3a2.44,2.44,0,0,1,.29-.27,2.22,2.22,0,0,1,.37-.29,2.55,2.55,0,0,1,.39-.24,3.19,3.19,0,0,1,1.89-.35,3.12,3.12,0,0,1,.91.29,3.06,3.06,0,0,1,.69.5,3,3,0,0,1,.7,1.18,3.09,3.09,0,0,1,.12,1,3.31,3.31,0,0,1-.13.73,2.54,2.54,0,0,1-.17.43l-.08.15-.1-.13-.29-.33a4.41,4.41,0,0,0-.43-.45,3,3,0,0,0-.52-.43,1.2,1.2,0,0,0-.54-.2.39.39,0,0,0-.31.09l-.24.19-.09.06-.07.08a3,3,0,0,0-.25.25,4.68,4.68,0,0,0-.8,1.3c-.11.25-.2.52-.29.79s-.15.54-.21.81c-.13.53-.22,1-.28,1.38l-.11.59" transform="translate(-0.83 -0.91)"/></g></g></g><g class="cls-53"><g class="cls-46"><g class="cls-46"><path class="cls-4" d="M713.14,38.22a.45.45,0,0,1,0,.08.88.88,0,0,1-.07.25,1.15,1.15,0,0,1-.23.35,1.35,1.35,0,0,1-.52.35.8.8,0,0,1-.44,0,1.56,1.56,0,0,1-.41-.15,1.59,1.59,0,0,1-.69-.75,1.63,1.63,0,0,1-.13-.58v-.18a.71.71,0,0,1,0-.15,2.74,2.74,0,0,1,.05-.28,2.43,2.43,0,0,1,.59-1.13,2.71,2.71,0,0,1,1.19-.76,4.14,4.14,0,0,1,1.38-.19,19.31,19.31,0,0,1,2.48.31,25.2,25.2,0,0,1,2.56.64,21,21,0,0,1,2.56,1,17.87,17.87,0,0,1,2.43,1.32A11,11,0,0,1,726,40.13a6.14,6.14,0,0,1,.84,1.16,3.93,3.93,0,0,1,.48,1.46,2.86,2.86,0,0,1-.27,1.56,2.61,2.61,0,0,1-.37.58,3.11,3.11,0,0,1-.48.48,2.14,2.14,0,0,1-1.33.51,2.23,2.23,0,0,1-1.14-.36,1.61,1.61,0,0,1-.66-.88,1.48,1.48,0,0,1,0-.46.22.22,0,0,1,0-.09V44c0-.06,0-.12,0-.18a1.24,1.24,0,0,1,.63-.84.94.94,0,0,1,.33-.09L724,43a.88.88,0,0,0-.21.92l0,.12,0,.06s0,0,0,.06a.57.57,0,0,0,.1.19.58.58,0,0,0,.33.2,1,1,0,0,0,.5,0,.92.92,0,0,0,.33-.29,2,2,0,0,0,.31-.61,1,1,0,0,0,0-.57,2.3,2.3,0,0,0-.32-.71,5.78,5.78,0,0,0-.63-.74,10,10,0,0,0-1.81-1.36,20.16,20.16,0,0,0-2.17-1.13,24.11,24.11,0,0,0-2.32-.89c-.78-.26-1.56-.48-2.32-.67s-1.53-.33-2.19-.45a2,2,0,0,0-1.4.11,1.2,1.2,0,0,0-.45.42.64.64,0,0,0-.08.14l0,.07,0,0a.55.55,0,0,0,0,.22.74.74,0,0,0,.2.43l.18.14a.3.3,0,0,0,.15.06.79.79,0,0,0,.4-.07,1.1,1.1,0,0,0,.31-.17.87.87,0,0,0,.21-.23" transform="translate(-0.83 -0.91)"/></g></g></g><g class="cls-54"><g class="cls-46"><g class="cls-46"><path class="cls-4" d="M717.05,35.76h.4a1.68,1.68,0,0,0,.4-.07,1.47,1.47,0,0,0,.44-.21,2.16,2.16,0,0,0,.73-.91l0-.07v0l0,0h0v0l.05-.19a.16.16,0,0,0,0-.07v0a.18.18,0,0,0,0-.1.69.69,0,0,0-.2-.43.62.62,0,0,0-.18-.14l-.05,0h0l.05,0-.07,0-.1,0h-.2a.19.19,0,0,0-.1,0h-.05l0,0,0,0,0,0a.23.23,0,0,0-.07.07l0,0h0s0-.08,0,0h0l0,.05,0,.08s0,0,0,0l0,0V34a.49.49,0,0,0,0,.2.57.57,0,0,0,.27.26.56.56,0,0,0,.34,0,.82.82,0,0,0,.23-.12l.07-.07a.42.42,0,0,1,0,.1.69.69,0,0,1-.16.28.82.82,0,0,1-.52.23,1,1,0,0,1-.71-.27,1.09,1.09,0,0,1-.27-.39A.68.68,0,0,1,717,34l0-.13v-.16a.61.61,0,0,1,0-.15v-.14h0s0-.06,0,0h0v0l.06-.13a1.58,1.58,0,0,1,.15-.24l.09-.11.11-.1.11-.09.13-.08a1.39,1.39,0,0,1,.28-.12,1.08,1.08,0,0,1,.31-.07h.16l.18,0h.1l.07,0,.1,0H719l.05,0h0l.14.07a2.12,2.12,0,0,1,.48.37,1.8,1.8,0,0,1,.45,1.09,1.62,1.62,0,0,1-.07.62l-.07.19,0,.07,0,0-.09.16a2.36,2.36,0,0,1-1.35,1,1.6,1.6,0,0,1-1.16-.1l-.16-.09-.1-.07-.08-.07" transform="translate(-0.83 -0.91)"/></g></g></g><g class="cls-55"><g class="cls-46"><g class="cls-46"><path class="cls-4" d="M718.54,36.1,719,36l1-.21.6-.15c.2-.07.39-.13.58-.21a3.5,3.5,0,0,0,.94-.59l.19-.18.1-.12.14-.17a.33.33,0,0,0,.07-.24,1.07,1.07,0,0,0-.15-.39,2.33,2.33,0,0,0-.31-.38,2.39,2.39,0,0,0-.34-.31,1.87,1.87,0,0,0-.24-.21l-.09-.08a1.88,1.88,0,0,1,.43-.19,2.88,2.88,0,0,1,.53-.09,2.5,2.5,0,0,1,.73.09,2.12,2.12,0,0,1,.86.51,2.23,2.23,0,0,1,.37.51,2.42,2.42,0,0,1,.21.66,2.35,2.35,0,0,1-.26,1.39,2.61,2.61,0,0,1-.17.28,1.65,1.65,0,0,1-.21.27,4,4,0,0,1-.42.4,3.47,3.47,0,0,1-1,.56,3.93,3.93,0,0,1-1,.21,3.43,3.43,0,0,1-.93-.08,3.31,3.31,0,0,1-.77-.24,3.61,3.61,0,0,1-1-.63,3.82,3.82,0,0,1-.3-.33" transform="translate(-0.83 -0.91)"/></g></g></g><g class="cls-56"><g class="cls-46"><g class="cls-46"><path class="cls-4" d="M722.52,37.92l.59-.11c.35-.06.84-.16,1.37-.28.27-.06.55-.13.82-.21s.54-.18.79-.29a4.71,4.71,0,0,0,1.29-.8,3.13,3.13,0,0,0,.26-.25l.07-.08.08-.08.18-.24a.4.4,0,0,0,.09-.32,1.3,1.3,0,0,0-.2-.53,3.12,3.12,0,0,0-.43-.53,5.63,5.63,0,0,0-.45-.42,2.85,2.85,0,0,0-.34-.28,1.06,1.06,0,0,1-.12-.12l.15-.08a4.16,4.16,0,0,1,.44-.17,3.83,3.83,0,0,1,.72-.12,3.15,3.15,0,0,1,1,.12,3,3,0,0,1,1.18.7,2.78,2.78,0,0,1,.5.69,3,3,0,0,1,.29.91,3.2,3.2,0,0,1-.35,1.89,2.55,2.55,0,0,1-.24.39,4,4,0,0,1-.28.37l-.28.29-.3.25a4.77,4.77,0,0,1-1.35.77,5.28,5.28,0,0,1-1.42.29,4.7,4.7,0,0,1-1.27-.11,4.23,4.23,0,0,1-1-.33,4.45,4.45,0,0,1-.79-.43,4.07,4.07,0,0,1-.55-.43c-.14-.13-.24-.26-.31-.33a1,1,0,0,1-.1-.13" transform="translate(-0.83 -0.91)"/></g></g></g><g class="cls-57"><g class="cls-46"><g class="cls-46"><path class="cls-4" d="M702.17,26.73a1.37,1.37,0,0,1-.28-.68,1.48,1.48,0,0,1,.15-.77,1.27,1.27,0,0,1,.24-.33,1.7,1.7,0,0,1,.31-.25,1.73,1.73,0,0,1,.81-.27,1.92,1.92,0,0,1,1.6.63l.08.09,0,.05h0v0h0l0,0,.1.15a2,2,0,0,1,.12.21,1.8,1.8,0,0,1,.08.21,2.47,2.47,0,0,1,.16.9,2.56,2.56,0,0,1-.68,1.72,2.91,2.91,0,0,1-.37.33l0,0h0l0,0h0l-.19.13-.06,0-.23.12-.23.08a2.35,2.35,0,0,1-.45.14,3.44,3.44,0,0,1-1.9-.17,3.65,3.65,0,0,1-.85-.5,4,4,0,0,1-.69-.73l0-.08c-.56-.92-1.11-1.85-1.66-2.78l-1.64-2.8-1.6-2.82-1.59-2.82-1.57-2.83L690.2,11l-1.55-2.79-.38-.66,0-.09h0v0s0,0,0,0l0,0-.11-.18L687.9,7a6.46,6.46,0,0,0-.82-1,4.62,4.62,0,0,0-2-1.2,3.2,3.2,0,0,0-2,0,3,3,0,0,0-1.5,1.31A5.07,5.07,0,0,0,681,8.47c0,.11,0,.22,0,.33v.13s0-.17,0-.08A.57.57,0,0,0,681,9a4.79,4.79,0,0,0,.11.6,6.24,6.24,0,0,0,.45,1.18,4.71,4.71,0,0,0,1.6,1.83,4.61,4.61,0,0,0,2.21.87,1.59,1.59,0,0,0,.86-.26,3.47,3.47,0,0,0,.85-.86l-.07.14s0,0,0,0l0,0,0-.09a2,2,0,0,0,.08-.22,2.47,2.47,0,0,0,.11-.47,3.23,3.23,0,0,0,0-1,3.47,3.47,0,0,0-.34-1l-.12-.22-.06-.1-.08-.09a2.64,2.64,0,0,0-.37-.38,3,3,0,0,0-2-.73,4,4,0,0,0-.57.09,3.25,3.25,0,0,0-.56.22,5.84,5.84,0,0,0-.53.33c-.17.13-.34.27-.49.41a4.61,4.61,0,0,1,.36-.54,3.59,3.59,0,0,1,.46-.5,3.14,3.14,0,0,1,1.21-.69,3.22,3.22,0,0,1,1.45-.1,4,4,0,0,1,1.41.46,3.52,3.52,0,0,1,.64.42l.15.13.15.15a3.23,3.23,0,0,1,.25.29,4.7,4.7,0,0,1,.78,1.32,4.57,4.57,0,0,1,.32,1.56,4.4,4.4,0,0,1,0,.81c0,.14,0,.27-.06.41l-.06.21,0,.11a.6.6,0,0,1,0,.14v0l-.07.11a5.84,5.84,0,0,1-1.26,1.57,3.87,3.87,0,0,1-1,.61,4.13,4.13,0,0,1-1.13.31,5.5,5.5,0,0,1-2.14-.22,8.15,8.15,0,0,1-.91-.34c-.14-.05-.32-.14-.45-.2l-.17-.08-.24-.13a7.7,7.7,0,0,1-2.85-2.76,9.69,9.69,0,0,1-.82-1.8,10,10,0,0,1-.25-1c0-.09,0-.17-.05-.28V8.87c0-.16,0-.32,0-.48a8.42,8.42,0,0,1,.91-3.91,6.71,6.71,0,0,1,1.33-1.74,6.26,6.26,0,0,1,1.89-1.22,6.62,6.62,0,0,1,4.34-.23,8.28,8.28,0,0,1,3.55,2.08,9.92,9.92,0,0,1,1.26,1.5c.1.13.2.31.28.42l.1.17.07.12.06.09.42.74c.53,1,1,1.93,1.53,2.9s1,1.93,1.47,2.9,1,1.95,1.43,2.92l1.38,2.94L699,21c.44,1,.89,2,1.32,3s.87,2,1.28,3l0-.07a2.71,2.71,0,0,0,.24.35,3,3,0,0,0,.34.28,1.64,1.64,0,0,0,.9.23,2,2,0,0,0,.24,0l.11,0,.1,0h.06l.08,0,.08,0h0l0,0h0l.19-.12a1.32,1.32,0,0,0,.5-.8,1.3,1.3,0,0,0,0-.52,2,2,0,0,0-.05-.24l-.07-.16h0v0l0-.06a1.22,1.22,0,0,0-.89-.55,1.37,1.37,0,0,0-.57.05,1.46,1.46,0,0,0-.28.14.87.87,0,0,0-.23.2,1.22,1.22,0,0,0-.15,1.27" transform="translate(-0.83 -0.91)"/></g></g></g><g class="cls-58"><g class="cls-46"><g class="cls-46"><path class="cls-4" d="M720.66,45.21a1.2,1.2,0,0,0,1.27-.14,1.1,1.1,0,0,0,.2-.23,1.46,1.46,0,0,0,.14-.28,1.37,1.37,0,0,0,.05-.57,1.17,1.17,0,0,0-.56-.89l-.06,0h0l-.16-.07-.24-.06a1.51,1.51,0,0,0-.52,0,1.32,1.32,0,0,0-.8.5,1,1,0,0,0-.12.19v0h0s0-.06,0,0h0v0l0,.08,0,.08,0,0v0l0,.1a.35.35,0,0,0,0,.11,2,2,0,0,0,0,.24,1.6,1.6,0,0,0,.23.89,1.88,1.88,0,0,0,.28.34,1.72,1.72,0,0,0,.35.25l-.08-.05c1,.42,2,.85,3,1.29l3,1.32,2.94,1.35,2.94,1.39,2.92,1.43,2.9,1.46c1,.5,1.93,1,2.9,1.54l.74.42.09.06.12.07.17.1c.11.08.28.19.42.27a10.62,10.62,0,0,1,1.5,1.27,8.28,8.28,0,0,1,2.08,3.55,6.62,6.62,0,0,1-.23,4.34,6.39,6.39,0,0,1-1.22,1.89,6.46,6.46,0,0,1-1.74,1.32,8.33,8.33,0,0,1-3.91.92h-.84l-.28,0a7.83,7.83,0,0,1-1-.26,8.48,8.48,0,0,1-1.79-.81,7.65,7.65,0,0,1-2.77-2.85c0-.09-.08-.14-.13-.23l-.09-.19c-.06-.13-.14-.29-.2-.44a9.63,9.63,0,0,1-.33-.91,5.5,5.5,0,0,1-.22-2.14,4.3,4.3,0,0,1,.31-1.14,4,4,0,0,1,.61-1,5.7,5.7,0,0,1,1.57-1.27l.11-.06h0l.14,0,.11,0,.21-.06.41-.07a5.49,5.49,0,0,1,.81,0,4.62,4.62,0,0,1,1.56.32,4.84,4.84,0,0,1,1.32.78l.29.25.15.15.13.15a3.79,3.79,0,0,1,.42.65,4.07,4.07,0,0,1,.47,1.4,3.53,3.53,0,0,1-.11,1.45,3,3,0,0,1-.7,1.21,4.24,4.24,0,0,1-.49.46,4.61,4.61,0,0,1-.54.36c.14-.16.28-.32.41-.49a4.86,4.86,0,0,0,.33-.54,2.31,2.31,0,0,0,.21-.55,3.11,3.11,0,0,0,.1-.57,3,3,0,0,0-.73-2,4.4,4.4,0,0,0-.38-.37l-.09-.07-.1-.06s-.15-.08-.23-.13a3.34,3.34,0,0,0-1-.33,3.22,3.22,0,0,0-1,0,2.37,2.37,0,0,0-.46.11l-.22.08-.09,0,0,0s0,0,0,0l.13-.07a3.42,3.42,0,0,0-.85.85,1.55,1.55,0,0,0-.25.86,4.39,4.39,0,0,0,.86,2.21,4.71,4.71,0,0,0,1.83,1.6,6.24,6.24,0,0,0,1.18.45,4.48,4.48,0,0,0,.6.11l.12,0h0c.09,0-.11,0-.08,0h.45a5.08,5.08,0,0,0,2.32-.64,3,3,0,0,0,1.31-1.5,3.2,3.2,0,0,0,0-2,4.62,4.62,0,0,0-1.2-2,7.11,7.11,0,0,0-1-.82l-.25-.17-.22-.14h0l-.09-.05-.66-.38-2.8-1.55-2.83-1.56-2.82-1.57-2.82-1.59-2.82-1.61-2.8-1.63c-.93-.55-1.86-1.1-2.78-1.66l-.08,0a3.62,3.62,0,0,1-.73-.68,3.33,3.33,0,0,1-.5-.85,3.44,3.44,0,0,1-.17-1.9,3.33,3.33,0,0,1,.13-.45,2.18,2.18,0,0,1,.09-.23l.12-.23,0-.06,0,0,.09-.16h0l0,0v0l0,0a2.35,2.35,0,0,1,.33-.37,2.54,2.54,0,0,1,1.72-.68,2.7,2.7,0,0,1,.9.15,1.89,1.89,0,0,1,.21.09l.21.11.15.11h0v0h0l0,0,.09.08A1.92,1.92,0,0,1,723,44a1.85,1.85,0,0,1-.27.81,1.7,1.7,0,0,1-.25.31,1.27,1.27,0,0,1-.33.24,1.48,1.48,0,0,1-.77.15,1.39,1.39,0,0,1-.68-.29" transform="translate(-0.83 -0.91)"/></g></g></g><path class="cls-4" d="M735,26.38V12H12.77V566.37H735Zm-4.06,0V562.32H16.83V16.05H730.89Z" transform="translate(-0.83 -0.91)"/></svg>